<?xml version="1.0" encoding="utf-8"?>
<!-- Generator: Adobe Illustrator 24.3.0, SVG Export Plug-In . SVG Version: 6.00 Build 0)  -->
<svg version="1.1" id="Layer_1" xmlns="http://www.w3.org/2000/svg" xmlns:xlink="http://www.w3.org/1999/xlink" x="0px" y="0px"
	 viewBox="0 0 528.1 528.1" style="enable-background:new 0 0 528.1 528.1;" xml:space="preserve">
<path d="M292.8,26C287.5,15,276.3,8,264,8c-12.3,0-23.4,7-28.8,18l-64.3,132.3L27.3,179.5c-12,1.8-22,10.2-25.7,21.7
	s-0.7,24.2,7.9,32.7L113.7,337L89.1,482.7c-2,12,3,24.2,12.9,31.3s23,8,33.8,2.3l128.3-68.5l128.3,68.5c10.8,5.7,23.9,4.9,33.8-2.3
	s14.9-19.3,12.9-31.3L414.4,337l104.2-103.1c8.6-8.5,11.7-21.2,7.9-32.7s-13.7-19.9-25.7-21.7l-143.7-21.2L292.8,26z"/>
</svg>
