<?xml version="1.0" encoding="utf-8"?>
<!-- Generator: Adobe Illustrator 24.3.0, SVG Export Plug-In . SVG Version: 6.00 Build 0)  -->
<svg version="1.0" id="Layer_1" xmlns="http://www.w3.org/2000/svg" xmlns:xlink="http://www.w3.org/1999/xlink" x="0px" y="0px"
	 viewBox="0 0 505.2 505.2" style="enable-background:new 0 0 505.2 505.2;" xml:space="preserve">
<g>
	<path d="M488.2,236c-1.7-1.8-2.9-4.7-3.1-7.2c-0.4-7.7-0.1-15.5-0.1-23.8c-8.4,0-16.2,0.2-23.9-0.1c-2.4-0.1-5.1-1.2-6.9-2.8
		c-5.7-5.2-11.1-10.9-17.6-17.5c-5.1,5.8-9.9,11.2-14.2,16.1c-12.5-7.4-16.8-17.5-13.1-31.2c6.8,0,13.9,0,21.6,0
		c0-8.3-0.2-16.1,0.1-23.8c0.1-2.4,1.2-5.1,2.8-6.8c5.3-5.7,11-11,17.2-17c-6-5.8-11.7-10.9-16.9-16.4c-1.8-1.9-3-5-3.2-7.7
		c-0.4-7.6-0.1-15.2-0.1-23.4c-8.4,0-16.2,0.2-23.9-0.1c-2.4-0.1-5.2-1.2-6.8-2.8c-5.6-5.3-10.9-11.1-16.8-17.3
		c-4.7,4.9-8.9,8.8-12.6,13.3c-4.4,5.5-9.6,7.9-16.8,7.1c-5.9-0.6-11.8-0.1-18.3-0.1c0,7.7,0,14.8,0,21.5c-14.1,4-23.9-1-31.4-13.4
		c5-4.6,10.2-9.4,15.9-14.6c-5.7-5.6-10.9-11-16.4-16c-2.7-2.5-3.7-5.1-3.5-8.7c0.2-7.4,0.1-14.9,0.1-22.8c-6.7,0-12.8-0.4-18.9,0.1
		c-6.5,0.6-11.4-1.2-15.6-6.4c-3.8-4.8-8.3-9-13-14c-6,6.2-11.5,11.5-16.6,17.1c-2.2,2.4-4.6,3.3-7.8,3.2
		c-7.6-0.2-15.2-0.1-23.4-0.1c0,8.2,0.2,16-0.1,23.8c-0.1,2.5-1.4,5.4-3.1,7.2c-5.2,5.6-10.8,10.8-17.2,17
		c5.9,5.2,11.3,9.9,16.3,14.3c-7.5,12.6-17.4,17.2-31.5,13.3c0-6.8,0-13.9,0-21.5c-8.4,0-16,0.3-23.6-0.1c-2.5-0.1-5.4-1.4-7.2-3.1
		c-5.7-5.3-10.9-11-16.5-16.7c-5.4,5.5-10.3,10-14.7,15c-3.4,3.8-7,5.4-12.1,5.1c-6.9-0.4-13.8-0.1-21-0.1c0,8.4-0.2,15.8,0.1,23.3
		c0.1,3.5-1,5.9-3.5,8.2c-5.5,5.2-10.8,10.6-16.5,16.2c4.9,4.8,8.9,9.3,13.6,13c5.1,4.2,7.1,9,6.5,15.5c-0.6,6.2-0.1,12.5-0.1,19.2
		c8,0,15,0,21.6,0c3.9,13.9-1.1,23.7-13.8,31.3c-4.6-4.8-9.5-10-14.8-15.5c-5.3,5.4-10.5,10.5-15.5,15.8c-2.5,2.7-5,3.8-8.7,3.6
		c-7.6-0.3-15.2-0.1-23-0.1c0,8.5,0.2,16.1-0.1,23.7c-0.1,2.5-1.3,5.4-3,7.2c-5.3,5.6-11.1,10.8-16.9,16.4
		c6.1,6,11.1,11.3,16.5,16.2c2.7,2.5,3.8,5,3.7,8.7c-0.3,7.6-0.1,15.1-0.1,23c8.2,0,15.7,0.2,23.2-0.1c3.4-0.1,5.9,0.8,8.3,3.4
		c5,5.6,10.4,11,16.2,17.1c3.2-3.5,5.5-6.1,7.8-8.7c2.4-2.7,4.8-5.5,7.1-8.1c13.7,11.1,16.8,18.8,13,31.9c-6.9,0-14,0-21.5,0
		c0,8.2,0.2,15.8-0.1,23.4c-0.1,2.5-1.3,5.5-3,7.3c-5.3,5.7-11,10.9-17,16.7c6,5.8,11.1,11,16.5,15.9c2.9,2.6,3.8,5.4,3.7,9.2
		c-0.2,7.4-0.1,14.8-0.1,22.6c8.4,0,16.1-0.2,23.7,0.1c2.5,0.1,5.5,1.3,7.3,3c5.7,5.3,10.9,11,16.7,17c4.7-4.9,9.1-8.8,12.7-13.3
		c4.3-5.4,9.4-7.5,16.4-6.9c5.9,0.6,11.9,0.1,18.8,0.1c0-7.9,0-15,0-21.4c14.1-4.3,23.6,1.2,31.4,13.5c-4.9,4.5-10.2,9.5-15.8,14.7
		c5.7,5.6,11.2,10.6,16.3,16.1c1.8,2,3.1,5,3.3,7.7c0.4,7.7,0.2,15.5,0.2,23.6c8,0,15.3,0.2,22.6-0.1c3.8-0.1,6.6,0.8,9.1,3.7
		c4.9,5.5,10.3,10.7,15.9,16.5c6-6.2,11.2-11.9,16.8-17c1.8-1.7,4.8-2.9,7.3-3c7.7-0.4,15.5-0.1,23.6-0.1c0-8,0.2-15.3-0.1-22.5
		c-0.2-4,1-6.9,4-9.5c5.4-4.8,10.5-10,16.1-15.4c-5.9-5.5-11.1-10.4-15.9-14.9c7.4-12.5,17.4-17.2,31.4-13.2c0,6.9,0,13.9,0,21.5
		c8.3,0,16.1-0.2,23.9,0.1c2.3,0.1,5.1,1.3,6.8,2.9c5.6,5.4,10.8,11.2,16.6,17.3c6-6.2,11.3-11.5,16.4-17c2.3-2.5,4.8-3.6,8.3-3.5
		c7.6,0.2,15.2,0.1,23.2,0.1c0-6.7,0.4-12.7-0.1-18.6c-0.6-6.7,1.2-11.8,6.6-16c4.8-3.8,9-8.2,14-12.7c-6.3-6.1-11.6-11.5-17-16.5
		c-2.5-2.3-3.5-4.8-3.4-8.3c0.2-7.6,0.1-15.2,0.1-23.3c-7.8,0-14.9,0-21.5,0c-4.2-14,1-23.7,13.4-31.3c4.4,5,9.2,10.4,14.3,16.1
		c6.1-6.2,11.3-11.8,16.9-17c1.8-1.7,4.8-2.9,7.3-3c7.7-0.4,15.5-0.1,23.7-0.1c0-8.4-0.2-16.2,0.1-24c0.1-2.3,1.3-5.1,2.9-6.8
		c5.3-5.6,11.1-10.9,17.2-16.8C499,246.7,493.4,241.6,488.2,236z M414.3,204.8c-8.9,0-16.3,0-24.4,0c0,8.2,0,15.8,0,24.8
		c-8.4-8.4-15.8-15.7-23-23.1c-0.5-0.5-0.8-1.5-0.8-2.3c-0.1-10.2,0-20.5,0-30.7c0.5-0.2,0.9-0.5,1.4-0.7
		c5.1,5.4,10.1,10.9,15.7,16.8c5.6-5.9,10.8-11.3,16-16.8c0.4,0.2,0.8,0.4,1.2,0.6c0,4.4,0.2,8.8-0.1,13.2c-0.2,3.5,0.9,6,3.5,8.2
		C407.1,197.6,410.1,200.7,414.3,204.8z M357.9,303.9c0.5,10.4,0.1,20.8,0.1,31.5c-5,0-9.5,0-14.5,0c0-7.9-0.3-15.5,0.1-23
		c0.3-5.3-1-9.3-5.3-12.5c-1.9-1.4-3.6-2.9-5.9-4.7c5.4-4.2,8.5-8.5,6.2-15.4c2.5,0,4.1-0.2,5.6,0c7.3,1.3,12.6-1.7,17.2-7.2
		c4.3-5.1,9.2-9.6,14-14.5c3.5,3.6,6.6,6.8,10.2,10.4c-7.4,7.4-14.6,14.9-22.2,22C359.4,294.4,357.7,298.3,357.9,303.9z
		 M335.6,335.7c-8.9,0-16.9,0.7-24.8-0.3c-3.7-0.5-7-4.3-10.1-6.3c9.6-9.5,18.6-18.4,27.7-27.5c5.1,3.2,8.2,8.2,7.3,15.8
		C335,323.3,335.6,329.4,335.6,335.7z M161.4,320.9c0.5,4.7,0.1,9.5,0.1,14.5c-5,0-9.5,0-14.5,0c0-7.5-0.8-14.9,0.2-22
		c1.6-12.5-2.3-22-12.3-29.6c-5.6-4.3-10.3-9.8-15.6-14.9c3.8-3.9,6.9-7.1,10.3-10.7c5.8,5.8,11.6,11.3,16.9,17.2
		c3.1,3.4,6.4,4.9,10.9,4.4c2.6-0.3,5.2-0.1,8.6-0.1c-1.2,6.4,0.9,11.3,5.8,14.6c-0.3,0.6-0.4,0.8-0.5,0.9
		C161.8,301.5,160.3,310.6,161.4,320.9z M147,184c0-4.6,0-9.2,0-14.1c5,0,9.4,0,14.5,0c0,7.4,0.4,14.7-0.1,21.9
		c-0.4,6,1,10.6,5.9,14.2c1.6,1.2,3,2.6,5,4.3c-5.1,3.8-8.1,8.2-6.1,15.2c-2.6,0-4.5,0.3-6.4,0c-6.6-1.1-11.3,1.4-15.5,6.4
		c-4.5,5.3-9.6,10.1-14.6,15.2c-3.5-3.7-6.5-6.9-10.7-11.3c3.3-2.9,7-5.9,10.4-9.2c5.9-5.8,13.8-10.9,16.8-18
		C149.1,201.5,147,192.3,147,184z M169.5,169.7c9.1,0,17.9-0.6,26.5,0.3c3.1,0.3,5.8,4.6,8.7,7.1c-9.4,9.4-18.2,18.1-27.3,27.2
		c-4.8-3.7-8.9-7.6-8-15.1C170.1,183,169.5,176.6,169.5,169.7z M281,308.3c-0.6-0.7-1.2-1.7-1.2-2.6c-0.1-8.4-0.1-16.8-0.1-25.9
		c9,0,17.6-0.1,26.1,0.1c1,0,2.1,0.9,2.9,1.7c4.3,4.1,8.6,8.2,12.8,12.2c-9.5,9.5-18.3,18.4-27.8,27.9
		C289.7,317.4,285.3,312.9,281,308.3z M289.1,328.7c-3,1.2-5.7,2.3-9,3.7c0-5,0-8.8,0-13.4C283.2,322.3,285.7,325,289.1,328.7z
		 M272.8,272.5c-9.5-2.4-15.4,0.5-20,7.7c-5-6.4-10.7-10.5-19.1-8c-0.3-4.4,0.4-8.3-0.9-11.4c-1.3-3-4.5-5.2-7.2-8.1
		c2.4-2.6,5.7-4.8,7.1-7.9c1.4-3.1,0.8-7.1,1.1-11.4c7.6,1.2,14.1-0.5,18.5-8.5c5.1,6.5,10.8,10.6,19.8,8c-1.4,8.5,0.4,15,8.3,19.3
		C274.1,257.5,269.1,262.8,272.8,272.5z M234.9,308.8c5.6-5.8,11.3-11.6,17.6-18c6.2,6.3,11.8,11.9,17.3,17.7c1,1.1,1.8,2.8,1.8,4.3
		c0.2,6,0.1,11.9,0.1,18.2c-12.8,0-25.3,0-38.4,0c0-6.5-0.1-12.9,0.1-19.3C233.5,310.7,234.2,309.6,234.9,308.8z M233.6,297.7
		c0-5.7,0-11.4,0-17.2c5.8-2,9.8,0.1,12.7,5C242.2,289.5,238.1,293.4,233.6,297.7z M259.5,284.2c2.2-3.5,6-5.8,11.9-3.9
		c0,5.6,0,11.3,0,15.9C268,292.8,263.9,288.7,259.5,284.2z M270.2,196.4c-5.6,5.9-11.4,11.6-17.5,17.8c-6.4-6.4-12.5-12.4-18.4-18.5
		c-0.7-0.7-0.9-2.1-0.9-3.2c-0.1-6,0-11.9,0-18.3c12.7,0,25.2,0,38.4,0c0,6.5,0.1,12.6-0.1,18.7C271.6,194.1,271,195.5,270.2,196.4z
		 M271.4,208c0,5.3,0,11,0,16.9c-5.8,1.9-9.6-0.3-12.3-4.6C263.1,216.2,267.3,212.1,271.4,208z M245.9,220.2
		c-4.3,5.7-4.5,5.7-12.3,4.8c0-6,0-11.6,0-17.8C237.9,211.8,241.9,216,245.9,220.2z M281,196.9c4.3-4.6,8.6-9.1,12.6-13.3
		c9.5,9.5,18.3,18.3,27.7,27.7c-4.1,4.1-8.7,8.6-13.4,13c-0.6,0.6-1.8,1-2.7,1c-8.3,0.1-16.5,0-25.6,0c0-9.1,0-17.5,0.1-25.9
		C279.8,198.6,280.4,197.6,281,196.9z M279.9,186.4c0-4.7,0-8.3,0-13.3c3.4,1.2,6.1,2.3,9.5,3.5C285.8,180.3,283.3,183,279.9,186.4z
		 M311.6,233.5c6.4-0.1,12.8-0.1,19.5-0.1c0,12.9,0,25.3,0,38.3c-6.7,0-13.2,0.1-19.8-0.1c-1,0-2.1-0.9-2.9-1.7
		c-5.7-5.6-11.4-11.2-17.6-17.4c6.4-6.3,12.3-12.1,18.2-17.9C309.7,234.1,310.7,233.5,311.6,233.5z M280.3,233.7
		c5.7,0,11.5,0,17.1,0c-4.1,4-8.2,8-12.5,12.3C279.1,241.3,279.1,241.3,280.3,233.7z M285.4,258.8c4.1,4.1,8.1,8.2,12.5,12.7
		c-6.1,0-11.8,0-17.6,0C278.4,265.4,280.9,261.7,285.4,258.8z M319,280.1c4.5,0,8.2,0,13.2,0c-1.3,3.3-2.3,6-3.6,9.4
		C325,286,322.3,283.3,319,280.1z M319.9,225.2c2.8-2.5,5.6-4.8,9.1-7.9c0.7,1.8,1.9,4.5,3.3,7.9
		C327.3,225.2,323.6,225.2,319.9,225.2z M328.4,204.4c-9.5-9.5-18.4-18.4-27.2-27.2c3.6-5.7,8.8-8.6,16.4-7.7
		c5.7,0.7,11.6,0.1,18,0.1c0,9.1,0.6,17.9-0.3,26.5C334.8,199.2,330.6,201.8,328.4,204.4z M335.4,161.6c-7.1,0-14,0.5-20.9-0.1
		c-6.9-0.6-12.3,1.3-16.3,6.9c-0.9,1.2-1.9,2.3-3.2,4c-4.1-5.1-8.5-8.3-14.9-6.2c-0.2-1.9-0.5-3.1-0.3-4.2
		c1.5-8.2-1.8-14.2-8.1-19.3c-4.8-3.8-8.9-8.4-13.4-12.8c3.6-3.6,6.8-6.7,10.6-10.4c8,8.1,15.9,16.4,24.2,24.3
		c1.9,1.8,5,3.1,7.7,3.2c11.4,0.3,22.8,0.1,34.8,0.1C335.4,152.3,335.4,156.6,335.4,161.6z M270.8,154c1.9,2.4,0.8,7.3,1.2,11.6
		c-13.2,0-25.6,0-38.2,0c-0.9-6.2-1.3-11.8,4.5-16.4c5-4,9.1-9.1,14-14.1C258.7,141.5,265.4,147.2,270.8,154z M230.6,145.5
		c-4.1,3.6-6.1,7.5-5.3,13c0.3,2.2,0.1,4.6,0.1,7.5c-6.3-1.1-11.3,0.4-14.6,6.1c-1-0.8-1.7-1.2-2.1-1.8c-5.2-7.4-12.2-9.7-21-8.7
		c-5.7,0.7-11.6,0.1-17.8,0.1c0-5.1,0-9.5,0-14.5c11.4,0,22.5-0.2,33.6,0.1c4,0.1,6.8-1,9.6-3.9c7.6-8.1,15.6-15.8,23.3-23.6
		c3.5,3.6,6.5,6.7,10.2,10.5C241.5,135,236.3,140.5,230.6,145.5z M222.9,309.5c-3.9,4.3-7.8,8.5-11.5,12.5
		c-9.7-9.7-18.5-18.5-28.1-28.1c4.5-4.2,9.1-8.6,13.9-13c0.7-0.6,1.8-1,2.7-1c8.3-0.1,16.5,0,25.5,0c0,9.1,0.1,17.8-0.1,26.5
		C225.1,307.4,223.8,308.5,222.9,309.5z M225.1,319.7c0,3.9,0,7.4,0,12.5c-3.3-1.2-6.1-2.3-9.3-3.5
		C219.5,325.2,222.1,322.6,225.1,319.7z M223.8,196.7c0.7,0.8,1.5,2,1.5,3c0.1,8.4,0.1,16.8,0.1,25.8c-9,0-17.4,0.1-25.8-0.1
		c-1,0-2.2-0.7-3-1.5c-4.4-4.2-8.8-8.5-12.8-12.5c9.2-9.2,18.1-18.1,27.6-27.6C215.4,187.8,219.6,192.2,223.8,196.7z M216.6,176.5
		c2.2-1,4.9-2.2,8.3-3.8c0,5.2,0,8.9,0,13.4C222.1,182.8,219.7,180,216.6,176.5z M214.1,252.5c-6.3,6.3-12.3,12.4-18.5,18.3
		c-0.7,0.7-2.1,0.9-3.2,0.9c-6,0.1-11.9,0-18.3,0c0-12.7,0-25.2,0-38.4c6.4,0,12.6-0.1,18.7,0.1c1.3,0,2.8,0.9,3.8,1.8
		C202.4,240.8,208,246.5,214.1,252.5z M184.9,224.9c-3.3,0-7,0-11.9,0c1.2-3.1,2.3-5.8,3.7-9.6C180,219.3,182.4,222.1,184.9,224.9z
		 M186,280.1c-3.4,2.9-6.2,5.3-9.7,8.3c-0.9-2.2-2.1-4.9-3.6-8.3C177.7,280.1,181.4,280.1,186,280.1z M224.9,271.3
		c-5.5,0-11.3,0-17.7,0c4.4-4.1,8.5-8,13-12.2C224.1,261.5,226.6,265.2,224.9,271.3z M219.6,246.5c-4-4.1-7.9-8.3-12.2-12.8
		c5.8,0,11.5,0,17.3,0C226.8,239.5,224.6,243.5,219.6,246.5z M165.4,233.1c0,13.2,0,25.7,0,38.2c-7.6,2.1-13.1-0.2-17.8-5.9
		c-3.7-4.4-8.3-8-12.9-12.3c6.7-6.7,12.3-13.3,18.9-18.6C156.2,232.5,161.2,233.5,165.4,233.1z M169.9,309.3
		c0.3-3.1,4.5-5.8,6.8-8.5c9.5,9.5,18.3,18.4,27.3,27.3c-3.7,5.6-8.7,8.7-16.3,7.7c-5.7-0.7-11.6-0.1-18.1-0.1
		C169.6,326.7,168.9,317.9,169.9,309.3z M169.8,343.7c7.6,0,15-0.4,22.4,0.1c5.6,0.4,10-1,13.3-5.6c1.3-1.7,2.8-3.3,4.6-5.4
		c4,5.3,8.3,8.2,15.3,6.3c0,2.6,0.3,4.5,0,6.4c-1.1,6.6,1.4,11.3,6.4,15.5c5.3,4.5,10.1,9.6,15.2,14.5c-3.7,3.4-6.9,6.5-10.7,10
		c-7.7-7.7-15.7-15.4-23.3-23.5c-2.8-2.9-5.6-4-9.6-3.9c-9.5,0.3-18.9,0.1-28.4,0.1c-1.6,0-3.2-0.1-5.1-0.2
		C169.8,353.1,169.8,348.7,169.8,343.7z M234.7,351.8c-2.1-2.7-1.2-7.7-1.8-12.1c13.4,0,25.9,0,38.3,0c1.6,7,0.5,12.6-5.3,17.3
		c-4.7,3.8-8.4,8.8-12.9,13.7C246.2,363.9,239.8,358.4,234.7,351.8z M275.2,359c3.6-3.2,5.1-6.6,4.6-11.3c-0.3-2.6-0.1-5.2-0.1-8.5
		c6.3,1.1,11.3-0.4,14.6-6c1,0.8,1.7,1.2,2.1,1.8c5.2,7.4,12.2,9.7,21,8.7c5.7-0.7,11.6-0.1,17.9-0.1c0,5,0,9.3,0,14.5
		c-3.2,0-6.2,0-9.3,0c-8.6,0-17.3-0.2-25.9,0.1c-2.3,0.1-5.1,1.2-6.8,2.9c-8.4,8-16.5,16.3-24.7,24.6c-3.4-3.6-6.4-6.8-10-10.5
		C263.9,370,269.3,364.3,275.2,359z M339.6,272.1c0-13.1,0-25.5,0-38.2c6.1-0.9,11.7-1.4,16.4,4.4c4,5,9.1,9.1,14.2,14
		c-6.5,6.5-12.2,13.2-18.9,18.6C348.8,272.9,343.8,271.7,339.6,272.1z M359.2,230.2c-3.3-3.7-6.8-5.4-11.7-4.8
		c-2.4,0.3-4.9,0.1-8,0.1c0.5-6.1-0.2-11.6-6-14.3c0.5-0.9,0.5-1.3,0.8-1.5c9-6,10.6-14.7,9.5-24.7c-0.5-4.9-0.1-9.9-0.1-15.1
		c5,0,9.4,0,14.5,0c0,8.9,0.6,17.7-0.2,26.4c-0.9,9.3,1.9,16,9.1,21.9c6.6,5.5,12.4,12,18.9,18.5c-3.7,3.7-6.8,6.8-10.4,10.3
		C370,241.3,364.3,236,359.2,230.2z M341,108.1c1.4-1.5,2.4-3.9,2.5-6c0.3-6.3,0.1-12.6,0.1-19.8c6.5,0,12.8,0.3,19-0.1
		c2.5-0.2,5.4-1.3,7.3-3c4.5-4.1,8.5-8.8,13.4-14c4.8,5.1,8.8,9.8,13.3,13.9c1.8,1.7,4.7,2.9,7.3,3.1c6.1,0.4,12.2,0.1,19,0.1
		c0,6.8-0.3,13,0.1,19.3c0.1,2.4,1.3,5.1,2.9,6.8c4.1,4.5,8.8,8.6,13.9,13.5c-5.2,4.9-9.8,9-13.9,13.5c-1.6,1.7-2.7,4.5-2.9,6.8
		c-0.4,6.1-0.1,12.3-0.1,19.3c-6.5,0-12.8-0.3-19,0.1c-2.5,0.2-5.4,1.3-7.3,3c-4.5,4.1-8.5,8.8-13.3,14c-5.1-5.4-9.2-10.1-13.8-14.4
		c-1.6-1.5-4.2-2.5-6.4-2.7c-6.3-0.4-12.5-0.1-19.5-0.1c0-6.8,0.3-13-0.1-19.2c-0.1-2.4-1.3-5.1-2.8-6.9c-4.1-4.5-8.8-8.6-13.9-13.5
		C331.8,117.1,336.6,112.8,341,108.1z M308.8,99.7c3.2,4.3,7.3,5.6,12.5,5.1c3.4-0.3,6.9-0.1,11-0.1c-5.9,5.6-11.4,10.7-17.7,16.6
		c6.9,6.1,12.6,11,18.3,16c-0.3,0.6-0.7,1.1-1,1.7c-10.5,0-21,0-31.5-0.1c-0.7,0-1.5-0.6-2.1-1.1c-7.2-7.1-14.3-14.2-22.5-22.3
		c8.7,0,16.2,0,24.5,0c0-8.4,0-15.7,0-23.1c0.4-0.2,0.8-0.4,1.2-0.7C303.9,94.4,306.6,96.8,308.8,99.7z M196.2,67.9
		c5.2-5.1,9.8-9.4,14.1-14c1.4-1.5,2.4-4,2.5-6c0.3-6.3,0.1-12.6,0.1-19.7c6.7,0,13.1,0.2,19.5-0.1c2.2-0.1,4.8-1.2,6.4-2.7
		c4.6-4.2,8.9-8.9,14-14.1c4.7,5,8.9,9.7,13.5,14c1.7,1.6,4.5,2.6,6.8,2.8c6.1,0.4,12.3,0.1,19.2,0.1c0,6.4,0.2,12.5-0.1,18.5
		c-0.2,3.5,0.9,6,3.5,8.2c4.4,3.9,8.7,8.1,13.6,12.8c-5.2,4.9-9.9,9.1-14.2,13.7c-1.5,1.6-2.5,4.2-2.7,6.4
		c-0.4,6.3-0.1,12.5-0.1,19.4c-6.7,0-12.8-0.3-18.9,0.1c-2.5,0.2-5.4,1.4-7.3,3.1c-4.5,4.1-8.4,8.8-13.4,14.2
		c-4.9-5.3-8.9-10-13.4-14.1c-2-1.8-5.1-3-7.7-3.2c-5.9-0.5-11.9-0.1-18.6-0.1c0-6.7,0.3-13-0.1-19.2c-0.1-2.4-1.3-5.1-2.9-6.9
		C205.7,76.7,201.1,72.7,196.2,67.9z M173.1,104.7c3,0,6-0.4,8.9,0.1c6.8,1,11.9-1.3,15.9-6.7c1.7-2.2,3.6-4.3,5.3-6.5
		c0.5,0.3,1,0.5,1.5,0.8c0,7.5,0,14.9,0,22.9c4.5,0,8.3,0,12.1,0c3.7,0,7.5,0,12.6,0c-8.3,8.3-15.5,15.5-22.8,22.7
		c-0.6,0.6-1.8,1-2.6,1c-10.2,0.1-20.5,0-32,0c6.4-6.1,11.8-11.2,17.5-16.7c-6.3-5.8-11.7-10.9-17.1-15.9
		C172.7,105.9,172.9,105.3,173.1,104.7z M82.2,161.6c0-6.1-0.3-11.9,0.1-17.6c0.3-4.2-1.1-7.2-4.2-10c-4.1-3.6-7.9-7.6-12.8-12.3
		c5-4.7,9.7-8.7,13.8-13.2c1.7-1.8,2.8-4.8,3-7.3c0.4-6.1,0.1-12.2,0.1-18.9c6.7,0,12.8,0.3,18.8-0.1c2.7-0.2,5.7-1.5,7.7-3.2
		c4.4-3.9,8.3-8.5,13.3-13.7c4.8,5.1,8.9,9.9,13.5,14.1c1.7,1.6,4.5,2.7,6.9,2.8c6.1,0.4,12.2,0.1,19.2,0.1c0,5,0.5,9.6-0.1,14.1
		c-0.9,6.8,1.5,11.8,6.7,15.9c3.4,2.7,6.3,5.9,10,9.4c-4.8,4.9-9.5,9.2-13.8,14c-1.5,1.7-2.5,4.2-2.7,6.4
		c-0.4,6.2-0.1,12.5-0.1,19.5c-6.5,0-12.4,0.2-18.3-0.1c-3.7-0.2-6.3,1-8.7,3.7c-3.8,4.4-7.9,8.4-12.9,13.7
		c-4.8-5.2-8.8-10-13.4-14.3c-1.7-1.6-4.5-2.7-6.9-2.8C95.3,161.3,89.1,161.6,82.2,161.6z M101.3,194.7c2.6-2.3,3.6-4.9,3.4-8.3
		c-0.3-4.3-0.1-8.6-0.1-12.9c0.4-0.2,0.8-0.4,1.2-0.6c5.1,5.4,10.1,10.8,16,17c5.5-6.3,10.5-11.9,15.5-17.6c0.6,0.3,1.1,0.7,1.7,1
		c0,10.5,0,21-0.1,31.5c0,0.7-0.6,1.5-1.1,2.1c-7.1,7.2-14.2,14.3-22.3,22.5c0-8.8,0-16.3,0-24.4c-8.1,0-15.6,0-23.1,0
		c-0.2-0.4-0.3-0.8-0.5-1.2C95,200.8,98,197.6,101.3,194.7z M88,292.4c-2.4,0.1-5.1,1.3-6.9,2.9c-4.5,4.1-8.6,8.8-13.3,13.7
		c-5-5-9.3-9.7-14-14.1c-1.5-1.4-3.9-2.4-6-2.5c-6.3-0.3-12.6-0.1-19.7-0.1c0-6.5,0.3-12.8-0.1-19c-0.2-2.5-1.3-5.4-3-7.3
		c-4.1-4.5-8.7-8.6-13.7-13.3c5.2-5,9.9-9.4,14.3-14.1c1.4-1.5,2.4-3.9,2.5-6c0.3-6.3,0.1-12.6,0.1-19.7c6.5,0,12.8,0.3,19-0.1
		c2.5-0.2,5.4-1.4,7.2-3.1c4.5-4.1,8.5-8.7,13.3-13.8c4.9,5.2,9.1,9.9,13.7,14.2c1.6,1.5,4.2,2.6,6.4,2.7c6.3,0.4,12.5,0.1,19.4,0.1
		c0,6.8-0.2,13.1,0.1,19.4c0.1,2.2,1.2,4.9,2.7,6.5c4.3,4.6,9.1,8.7,14.6,13.9c-5.4,5-10.2,9-14.5,13.6c-1.6,1.7-2.7,4.5-2.8,6.9
		c-0.4,6.1-0.1,12.2-0.1,19.1C100.5,292.3,94.2,292,88,292.4z M91.7,301.5c0.2-0.4,0.4-0.8,0.6-1.1c7.3,0,14.7,0,22.7,0
		c0-8,0-15.6,0-23.1c0.4-0.2,0.8-0.4,1.3-0.6c3.8,3.8,7.2,8,11.4,11.2c9.5,7.1,13.3,16.1,11.6,27.9c-0.8,5.2-0.1,10.6-0.1,17
		c-5.9-6.1-11.1-11.4-16.4-16.9c-5.8,6.1-11.1,11.6-16.3,17c-0.6-0.3-1.2-0.6-1.7-0.9c0-4.2-0.3-8.4,0.1-12.5c0.3-4-0.9-7-4-9.5
		C97.5,307.3,94.7,304.3,91.7,301.5z M164.1,397.2c-1.4,1.5-2.4,3.9-2.5,6c-0.3,6.3-0.1,12.6-0.1,19.7c-6.6,0-12.8-0.3-19,0.1
		c-2.5,0.2-5.4,1.4-7.3,3c-4.5,4-8.4,8.5-13.1,13.3c-4.6-4.6-9.1-8.7-13.2-13.2c-2.3-2.5-4.9-3.5-8.3-3.4
		c-5.9,0.3-11.9,0.1-18.5,0.1c0-6.8,0.3-13.1-0.1-19.3c-0.1-2.4-1.3-5.1-2.9-6.8c-4.1-4.5-8.8-8.5-14.3-13.8
		c5.2-4.8,10-8.8,14.3-13.3c1.6-1.7,2.7-4.5,2.8-6.9c0.4-6.1,0.1-12.2,0.1-19.2c6.4,0,12.5-0.2,18.6,0.1c3.5,0.2,6-0.9,8.3-3.5
		c4-4.4,8.2-8.6,13.1-13.5c4.8,5.1,8.9,9.8,13.5,14.1c1.6,1.5,4.2,2.5,6.4,2.7c6.3,0.4,12.5,0.1,19.5,0.1c0,5.2,0.4,9.8-0.1,14.3
		c-0.8,6.6,1.3,11.5,6.5,15.5c3.5,2.7,6.6,6,10.6,9.7C173.1,388.4,168.4,392.6,164.1,397.2z M195.2,404.4c-2.6-3-5.6-4.3-9.6-3.9
		c-4.1,0.3-8.2,0.1-13.4,0.1c6.2-6,11.6-11.2,17.7-17c-6.2-6-11.7-11.2-18.2-17.4c11.9,0,22.3,0,32.7,0c0.7,0,1.6,0.4,2.2,1
		c7.3,7.2,14.5,14.5,22.6,22.7c-8.7,0-16.2,0-24.3,0c0,8.3,0,15.6,0,24.2C201.1,410.2,197.9,407.5,195.2,404.4z M309.1,437.3
		c-5,4.8-9.6,8.9-13.6,13.4c-1.7,2-2.9,5-3.2,7.7c-0.5,5.9-0.1,11.9-0.1,18.6c-5.1,0-9.9,0.4-14.6-0.1c-6.4-0.7-11.1,1.4-15.1,6.3
		c-2.9,3.6-6.4,6.7-10.2,10.6c-4.6-4.9-8.7-9.5-13.2-13.6c-1.8-1.7-4.7-2.9-7.2-3.1c-6.1-0.4-12.2-0.1-19.1-0.1
		c0-6.3-0.2-12.2,0.1-18.1c0.2-3.6-0.7-6.3-3.5-8.7c-4.4-3.8-8.4-8.1-13.8-13.4c3.9-3.3,7.4-6.6,11.2-9.4c5.2-3.9,6.8-8.8,6.2-15.1
		c-0.4-4.4-0.1-8.9-0.1-14.3c5.3,0,10-0.4,14.5,0.1c6.4,0.7,11.1-1.4,15.1-6.4c2.9-3.6,6.3-6.7,10.1-10.6c3.7,3.9,7.2,7,10.1,10.6
		c4.1,5.2,9,7.1,15.6,6.4c4.4-0.5,8.9-0.1,14-0.1c0,6.1,0.2,11.7-0.1,17.3c-0.2,4.1,0.8,7.3,4.1,10
		C300.5,428.8,304.5,432.9,309.1,437.3z M331.8,400.5c-4.4,0-8.8,0.2-13.2-0.1c-3.5-0.2-6,0.8-8.2,3.5c-2.8,3.3-5.9,6.3-8.8,9.5
		c-0.5-0.2-1-0.4-1.5-0.6c0-7.4,0-14.7,0-22.7c-8,0-15.6,0-24.7,0c8.5-8.4,15.8-15.8,23.2-23c0.5-0.5,1.5-0.8,2.3-0.8
		c10.3-0.1,20.5,0,31.4,1c-5.6,5-11.3,9.9-17.5,15.3c6.7,6.4,12.1,11.6,17.5,16.8C332.2,399.7,332,400.1,331.8,400.5z M408.3,343.7
		c4.6-0.5,9.2-0.1,14.6-0.1c0,6.7-0.3,13,0.1,19.2c0.1,2.4,1.2,5.1,2.8,6.9c4.1,4.5,8.7,8.6,14.5,14.2c-4.1,3.6-7.8,7-11.7,9.9
		c-4.8,3.7-6.5,8.3-5.9,14.3c0.5,4.7,0.1,9.5,0.1,14.9c-6.7,0-12.8-0.3-18.9,0.1c-2.5,0.2-5.4,1.3-7.3,3c-4.5,4.1-8.5,8.8-14,14.5
		c-8.6-16.3-21.8-19.8-37.5-17.7c-0.3,0-0.6-0.2-1.7-0.6c0-5.8,0.3-11.9-0.1-17.9c-0.2-2.7-1.4-5.7-3.1-7.7
		c-3.9-4.5-8.5-8.4-13.6-13.3c4.4-4.2,8.3-8.2,12.6-11.8c3.2-2.8,4.7-6,4.4-10.4c-0.4-5.4-0.1-10.9-0.1-17.4
		c6.3,0,12.4-0.2,18.4,0.1c3.4,0.1,6-0.8,8.3-3.4c3.9-4.5,8.2-8.7,12.8-13.5c3.9,4,7.5,7.2,10.4,11
		C397.5,342.7,402.2,344.4,408.3,343.7z M401.2,332.9c-6.2-6.6-11.4-12.1-17.1-18.1c-6.3,6.8-11.3,12.4-16.4,18
		c-0.6-0.3-1.1-0.6-1.7-0.9c0-7.7,0.4-15.4-0.1-23c-0.5-6.6,1.3-11.6,6.5-16c5.8-4.9,10.7-10.8,16-16.3c0.4,0.2,0.8,0.3,1.2,0.5
		c0,7.5,0,14.9,0,23.1c8.1,0,15.6,0,23.1,0c0.3,0.5,0.7,1,1,1.5C401.9,308.6,397.8,318.8,401.2,332.9z M479.9,266.3
		c-1.6,1.7-2.6,4.5-2.8,6.8c-0.4,6.1-0.1,12.3-0.1,19.1c-5.1,0-9.9,0.4-14.6-0.1c-6.4-0.7-11.1,1.4-15.1,6.4
		c-2.8,3.5-6.2,6.5-10.2,10.6c-4.5-4.8-8.6-9.5-13.2-13.7c-1.8-1.7-4.8-2.8-7.3-3c-6.1-0.4-12.2-0.1-18.9-0.1
		c0-6.9,0.2-13.2-0.1-19.4c-0.1-2.2-1.2-4.8-2.7-6.4c-4.3-4.5-9.1-8.6-14.3-13.5c4.2-4,7.3-7.5,10.9-10.3c5.2-4.1,7.1-9,6.4-15.6
		c-0.5-4.4-0.1-8.9-0.1-14c6.9,0,12.9,0.3,18.8-0.2c2.7-0.2,5.7-1.5,7.7-3.3c4.5-3.9,8.4-8.4,13-13.1c4.9,4.9,9.3,9.7,14,14
		c1.5,1.4,4,2.4,6,2.5c6.3,0.3,12.6,0.1,19.7,0.1c0,6.4,0.2,12.5-0.1,18.5c-0.2,3.5,0.9,5.9,3.5,8.2c4.4,4,8.7,8.2,13.6,12.9
		C488.9,257.5,484.2,261.7,479.9,266.3z"/>
	<path d="M122,158.4c6-9.8,13.9-13.4,25.7-10.5c-3.4-12,1.2-19.8,9.8-25.7c-3.8-4-8.3-6.8-9.9-10.8c-1.6-4.1-0.4-9.3-0.4-15.3
		c-11.5,3.2-19.4-1.3-25.3-9.9c-4,3.8-6.9,8.3-10.9,9.8c-4.1,1.6-9.4,0.4-15.2,0.4c3.2,11.5-1.2,19.4-10.6,25.7
		c10.1,6,13.4,14.2,10.7,25.7C107.8,144.6,115.7,149.1,122,158.4z M104.4,104.6c7.5,1.2,13.1-0.5,17-7.4c4.7,5.5,9.5,9.7,17.6,7
		c-1,7.6,0.5,13.5,7.6,17.4c-5.8,4.6-9.6,9.6-7.2,17.6c-7.6-1.2-13.4,0.7-17.5,7.5c-4.4-6.1-9.7-9.2-17.5-7.3
		c1.6-7.7-0.9-13.3-7.4-17.5C103.4,117.7,106.1,112.3,104.4,104.6z"/>
	<path d="M357.8,147.9c11.7-3.4,19.3,1.3,25.6,10.4c6.1-9.8,14.1-13.5,25.7-10.5c-3.1-11.7,1.1-19.7,10.7-26
		c-10.5-6-13.2-14.6-11.1-25.8c-11.7,3.5-19.3-1.3-25.7-10.5c-5.9,10.4-14.6,13-25.8,11c3.5,11.7-1.3,19.3-10.5,25.7
		C357.2,128.1,359.8,136.7,357.8,147.9z M365.4,104.5c8,1.6,13.6-0.8,17.4-6.7c8.7,6.6,8.7,6.6,17.5,7.2c-0.8,6.6,0.5,12.7,7.8,16.5
		c-5.5,4.7-9.7,9.6-7.1,17.6c-7.6-1-13.5,0.6-17.4,7.6c-4.6-5.7-9.5-9.7-17.1-7.1c-1-10.1-1-10.1-7.4-18
		C364.5,117.6,367.9,112.5,365.4,104.5z"/>
	<path d="M393.7,357.3c-4.1-1.7-7-6.2-11-10c-5.6,9.8-14,12.7-24.3,10.5c-0.3,5.7,0.6,10.9-1.1,15c-1.7,4.1-6.2,7-10,11
		c9.8,5.6,12.7,14,10.5,24.3c5.7,0.3,10.9-0.6,15,1.1c4.1,1.7,7,6.2,10.5,9.5c3.8-3.6,6.6-8,10.6-9.6c4-1.6,9.1-0.3,15.2-0.3
		c-3.3-11.6,1.4-19.4,10.6-25.8c-10.2-5.9-13.3-14.2-11-24.6C403.1,358.2,397.8,359.1,393.7,357.3z M401.1,400.8
		c-8.1-1.7-13.6,0.9-17.8,7.3c-4.3-6.1-9.4-9.2-17.2-7.1c0.8-7.3-0.4-13.4-7.7-17.2c5.6-4.7,9.9-9.5,6.9-17.6
		c7.7,0.8,13.9-0.2,17.5-7.8c4.8,6,9.8,9.9,18.2,7c-2.1,8.5,0.8,13.7,7,17.9C402.1,387.7,398.5,392.7,401.1,400.8z"/>
	<path d="M147.8,357.2c-12.2,3.6-19.7-1.2-26.2-10.3c-5.9,10.4-14.6,13-25.3,11.1c0,5.7,1.3,10.8-0.4,14.8c-1.7,4.1-6.2,7-10,11.1
		c9.9,5.6,12.4,14.3,10.6,25c5.7,0,10.8-1.3,14.8,0.4c4.1,1.7,7.1,6.2,11.2,10c5.6-9.8,14.3-12.4,25.4-10.5
		c-3.4-11.7,1.3-19.3,10.4-25.6C148.5,377.1,144.7,369.1,147.8,357.2z M139.7,400.6c-7.9-1.3-13.7,0.7-17.7,7.4
		c-4.5-5.9-9.6-9.5-17.5-6.9c1.2-7.9-0.4-13.8-7.7-17.5c6.3-4.5,9.5-9.6,7.3-17.7c7.8,1.3,13.5-0.5,17.3-7.4c4.7,5.5,9.5,9.7,17.6,7
		c-1.1,7.6,0.6,13.5,7.6,17.4C141,387.7,136.8,392.5,139.7,400.6z"/>
	<path d="M226.7,93.7c11.5-2.9,19.6,0.7,25.8,10.8c6.2-10.3,14.3-13.7,25.8-10.9c-2.9-11.6,0.9-19.8,10.8-25.9
		c-10.1-6.1-13.5-14.4-10.9-26c-11.5,3-19.6-0.8-25.7-10.6c-5.9,10.6-14.7,13-25.4,11.1c0,5.7,1.3,10.8-0.3,14.8
		c-1.7,4.1-6.2,7.1-10,11.2C225.9,74,229.6,82.2,226.7,93.7z M235.1,50.4c7.3,1.1,13.1-0.4,17.2-7.3c4.5,6,9.9,8.9,17.6,7.1
		c-1.3,7.6,0.7,13.4,7.5,17.4c-6,4.5-9.4,9.7-7.3,17.6c-7.5-1.1-13.5,0.3-17.2,7.8c-4.6-6.5-9.9-9.5-18.1-7.5
		c2.2-8.2-0.9-13.4-7-17.7C234.1,63.6,236.8,58.1,235.1,50.4z"/>
	<path d="M278.3,411.5c-11.5,2.9-19.6-0.6-25.3-10c-4.3,4-7.3,8.5-11.5,10.2c-4.1,1.6-9.3,0.4-14.6,0.4c0,5.6,1.3,10.7-0.4,14.7
		c-1.7,4.1-6.2,7.1-10,11.1c9.3,5.7,12.8,14,10.2,25.6c11.5-2.9,19.6,0.6,25.7,10.7c6-10.4,14.6-13.1,25.4-11.1
		c0-5.7-1.3-10.8,0.4-14.8c1.7-4.1,6.2-7.1,10-11.2C279.3,431.3,275.4,423.2,278.3,411.5z M270.5,454.8c-8-1.1-13.8,1-17.8,6.8
		c-5.9-5.2-5.9-5.2-16.9-7.4c-1.4-9.3-1.4-9.3-7.1-16.8c6.3-8,6.3-8,6.9-17.1c6.6,0.9,12.7-0.4,16.5-7.7c4.7,5.6,9.6,9.7,17.6,7
		c-0.8,7.5,0.3,13.7,7.8,17.3C271.7,441.8,267.5,446.6,270.5,454.8z"/>
	<path d="M104.3,252.4c-10.6-5.9-13.1-14.6-11.2-25.3c-5.6,0-10.8,1.3-14.7-0.4c-4.1-1.7-7.1-6.2-11.1-10.1
		c-5.7,9.4-14,12.7-25.1,10.3c0,5.7,1.3,10.8-0.3,14.8c-1.7,4.1-6.1,7.1-9.9,11.3c9.6,5.5,12.3,14.1,10.3,25
		c5.7,0,10.8-1.3,14.8,0.3c4.1,1.7,7.1,6.2,11.2,10c5.7-9.2,13.9-12.9,25.5-10C90.5,266.7,94.6,258.7,104.3,252.4z M85.2,270.1
		c-7.8-1.9-13.2,1.1-17.6,7.3c-4.1-6.6-9.8-8.8-17.4-7.5c1.2-7.4-0.5-13.1-7.3-17.2c6.4-4.3,8.8-9.9,7.3-17.6
		c7.7,1.5,13.3-0.9,17.5-7.4c4.3,6.4,9.7,9,17.5,7.3c-1.8,7.8,1,13.2,7.3,17.5C86.1,256.9,83.5,262.4,85.2,270.1z"/>
	<path d="M463.1,226.7c-11.7,3.2-19.5-1-25.7-10.6c-6.1,9.8-14.3,13.6-25.5,10.8c0,5.8,1.4,11.3-0.4,15.2c-1.8,3.9-6.9,6.3-10.6,9.4
		c4.6,5,9.2,8,10.8,12.1c1.6,4.1,0.4,9.3,0.4,14.6c5.6,0,10.7-1.3,14.7,0.4c4.1,1.7,7.1,6.2,11.2,10.1c5.7-9.3,14-12.8,25.5-10.2
		c-3-11.6,0.8-19.6,10.6-25.7C463.9,246.6,460.8,238.1,463.1,226.7z M455.1,270.2c-8-1.6-13.5,0.7-17.5,7.2
		c-4.5-5.9-9.6-9.4-17.6-7.1c1.3-7.6-0.7-13.4-7.4-17.5c6.1-4.4,9.2-9.7,7.2-17.4c7.5,1.1,13.5-0.4,17.3-7.8
		c4.6,6.4,9.8,9.7,17.7,7.3c-1.1,7.6,0.4,13.5,7.4,17.4C456.3,256.8,453,262,455.1,270.2z"/>
</g>
</svg>
