<?xml version="1.0" encoding="utf-8"?>
<!-- Generator: Adobe Illustrator 24.0.0, SVG Export Plug-In . SVG Version: 6.00 Build 0)  -->
<svg version="1.1" id="Layer_1" xmlns="http://www.w3.org/2000/svg" xmlns:xlink="http://www.w3.org/1999/xlink" x="0px" y="0px"
	 viewBox="0 0 91 30" style="enable-background:new 0 0 91 30;" xml:space="preserve">
<style type="text/css">
	.st0{fill:#FFFFFF;}
</style>
<g>
	<circle class="st0" cx="2.6" cy="15.8" r="2.6"/>
	<path class="st0" d="M51.6,18.4h0.9V0h-5.3v14C47.3,16.4,49.2,18.4,51.6,18.4z"/>
	<path class="st0" d="M20.8,5.9c-3-0.7-5.4-3-6.4-5.9H9c1,5.4,5.1,9.6,10.4,11c0,0.1,0,0.3,0,0.4l0,0c0,6.3,5.1,11.4,11.4,11.4l0,0
		c6.3,0,11.4-5.1,11.4-11.4V0H30.8C26.5,0,22.7,2.4,20.8,5.9z M36.9,11.4c0,3.4-2.8,6.1-6.1,6.1c-3.4,0-6.1-2.8-6.1-6.1
		c0-3.4,2.8-6.1,6.1-6.1h6.1V11.4z"/>
	<path class="st0" d="M14.5,14.8c-1.7-0.8-3.2-1.8-4.6-3c-0.8,2.2-1.2,4.5-1.2,7c0,1.4,0.1,2.8,0.4,4.1h5.4
		c-0.4-1.3-0.5-2.7-0.5-4.1C14,17.3,14.2,16,14.5,14.8z"/>
	<path class="st0" d="M78.6,6.8C80.3,4.9,81.5,2.6,82,0h-5.4c-0.3,1-0.8,2-1.5,2.8c-1.2,1.5-2.8,2.5-4.7,3C69.7,6,69,6.1,68.2,6.1
		v5.3c2.2,0,4.3-0.5,6.1-1.4c1.5,2.2,2.4,4.8,2.6,7.5H62.1c0.5-1.5,0.8-3.1,0.9-4.7c0-0.5,0-0.9,0-1.4V0h-5.3v11.4
		c0,6.2-3.6,11.6-8.8,14.1l2.8,4.5c3.2-1.7,6-4.2,8-7.3h16.8l0,0h5.4c0.3-1.3,0.4-2.7,0.4-4.1C82.2,14.3,80.9,10.2,78.6,6.8z"/>
</g>
</svg>
