<?xml version="1.0" encoding="utf-8"?>
<!-- Generator: Adobe Illustrator 24.3.0, SVG Export Plug-In . SVG Version: 6.00 Build 0)  -->
<svg version="1.1" id="Layer_1" xmlns="http://www.w3.org/2000/svg" xmlns:xlink="http://www.w3.org/1999/xlink" x="0px" y="0px"
	 viewBox="0 0 49.38 50" style="enable-background:new 0 0 49.38 50;" xml:space="preserve">
<style type="text/css">
	.st0{opacity:0.22;}
	.st1{fill:#414042;}
	.st2{opacity:0.08;}
</style>
<g class="st2">
	<path class="st1" d="M15.49,31.63c0.23,0,0.41,0.19,0.41,0.41c0,0.23-0.19,0.41-0.41,0.41s-0.41-0.19-0.41-0.41
		C15.08,31.82,15.26,31.63,15.49,31.63"/>
	<path class="st1" d="M23.25,32.46h0.14v-2.9h-0.83v2.21C22.56,32.15,22.87,32.46,23.25,32.46"/>
	<path class="st1" d="M20.91,30.39h-0.97c-0.53,0-0.97,0.43-0.97,0.97c0,0.53,0.43,0.97,0.97,0.97c0.53,0,0.97-0.43,0.97-0.97V30.39
		z M18.37,30.49c0.31-0.56,0.9-0.93,1.58-0.93h1.8v1.8c0,0.99-0.81,1.8-1.8,1.8c-0.99,0-1.8-0.81-1.8-1.8c0-0.02,0-0.04,0-0.07
		c-0.83-0.21-1.48-0.89-1.64-1.73h0.85C17.51,30.02,17.89,30.38,18.37,30.49"/>
	<path class="st1" d="M17.37,31.89c-0.26-0.13-0.51-0.29-0.72-0.48c-0.12,0.34-0.19,0.72-0.19,1.1c0,0.22,0.02,0.44,0.06,0.65h0.85
		c-0.06-0.21-0.09-0.42-0.09-0.65C17.29,32.3,17.32,32.09,17.37,31.89"/>
	<path class="st1" d="M27.51,30.63c0.27-0.3,0.46-0.67,0.54-1.08H27.2c-0.05,0.17-0.13,0.32-0.24,0.45
		c-0.19,0.23-0.44,0.4-0.74,0.47c-0.11,0.03-0.22,0.04-0.34,0.04v0.83c0.35,0,0.68-0.08,0.97-0.22c0.23,0.35,0.38,0.75,0.41,1.19
		H24.9c0.07-0.24,0.12-0.49,0.14-0.75c0-0.07,0.01-0.15,0.01-0.22v-1.8h-0.83v1.8c0,0.98-0.57,1.83-1.4,2.24l0.44,0.71
		c0.51-0.27,0.95-0.66,1.26-1.15h2.66h0.85c0.04-0.21,0.06-0.43,0.06-0.65C28.09,31.81,27.88,31.17,27.51,30.63"/>
</g>
<g class="st2">
	<path class="st1" d="M2.1,26.91c0.16,0.16,0.16,0.42,0,0.59c-0.16,0.16-0.42,0.16-0.59,0s-0.16-0.42,0-0.59
		C1.68,26.75,1.94,26.75,2.1,26.91"/>
	<path class="st1" d="M7,32.98l0.1,0.1l2.05-2.05l-0.59-0.59L7,32C6.73,32.27,6.73,32.71,7,32.98"/>
	<path class="st1" d="M6.82,29.86l-0.68-0.68c-0.38-0.38-0.99-0.38-1.37,0c-0.38,0.38-0.38,0.99,0,1.37c0.38,0.38,0.99,0.38,1.37,0
		L6.82,29.86z M4.95,28.13c0.61-0.18,1.29-0.02,1.77,0.46l1.27,1.27l-1.27,1.27c-0.7,0.7-1.84,0.7-2.54,0s-0.7-1.84,0-2.54
		c0.02-0.02,0.03-0.03,0.05-0.05c-0.44-0.74-0.42-1.67,0.07-2.39l0.6,0.6C4.67,27.19,4.69,27.72,4.95,28.13"/>
	<path class="st1" d="M3.25,28.42c-0.1-0.27-0.15-0.56-0.17-0.85c-0.33,0.16-0.64,0.37-0.91,0.65c-0.16,0.16-0.29,0.32-0.41,0.5
		l0.6,0.6c0.11-0.18,0.24-0.36,0.4-0.52C2.91,28.65,3.08,28.52,3.25,28.42"/>
	<path class="st1" d="M11.31,34.7c0.4-0.02,0.8-0.14,1.14-0.38l-0.6-0.6c-0.15,0.08-0.32,0.13-0.49,0.15
		c-0.29,0.03-0.6-0.03-0.86-0.18c-0.1-0.06-0.19-0.13-0.27-0.21l-0.59,0.59c0.25,0.25,0.53,0.42,0.84,0.53
		c-0.08,0.41-0.27,0.8-0.55,1.13l-1.66-1.66c0.22-0.12,0.43-0.26,0.63-0.43c0.05-0.05,0.11-0.1,0.16-0.15l1.27-1.27l-0.59-0.59
		l-1.27,1.27c-0.69,0.69-1.7,0.89-2.57,0.59l-0.19,0.81c0.55,0.17,1.14,0.2,1.7,0.08l1.88,1.88l0.6,0.6
		c0.18-0.12,0.35-0.26,0.5-0.41C10.89,35.95,11.19,35.34,11.31,34.7"/>
</g>
<g class="st2">
	<path class="st1" d="M13.85,38.66c0.16,0.16,0.16,0.42,0,0.59c-0.16,0.16-0.42,0.16-0.59,0c-0.16-0.16-0.16-0.42,0-0.59
		C13.43,38.5,13.69,38.5,13.85,38.66"/>
	<path class="st1" d="M18.75,44.73l0.1,0.1l2.05-2.05l-0.59-0.59l-1.56,1.56C18.48,44.02,18.48,44.46,18.75,44.73"/>
	<path class="st1" d="M18.57,41.61l-0.68-0.68c-0.38-0.38-0.99-0.38-1.37,0c-0.38,0.38-0.38,0.99,0,1.37c0.38,0.38,0.99,0.38,1.37,0
		L18.57,41.61z M16.7,39.88c0.61-0.18,1.29-0.02,1.77,0.46l1.27,1.27l-1.27,1.27c-0.7,0.7-1.84,0.7-2.54,0s-0.7-1.84,0-2.54
		c0.02-0.02,0.03-0.03,0.05-0.05c-0.44-0.74-0.42-1.67,0.07-2.39l0.6,0.6C16.42,38.94,16.44,39.47,16.7,39.88"/>
	<path class="st1" d="M15,40.17c-0.1-0.27-0.15-0.56-0.17-0.85c-0.33,0.16-0.64,0.37-0.91,0.65c-0.16,0.16-0.29,0.32-0.41,0.5
		l0.6,0.6c0.11-0.18,0.24-0.36,0.4-0.52C14.66,40.4,14.83,40.27,15,40.17"/>
	<path class="st1" d="M23.06,46.45c0.4-0.02,0.8-0.14,1.14-0.38l-0.6-0.6c-0.15,0.08-0.32,0.13-0.49,0.15
		c-0.29,0.03-0.6-0.03-0.86-0.18c-0.1-0.06-0.19-0.13-0.27-0.21l-0.59,0.59c0.25,0.25,0.53,0.42,0.84,0.53
		c-0.08,0.41-0.27,0.8-0.55,1.13l-1.66-1.66c0.22-0.12,0.43-0.26,0.63-0.43c0.05-0.05,0.11-0.1,0.16-0.15l1.27-1.27l-0.59-0.59
		l-1.27,1.27c-0.69,0.69-1.7,0.89-2.57,0.59l-0.19,0.81c0.55,0.17,1.14,0.2,1.7,0.08L21.04,48l0.6,0.6c0.18-0.12,0.35-0.26,0.5-0.41
		C22.64,47.7,22.94,47.09,23.06,46.45"/>
</g>
<g class="st2">
	<path class="st1" d="M46.47,23.28c-0.16-0.16-0.16-0.42,0-0.59s0.42-0.16,0.59,0s0.16,0.42,0,0.59
		C46.9,23.44,46.63,23.44,46.47,23.28"/>
	<path class="st1" d="M41.58,17.21l-0.1-0.1l-2.05,2.05l0.59,0.59l1.56-1.56C41.85,17.92,41.85,17.48,41.58,17.21"/>
	<path class="st1" d="M41.76,20.33l0.68,0.68c0.38,0.38,0.99,0.38,1.37,0c0.38-0.38,0.38-0.99,0-1.37c-0.38-0.38-0.99-0.38-1.37,0
		L41.76,20.33z M43.63,22.06c-0.61,0.18-1.29,0.02-1.77-0.46l-1.27-1.27l1.27-1.27c0.7-0.7,1.84-0.7,2.54,0s0.7,1.84,0,2.54
		c-0.02,0.02-0.03,0.03-0.05,0.05c0.44,0.74,0.42,1.67-0.07,2.39l-0.6-0.6C43.91,23,43.89,22.47,43.63,22.06"/>
	<path class="st1" d="M45.33,21.77c0.1,0.27,0.15,0.56,0.17,0.85c0.33-0.16,0.64-0.37,0.91-0.65c0.16-0.16,0.29-0.32,0.41-0.5
		l-0.6-0.6c-0.11,0.18-0.24,0.36-0.4,0.52C45.67,21.54,45.5,21.67,45.33,21.77"/>
	<path class="st1" d="M37.27,15.49c-0.4,0.02-0.8,0.14-1.14,0.38l0.6,0.6c0.15-0.08,0.32-0.13,0.49-0.15
		c0.29-0.03,0.6,0.03,0.86,0.18c0.1,0.06,0.19,0.13,0.27,0.21l0.59-0.59c-0.25-0.25-0.53-0.42-0.84-0.53
		c0.08-0.41,0.27-0.8,0.55-1.13l1.66,1.66c-0.22,0.12-0.43,0.26-0.63,0.43c-0.05,0.05-0.11,0.1-0.16,0.15l-1.27,1.27l0.59,0.59
		l1.27-1.27c0.69-0.69,1.7-0.89,2.57-0.59l0.19-0.81c-0.55-0.17-1.14-0.2-1.7-0.08l-1.88-1.88l-0.6-0.6
		c-0.18,0.12-0.35,0.26-0.5,0.41C37.69,14.24,37.38,14.85,37.27,15.49"/>
</g>
<g class="st2">
	<path class="st1" d="M34.72,11.53c-0.16-0.16-0.16-0.42,0-0.59c0.16-0.16,0.42-0.16,0.59,0c0.16,0.16,0.16,0.42,0,0.59
		C35.15,11.69,34.88,11.69,34.72,11.53"/>
	<path class="st1" d="M29.82,5.46l-0.1-0.1l-2.05,2.05L28.26,8l1.56-1.56C30.09,6.17,30.1,5.73,29.82,5.46"/>
	<path class="st1" d="M30.01,8.58l0.68,0.68c0.38,0.38,0.99,0.38,1.37,0c0.38-0.38,0.38-0.99,0-1.37c-0.38-0.38-0.99-0.38-1.37,0
		L30.01,8.58z M31.88,10.31c-0.61,0.18-1.29,0.02-1.77-0.46l-1.27-1.27l1.27-1.27c0.7-0.7,1.84-0.7,2.54,0s0.7,1.84,0,2.54
		c-0.02,0.02-0.03,0.03-0.05,0.05c0.44,0.74,0.42,1.67-0.07,2.39l-0.6-0.6C32.15,11.25,32.14,10.72,31.88,10.31"/>
	<path class="st1" d="M33.57,10.02c0.1,0.27,0.15,0.56,0.17,0.85c0.33-0.16,0.64-0.37,0.91-0.65c0.16-0.16,0.29-0.32,0.41-0.5
		l-0.6-0.6c-0.11,0.18-0.24,0.36-0.4,0.52C33.92,9.79,33.75,9.91,33.57,10.02"/>
	<path class="st1" d="M25.52,3.74c-0.4,0.02-0.8,0.14-1.14,0.38l0.6,0.6c0.15-0.08,0.32-0.13,0.49-0.15
		c0.29-0.03,0.6,0.03,0.86,0.18c0.1,0.06,0.19,0.13,0.27,0.21l0.59-0.59c-0.25-0.25-0.53-0.42-0.84-0.53
		c0.08-0.41,0.27-0.8,0.55-1.13l1.66,1.66c-0.22,0.12-0.43,0.26-0.63,0.43c-0.05,0.05-0.11,0.1-0.16,0.15L26.5,6.24l0.59,0.59
		l1.27-1.27c0.69-0.69,1.7-0.89,2.57-0.59l0.19-0.81c-0.55-0.17-1.14-0.2-1.7-0.08l-1.88-1.88l-0.6-0.6
		C26.76,1.7,26.59,1.84,26.43,2C25.94,2.49,25.63,3.1,25.52,3.74"/>
</g>
<g class="st2">
	<path class="st1" d="M1.1,48.68c0.16-0.16,0.42-0.16,0.59,0c0.16,0.16,0.16,0.42,0,0.59c-0.16,0.16-0.42,0.16-0.59,0
		C0.94,49.1,0.94,48.84,1.1,48.68"/>
	<path class="st1" d="M7.17,43.78l0.1-0.1l-2.05-2.05l-0.59,0.59l1.56,1.56C6.46,44.05,6.9,44.05,7.17,43.78"/>
	<path class="st1" d="M4.05,43.96l-0.68,0.68c-0.38,0.38-0.38,0.99,0,1.37c0.38,0.38,0.99,0.38,1.37,0c0.38-0.38,0.38-0.99,0-1.37
		L4.05,43.96z M2.32,45.83c-0.18-0.61-0.02-1.29,0.46-1.77l1.27-1.27l1.27,1.27c0.7,0.7,0.7,1.84,0,2.54s-1.84,0.7-2.54,0
		c-0.02-0.02-0.03-0.03-0.05-0.05C2,47,1.06,46.97,0.35,46.49l0.6-0.6C1.38,46.11,1.91,46.09,2.32,45.83"/>
	<path class="st1" d="M2.61,47.53c-0.27,0.1-0.56,0.15-0.85,0.17c0.16,0.33,0.37,0.64,0.65,0.91c0.16,0.16,0.32,0.29,0.5,0.41
		l0.6-0.6c-0.18-0.11-0.36-0.24-0.52-0.4C2.84,47.87,2.71,47.7,2.61,47.53"/>
	<path class="st1" d="M8.89,39.47c-0.02-0.4-0.14-0.8-0.38-1.14l-0.6,0.6c0.08,0.15,0.13,0.32,0.15,0.49
		c0.03,0.29-0.03,0.6-0.18,0.86c-0.06,0.1-0.13,0.19-0.21,0.27l0.59,0.59c0.25-0.25,0.42-0.53,0.53-0.84
		c0.41,0.08,0.8,0.27,1.13,0.55l-1.66,1.66c-0.12-0.22-0.26-0.43-0.43-0.63c-0.05-0.05-0.1-0.11-0.15-0.16l-1.27-1.27L5.8,41.04
		l1.27,1.27c0.69,0.69,0.89,1.7,0.59,2.57l0.81,0.19c0.17-0.55,0.2-1.14,0.08-1.7l1.88-1.88l0.6-0.6c-0.12-0.18-0.26-0.35-0.41-0.5
		C10.14,39.89,9.53,39.59,8.89,39.47"/>
</g>
<g class="st2">
	<path class="st1" d="M31,33.89c0-0.23,0.19-0.41,0.41-0.41c0.23,0,0.41,0.19,0.41,0.41s-0.19,0.41-0.41,0.41
		C31.19,34.3,31,34.12,31,33.89"/>
	<path class="st1" d="M31.83,26.13V26h-2.9v0.83h2.21C31.52,26.83,31.83,26.52,31.83,26.13"/>
	<path class="st1" d="M29.76,28.47v0.97c0,0.53,0.43,0.97,0.97,0.97c0.53,0,0.97-0.43,0.97-0.97c0-0.53-0.43-0.97-0.97-0.97H29.76z
		 M29.86,31.02c-0.56-0.31-0.93-0.9-0.93-1.58v-1.8h1.8c0.99,0,1.8,0.81,1.8,1.8c0,0.99-0.81,1.8-1.8,1.8c-0.02,0-0.04,0-0.07,0
		c-0.21,0.83-0.89,1.48-1.73,1.64v-0.85C29.39,31.87,29.75,31.49,29.86,31.02"/>
	<path class="st1" d="M31.26,32.01c-0.13,0.26-0.29,0.51-0.48,0.72c0.34,0.12,0.72,0.19,1.1,0.19c0.22,0,0.44-0.02,0.65-0.06V32
		c-0.21,0.06-0.42,0.09-0.65,0.09C31.66,32.09,31.46,32.06,31.26,32.01"/>
	<path class="st1" d="M30,21.87c-0.3-0.27-0.67-0.46-1.08-0.54v0.85c0.17,0.05,0.32,0.13,0.45,0.24c0.23,0.19,0.4,0.44,0.47,0.74
		c0.03,0.11,0.04,0.22,0.04,0.34h0.83c0-0.35-0.08-0.68-0.22-0.97c0.35-0.23,0.75-0.38,1.19-0.41v2.35
		c-0.24-0.07-0.49-0.12-0.75-0.14c-0.07,0-0.15-0.01-0.22-0.01h-1.8v0.83h1.8c0.98,0,1.83,0.57,2.24,1.4l0.71-0.44
		c-0.27-0.51-0.66-0.95-1.15-1.26V22.2v-0.85c-0.21-0.04-0.43-0.06-0.65-0.06C31.18,21.29,30.54,21.5,30,21.87"/>
</g>
<g class="st2">
	<path class="st1" d="M33.26,18.38c-0.23,0-0.41-0.19-0.41-0.41c0-0.23,0.19-0.41,0.41-0.41s0.41,0.19,0.41,0.41
		C33.67,18.19,33.49,18.38,33.26,18.38"/>
	<path class="st1" d="M25.5,17.55h-0.14v2.9h0.83v-2.21C26.19,17.86,25.89,17.55,25.5,17.55"/>
	<path class="st1" d="M27.84,19.63h0.97c0.53,0,0.97-0.43,0.97-0.97c0-0.53-0.43-0.97-0.97-0.97c-0.53,0-0.97,0.43-0.97,0.97V19.63z
		 M30.38,19.53c-0.31,0.56-0.9,0.93-1.58,0.93h-1.8v-1.8c0-0.99,0.81-1.8,1.8-1.8c0.99,0,1.8,0.81,1.8,1.8c0,0.02,0,0.04,0,0.07
		c0.83,0.21,1.48,0.89,1.64,1.73h-0.85C31.24,20,30.86,19.64,30.38,19.53"/>
	<path class="st1" d="M31.38,18.12c0.26,0.13,0.51,0.29,0.72,0.48c0.12-0.34,0.19-0.72,0.19-1.1c0-0.22-0.02-0.44-0.06-0.65h-0.85
		c0.06,0.21,0.09,0.42,0.09,0.65C31.46,17.72,31.43,17.93,31.38,18.12"/>
	<path class="st1" d="M21.24,19.38c-0.27,0.3-0.46,0.67-0.54,1.08h0.85c0.05-0.17,0.13-0.32,0.24-0.45c0.19-0.23,0.44-0.4,0.74-0.47
		c0.11-0.03,0.22-0.04,0.34-0.04v-0.83c-0.35,0-0.68,0.08-0.97,0.22c-0.23-0.35-0.38-0.75-0.41-1.19h2.35
		c-0.07,0.24-0.12,0.49-0.14,0.75c0,0.07-0.01,0.15-0.01,0.22v1.8h0.83v-1.8c0-0.98,0.57-1.83,1.4-2.24l-0.44-0.71
		c-0.51,0.27-0.95,0.66-1.26,1.15h-2.66h-0.85c-0.04,0.21-0.06,0.43-0.06,0.65C20.66,18.2,20.87,18.85,21.24,19.38"/>
</g>
<g class="st2">
	<path class="st1" d="M17.75,16.13c0,0.23-0.19,0.41-0.41,0.41c-0.23,0-0.41-0.19-0.41-0.41c0-0.23,0.19-0.41,0.41-0.41
		C17.56,15.71,17.75,15.9,17.75,16.13"/>
	<path class="st1" d="M16.92,23.88v0.14h2.9v-0.83h-2.21C17.23,23.19,16.92,23.5,16.92,23.88"/>
	<path class="st1" d="M19,21.55v-0.97c0-0.53-0.43-0.97-0.97-0.97c-0.53,0-0.97,0.43-0.97,0.97c0,0.53,0.43,0.97,0.97,0.97H19z
		 M18.89,19c0.56,0.31,0.93,0.9,0.93,1.58v1.8h-1.8c-0.99,0-1.8-0.81-1.8-1.8c0-0.99,0.81-1.8,1.8-1.8c0.02,0,0.04,0,0.07,0
		c0.21-0.83,0.89-1.48,1.73-1.64v0.85C19.36,18.14,19.01,18.52,18.89,19"/>
	<path class="st1" d="M17.49,18c0.13-0.26,0.29-0.51,0.48-0.72c-0.34-0.12-0.72-0.19-1.1-0.19c-0.22,0-0.44,0.02-0.65,0.06v0.85
		c0.21-0.06,0.42-0.09,0.65-0.09C17.09,17.93,17.29,17.95,17.49,18"/>
	<path class="st1" d="M18.75,28.14c0.3,0.27,0.67,0.46,1.08,0.54v-0.85c-0.17-0.05-0.32-0.13-0.45-0.24
		c-0.23-0.19-0.4-0.44-0.47-0.74c-0.03-0.11-0.04-0.22-0.04-0.34h-0.83c0,0.35,0.08,0.68,0.22,0.97c-0.35,0.23-0.75,0.38-1.19,0.41
		v-2.35c0.24,0.07,0.49,0.12,0.75,0.14c0.07,0,0.15,0.01,0.22,0.01h1.8v-0.83h-1.8c-0.98,0-1.83-0.57-2.24-1.4l-0.71,0.44
		c0.27,0.51,0.66,0.95,1.15,1.26v2.66v0.85c0.21,0.04,0.43,0.06,0.65,0.06C17.57,28.73,18.22,28.51,18.75,28.14"/>
</g>
<g class="st2">
	<path class="st1" d="M39.43,10.35c0.16-0.16,0.42-0.16,0.59,0c0.16,0.16,0.16,0.42,0,0.59c-0.16,0.16-0.42,0.16-0.59,0
		C39.26,10.77,39.26,10.51,39.43,10.35"/>
	<path class="st1" d="M45.5,5.45l0.1-0.1L43.54,3.3l-0.59,0.59l1.56,1.56C44.79,5.72,45.22,5.72,45.5,5.45"/>
	<path class="st1" d="M42.38,5.63l-0.68,0.68c-0.38,0.38-0.38,0.99,0,1.37c0.38,0.38,0.99,0.38,1.37,0c0.38-0.38,0.38-0.99,0-1.37
		L42.38,5.63z M40.65,7.51c-0.18-0.61-0.02-1.29,0.46-1.77l1.27-1.27l1.27,1.27c0.7,0.7,0.7,1.84,0,2.54c-0.7,0.7-1.84,0.7-2.54,0
		c-0.02-0.02-0.03-0.03-0.05-0.05c-0.74,0.44-1.67,0.42-2.39-0.07l0.6-0.6C39.71,7.78,40.23,7.76,40.65,7.51"/>
	<path class="st1" d="M40.94,9.2c-0.27,0.1-0.56,0.15-0.85,0.17c0.16,0.33,0.37,0.64,0.65,0.91c0.16,0.16,0.32,0.29,0.5,0.41
		l0.6-0.6c-0.18-0.11-0.36-0.24-0.52-0.4C41.17,9.54,41.04,9.38,40.94,9.2"/>
	<path class="st1" d="M47.22,1.14c-0.02-0.4-0.14-0.8-0.38-1.14l-0.6,0.6c0.08,0.15,0.13,0.32,0.15,0.49
		c0.03,0.29-0.03,0.6-0.18,0.86c-0.06,0.1-0.13,0.19-0.21,0.27l0.59,0.59c0.25-0.25,0.42-0.53,0.53-0.84
		c0.41,0.08,0.8,0.27,1.13,0.55l-1.66,1.66c-0.12-0.22-0.26-0.43-0.43-0.63c-0.05-0.05-0.1-0.11-0.15-0.16l-1.27-1.27l-0.59,0.59
		l1.27,1.27c0.69,0.69,0.89,1.7,0.59,2.57l0.81,0.19c0.17-0.55,0.2-1.14,0.08-1.7l1.88-1.88l0.6-0.6c-0.12-0.18-0.26-0.35-0.41-0.5
		C48.46,1.57,47.85,1.26,47.22,1.14"/>
</g>
<g class="st2">
	<path class="st1" d="M22.47,2.74c-0.16,0.16-0.42,0.16-0.59,0c-0.16-0.16-0.16-0.42,0-0.59c0.16-0.16,0.42-0.16,0.59,0
		C22.63,2.31,22.63,2.57,22.47,2.74"/>
	<path class="st1" d="M16.4,7.63l-0.1,0.1l2.05,2.05l0.59-0.59l-1.56-1.56C17.11,7.36,16.67,7.36,16.4,7.63"/>
	<path class="st1" d="M19.52,7.45l0.68-0.68c0.38-0.38,0.38-0.99,0-1.37c-0.38-0.38-0.99-0.38-1.37,0c-0.38,0.38-0.38,0.99,0,1.37
		L19.52,7.45z M21.25,5.58c0.18,0.61,0.02,1.29-0.46,1.77l-1.27,1.27l-1.27-1.27c-0.7-0.7-0.7-1.84,0-2.54s1.84-0.7,2.54,0
		c0.02,0.02,0.03,0.03,0.05,0.05c0.74-0.44,1.67-0.42,2.39,0.07l-0.6,0.6C22.19,5.3,21.67,5.32,21.25,5.58"/>
	<path class="st1" d="M20.96,3.88c0.27-0.1,0.56-0.15,0.85-0.17c-0.16-0.33-0.37-0.64-0.65-0.91c-0.16-0.16-0.32-0.29-0.5-0.41
		l-0.6,0.6c0.18,0.11,0.36,0.24,0.52,0.4C20.73,3.54,20.86,3.71,20.96,3.88"/>
	<path class="st1" d="M14.68,11.94c0.02,0.4,0.14,0.8,0.38,1.14l0.6-0.6c-0.08-0.15-0.13-0.32-0.15-0.49
		c-0.03-0.29,0.03-0.6,0.18-0.86c0.06-0.1,0.13-0.19,0.21-0.27l-0.59-0.59c-0.25,0.25-0.42,0.53-0.53,0.84
		c-0.41-0.08-0.8-0.27-1.13-0.55l1.66-1.66c0.12,0.22,0.26,0.43,0.43,0.63c0.05,0.05,0.1,0.11,0.15,0.16l1.27,1.27l0.59-0.59
		L16.5,9.1c-0.69-0.69-0.89-1.7-0.59-2.57l-0.81-0.19c-0.17,0.55-0.2,1.14-0.08,1.7l-1.88,1.88l-0.6,0.6
		c0.12,0.18,0.26,0.35,0.41,0.5C13.44,11.52,14.05,11.82,14.68,11.94"/>
</g>
<g class="st2">
	<path class="st1" d="M10.72,14.49c-0.16,0.16-0.42,0.16-0.59,0c-0.16-0.16-0.16-0.42,0-0.59s0.42-0.16,0.59,0
		S10.88,14.32,10.72,14.49"/>
	<path class="st1" d="M4.65,19.38l-0.1,0.1l2.05,2.05l0.59-0.59l-1.56-1.56C5.36,19.11,4.92,19.11,4.65,19.38"/>
	<path class="st1" d="M7.77,19.2l0.68-0.68c0.38-0.38,0.38-0.99,0-1.37c-0.38-0.38-0.99-0.38-1.37,0c-0.38,0.38-0.38,0.99,0,1.37
		L7.77,19.2z M9.5,17.33c0.18,0.61,0.02,1.29-0.46,1.77l-1.27,1.27L6.5,19.1c-0.7-0.7-0.7-1.84,0-2.54s1.84-0.7,2.54,0
		c0.02,0.02,0.03,0.03,0.05,0.05c0.74-0.44,1.67-0.42,2.39,0.07l-0.6,0.6C10.44,17.05,9.91,17.07,9.5,17.33"/>
	<path class="st1" d="M9.21,15.63c0.27-0.1,0.56-0.15,0.85-0.17c-0.16-0.33-0.37-0.64-0.65-0.91c-0.16-0.16-0.32-0.29-0.5-0.41
		l-0.6,0.6c0.18,0.11,0.36,0.24,0.52,0.4C8.98,15.29,9.11,15.46,9.21,15.63"/>
	<path class="st1" d="M2.93,23.69c0.02,0.4,0.14,0.8,0.38,1.14l0.6-0.6c-0.08-0.15-0.13-0.32-0.15-0.49
		c-0.03-0.29,0.03-0.6,0.18-0.86c0.06-0.1,0.13-0.19,0.21-0.27l-0.59-0.59c-0.25,0.25-0.42,0.53-0.53,0.84
		c-0.41-0.08-0.8-0.27-1.13-0.55l1.66-1.66c0.12,0.22,0.26,0.43,0.43,0.63c0.05,0.05,0.1,0.11,0.15,0.16l1.27,1.27l0.59-0.59
		l-1.27-1.27c-0.69-0.69-0.89-1.7-0.59-2.57l-0.81-0.19c-0.17,0.55-0.2,1.14-0.08,1.7l-1.88,1.88l-0.6,0.6
		c0.12,0.18,0.26,0.35,0.41,0.5C1.69,23.27,2.29,23.57,2.93,23.69"/>
</g>
<g class="st2">
	<path class="st1" d="M26.1,47.1c0.16-0.16,0.42-0.16,0.59,0c0.16,0.16,0.16,0.42,0,0.59c-0.16,0.16-0.42,0.16-0.59,0
		C25.94,47.53,25.94,47.27,26.1,47.1"/>
	<path class="st1" d="M32.17,42.21l0.1-0.1l-2.05-2.05l-0.59,0.59l1.56,1.56C31.47,42.48,31.9,42.48,32.17,42.21"/>
	<path class="st1" d="M29.06,42.39l-0.68,0.68c-0.38,0.38-0.38,0.99,0,1.37c0.38,0.38,0.99,0.38,1.37,0c0.38-0.38,0.38-0.99,0-1.37
		L29.06,42.39z M27.33,44.26c-0.18-0.61-0.02-1.29,0.46-1.77l1.27-1.27l1.27,1.27c0.7,0.7,0.7,1.84,0,2.54s-1.84,0.7-2.54,0
		c-0.02-0.02-0.03-0.03-0.05-0.05c-0.74,0.44-1.67,0.42-2.39-0.07l0.6-0.6C26.39,44.54,26.91,44.52,27.33,44.26"/>
	<path class="st1" d="M27.61,45.96c-0.27,0.1-0.56,0.15-0.85,0.17c0.16,0.33,0.37,0.64,0.65,0.91c0.16,0.16,0.32,0.29,0.5,0.41
		l0.6-0.6c-0.18-0.11-0.36-0.24-0.52-0.4C27.85,46.3,27.72,46.13,27.61,45.96"/>
	<path class="st1" d="M33.89,37.9c-0.02-0.4-0.14-0.8-0.38-1.14l-0.6,0.6c0.08,0.15,0.13,0.32,0.15,0.49
		c0.03,0.29-0.03,0.6-0.18,0.86c-0.06,0.1-0.13,0.19-0.21,0.27l0.59,0.59c0.25-0.25,0.42-0.53,0.53-0.84
		c0.41,0.08,0.8,0.27,1.13,0.55l-1.66,1.66c-0.12-0.22-0.26-0.43-0.43-0.63c-0.05-0.05-0.1-0.11-0.15-0.16l-1.27-1.27l-0.59,0.59
		l1.27,1.27c0.69,0.69,0.89,1.7,0.59,2.57l0.81,0.19c0.17-0.55,0.2-1.14,0.08-1.7l1.88-1.88l0.6-0.6c-0.12-0.18-0.26-0.35-0.41-0.5
		C35.14,38.32,34.53,38.02,33.89,37.9"/>
</g>
<g class="st2">
	<path class="st1" d="M37.85,35.35c0.16-0.16,0.42-0.16,0.59,0c0.16,0.16,0.16,0.42,0,0.59s-0.42,0.16-0.59,0
		S37.69,35.52,37.85,35.35"/>
	<path class="st1" d="M43.92,30.46l0.1-0.1l-2.05-2.05l-0.59,0.59l1.56,1.56C43.22,30.73,43.65,30.73,43.92,30.46"/>
	<path class="st1" d="M40.81,30.64l-0.68,0.68c-0.38,0.38-0.38,0.99,0,1.37c0.38,0.38,0.99,0.38,1.37,0c0.38-0.38,0.38-0.99,0-1.37
		L40.81,30.64z M39.08,32.51c-0.18-0.61-0.02-1.29,0.46-1.77l1.27-1.27l1.27,1.27c0.7,0.7,0.7,1.84,0,2.54s-1.84,0.7-2.54,0
		c-0.02-0.02-0.03-0.03-0.05-0.05c-0.74,0.44-1.67,0.42-2.39-0.07l0.6-0.6C38.14,32.79,38.66,32.77,39.08,32.51"/>
	<path class="st1" d="M39.36,34.21c-0.27,0.1-0.56,0.15-0.85,0.17c0.16,0.33,0.37,0.64,0.65,0.91c0.16,0.16,0.32,0.29,0.5,0.41
		l0.6-0.6c-0.18-0.11-0.36-0.24-0.52-0.4C39.6,34.55,39.47,34.38,39.36,34.21"/>
	<path class="st1" d="M45.64,26.15c-0.02-0.4-0.14-0.8-0.38-1.14l-0.6,0.6c0.08,0.15,0.13,0.32,0.15,0.49
		c0.03,0.29-0.03,0.6-0.18,0.86c-0.06,0.1-0.13,0.19-0.21,0.27L45,27.81c0.25-0.25,0.42-0.53,0.53-0.84
		c0.41,0.08,0.8,0.27,1.13,0.55L45,29.19c-0.12-0.22-0.26-0.43-0.43-0.63c-0.05-0.05-0.1-0.11-0.15-0.16l-1.27-1.27l-0.59,0.59
		l1.27,1.27c0.69,0.69,0.89,1.7,0.59,2.57l0.81,0.19c0.17-0.55,0.2-1.14,0.08-1.7l1.88-1.88l0.6-0.6c-0.12-0.18-0.26-0.35-0.41-0.5
		C46.89,26.57,46.28,26.27,45.64,26.15"/>
</g>
<g class="st2">
	<path class="st1" d="M0.71,1.73c0.16,0.16,0.16,0.42,0,0.59c-0.16,0.16-0.42,0.16-0.59,0c-0.16-0.16-0.16-0.42,0-0.59
		C0.28,1.57,0.55,1.57,0.71,1.73"/>
	<path class="st1" d="M5.6,7.8l0.1,0.1l2.05-2.05L7.17,5.26L5.6,6.82C5.33,7.09,5.33,7.53,5.6,7.8"/>
	<path class="st1" d="M5.42,4.68L4.74,4C4.36,3.62,3.75,3.62,3.37,4c-0.38,0.38-0.38,0.99,0,1.37c0.38,0.38,0.99,0.38,1.37,0
		L5.42,4.68z M3.55,2.95c0.61-0.18,1.29-0.02,1.77,0.46L6.6,4.68L5.32,5.96c-0.7,0.7-1.84,0.7-2.54,0s-0.7-1.84,0-2.54
		C2.79,3.4,2.81,3.38,2.83,3.36C2.39,2.63,2.41,1.69,2.89,0.98l0.6,0.6C3.27,2.01,3.29,2.54,3.55,2.95"/>
	<path class="st1" d="M1.85,3.24C1.76,2.97,1.7,2.68,1.68,2.39C1.35,2.55,1.05,2.76,0.77,3.04c-0.16,0.16-0.29,0.32-0.41,0.5
		l0.6,0.6c0.11-0.18,0.24-0.36,0.4-0.52C1.51,3.47,1.68,3.34,1.85,3.24"/>
	<path class="st1" d="M9.91,9.52c0.4-0.02,0.8-0.14,1.14-0.38l-0.6-0.6c-0.15,0.08-0.32,0.13-0.49,0.15
		C9.67,8.72,9.37,8.66,9.11,8.5c-0.1-0.06-0.19-0.13-0.27-0.21L8.25,8.88C8.49,9.12,8.78,9.3,9.09,9.4
		c-0.08,0.41-0.27,0.8-0.55,1.13L6.87,8.87C7.09,8.75,7.31,8.61,7.5,8.44c0.05-0.05,0.11-0.1,0.16-0.15l1.27-1.27L8.34,6.43
		L7.07,7.7C6.38,8.4,5.37,8.6,4.5,8.3L4.31,9.11c0.55,0.17,1.14,0.2,1.7,0.08l1.88,1.88l0.6,0.6c0.18-0.12,0.35-0.26,0.5-0.41
		C9.49,10.77,9.8,10.16,9.91,9.52"/>
</g>
<g class="st2">
	<path class="st1" d="M39.03,40.06c0.16,0.16,0.16,0.42,0,0.59c-0.16,0.16-0.42,0.16-0.59,0c-0.16-0.16-0.16-0.42,0-0.59
		C38.61,39.9,38.87,39.9,39.03,40.06"/>
	<path class="st1" d="M43.93,46.13l0.1,0.1l2.05-2.05l-0.59-0.59l-1.56,1.56C43.66,45.42,43.66,45.86,43.93,46.13"/>
	<path class="st1" d="M43.75,43.01l-0.68-0.68c-0.38-0.38-0.99-0.38-1.37,0c-0.38,0.38-0.38,0.99,0,1.37c0.38,0.38,0.99,0.38,1.37,0
		L43.75,43.01z M41.88,41.28c0.61-0.18,1.29-0.02,1.77,0.46l1.27,1.27l-1.27,1.27c-0.7,0.7-1.84,0.7-2.54,0
		c-0.7-0.7-0.7-1.84,0-2.54c0.02-0.02,0.03-0.03,0.05-0.05c-0.44-0.74-0.42-1.67,0.07-2.39l0.6,0.6
		C41.6,40.34,41.62,40.86,41.88,41.28"/>
	<path class="st1" d="M40.18,41.57c-0.1-0.27-0.15-0.56-0.17-0.85c-0.33,0.16-0.64,0.37-0.91,0.65c-0.16,0.16-0.29,0.32-0.41,0.5
		l0.6,0.6c0.11-0.18,0.24-0.36,0.4-0.52C39.84,41.8,40.01,41.67,40.18,41.57"/>
	<path class="st1" d="M48.24,47.85c0.4-0.02,0.8-0.14,1.14-0.38l-0.6-0.6c-0.15,0.08-0.32,0.13-0.49,0.15
		c-0.29,0.03-0.6-0.03-0.86-0.18c-0.1-0.06-0.19-0.13-0.27-0.21l-0.59,0.59c0.25,0.25,0.53,0.42,0.84,0.53
		c-0.08,0.41-0.27,0.8-0.55,1.13L45.2,47.2c0.22-0.12,0.43-0.26,0.63-0.43c0.05-0.05,0.11-0.1,0.16-0.15l1.27-1.27l-0.59-0.59
		l-1.27,1.27c-0.69,0.69-1.7,0.89-2.57,0.59l-0.19,0.81c0.55,0.17,1.14,0.2,1.7,0.08l1.88,1.88l0.6,0.6
		c0.18-0.12,0.35-0.26,0.5-0.41C47.82,49.09,48.12,48.48,48.24,47.85"/>
</g>
</svg>
