<?xml version="1.0" encoding="utf-8"?>
<!-- Generator: Adobe Illustrator 24.3.0, SVG Export Plug-In . SVG Version: 6.00 Build 0)  -->
<svg version="1.0" id="Layer_1" xmlns="http://www.w3.org/2000/svg" xmlns:xlink="http://www.w3.org/1999/xlink" x="0px" y="0px"
	 viewBox="0 0 50 50" style="enable-background:new 0 0 50 50;" xml:space="preserve">
<style type="text/css">
	.st0{opacity:0.11;fill:#BCBEC0;}
</style>
<path class="st0" d="M42.8,50h-1.5c-0.4-2.2-0.4-4.2,0.1-6c-1,0.3-2,0.4-3.1,0.4c-1.8,0-3.8-0.4-5.7-1.1c-1.4,3-3.4,5.4-5.8,6.7
	h-3.6c-2.3-1.3-4.3-3.7-5.8-6.7c-2,0.7-3.9,1.1-5.7,1.1c-1.1,0-2.1-0.1-3.1-0.4c0.5,1.8,0.5,3.9,0.1,6H7.2c0.5-2.5,0.4-4.9-0.4-6.8
	c-1.9-0.9-4.2-1-6.8-0.4v-1.5c2.2-0.4,4.2-0.4,6,0.1c-0.7-2.6-0.5-5.6,0.7-8.8c-3-1.4-5.4-3.4-6.7-5.8v-3.6c1.3-2.3,3.7-4.3,6.7-5.8
	C5.6,14.3,5.3,11.2,6,8.6C5.1,8.9,4,9,3,9C2,9,1,8.9,0,8.7V7.2c2.5,0.5,4.9,0.4,6.8-0.4c0.9-1.9,1-4.2,0.4-6.8h1.5
	c0.4,2.2,0.4,4.2-0.1,6c2.6-0.7,5.6-0.5,8.8,0.7c1.4-3,3.4-5.4,5.8-6.7h3.6c2.3,1.3,4.3,3.7,5.8,6.7c3.2-1.1,6.2-1.4,8.8-0.7
	c-0.5-1.8-0.5-3.9-0.1-6h1.5c-0.5,2.5-0.4,4.9,0.4,6.8c1.9,0.9,4.2,1,6.8,0.4v1.5C49,8.9,48,9,47,9C46,9,44.9,8.9,44,8.6
	c0.7,2.6,0.5,5.6-0.7,8.8c3,1.4,5.4,3.4,6.7,5.8v3.6c-1.3,2.3-3.7,4.3-6.7,5.8c1.1,3.2,1.4,6.2,0.7,8.8c1.8-0.5,3.9-0.5,6-0.1v1.5
	c-2.5-0.5-4.9-0.4-6.8,0.4C42.4,45.1,42.3,47.5,42.8,50z M42.8,18.8C41.9,20.9,40.6,23,39,25c1.6,2,2.8,4.1,3.7,6.2
	c3.2-1.5,5.5-3.7,6.4-6.2C48.3,22.5,45.9,20.3,42.8,18.8z M35.1,18.6c0,0,0,0.1,0,0.1c0.1,0.7,0.2,1.3,0.2,2c0.5,0.5,0.9,1,1.3,1.6
	c0,0,0.1,0.1,0.1,0.1c0.5,0.5,0.9,0.9,1.3,1.4c1.4-1.8,2.6-3.7,3.4-5.6c-1.9-0.8-4.1-1.3-6.3-1.6C35.1,17.3,35.1,17.9,35.1,18.6z
	 M34.7,25c0.2,0.7,0.3,1.4,0.4,2c0.1-0.1,0.2-0.2,0.4-0.4c0.4-0.5,0.6-1.1,0.9-1.7c-0.2-0.6-0.5-1.1-0.9-1.7
	c-0.1-0.1-0.2-0.2-0.4-0.4C35,23.6,34.9,24.3,34.7,25z M35.1,31.4c0,0.7,0,1.3-0.1,2c2.3-0.3,4.4-0.8,6.3-1.6
	c-0.8-1.9-1.9-3.8-3.4-5.6c-0.4,0.5-0.9,1-1.3,1.4c0,0-0.1,0.1-0.1,0.1c-0.4,0.5-0.8,1.1-1.3,1.6c0,0.7-0.1,1.4-0.2,2
	C35.1,31.3,35.1,31.4,35.1,31.4z M33.2,8.1c0.8,2.1,1.5,4.5,1.7,7c2.5,0.3,4.9,0.9,7,1.7c1.2-3.3,1.3-6.5,0.2-8.9
	C39.7,6.8,36.5,6.9,33.2,8.1z M30.6,30.6c0.6-0.9,1-1.8,1.5-2.7c0.3-0.9,0.6-1.9,0.9-2.9c-0.2-1-0.5-2-0.9-2.9
	c-0.4-0.9-0.9-1.8-1.5-2.7c-0.9-0.6-1.8-1-2.7-1.5C27,17.6,26,17.3,25,17.1c-1,0.2-2,0.5-2.9,0.9c-0.9,0.4-1.8,0.9-2.7,1.5
	c-0.6,0.9-1,1.8-1.5,2.7C17.6,23,17.3,24,17.1,25c0.2,1,0.5,2,0.9,2.9c0.4,0.9,0.9,1.8,1.5,2.7c0.9,0.6,1.8,1,2.7,1.5
	c0.9,0.3,1.9,0.6,2.9,0.9c1-0.2,2-0.5,2.9-0.9C28.8,31.6,29.7,31.1,30.6,30.6z M28.5,33.4C28.5,33.4,28.5,33.4,28.5,33.4
	C28.5,33.5,28.5,33.5,28.5,33.4C28.5,33.4,28.5,33.4,28.5,33.4C28.5,33.4,28.5,33.4,28.5,33.4z M25,34.7c-0.7,0.2-1.4,0.3-2,0.4
	c0.1,0.1,0.2,0.2,0.4,0.4c0.5,0.4,1.1,0.6,1.7,0.9c0.6-0.2,1.1-0.5,1.7-0.9c0.1-0.1,0.2-0.2,0.4-0.4C26.4,35,25.7,34.9,25,34.7z
	 M21.5,33.4C21.5,33.4,21.5,33.4,21.5,33.4C21.5,33.4,21.5,33.4,21.5,33.4C21.5,33.5,21.5,33.5,21.5,33.4
	C21.5,33.4,21.5,33.4,21.5,33.4z M16.5,28.5C16.6,28.5,16.6,28.5,16.5,28.5C16.6,28.5,16.6,28.5,16.5,28.5
	C16.6,28.5,16.6,28.4,16.5,28.5C16.5,28.5,16.5,28.5,16.5,28.5z M16.5,21.6C16.6,21.6,16.6,21.5,16.5,21.6c0-0.1,0-0.1,0.1-0.1
	C16.6,21.5,16.6,21.5,16.5,21.6C16.5,21.5,16.5,21.5,16.5,21.6z M18.1,18.1c0.4-0.6,0.7-1.2,1.1-1.7c-0.2,0-0.3,0-0.5,0
	c-0.6,0.1-1.2,0.3-1.8,0.6c-0.3,0.6-0.4,1.2-0.6,1.8c0,0.2,0,0.3,0,0.5C17,18.9,17.5,18.5,18.1,18.1z M16.4,31.2
	c0.1,0.6,0.3,1.2,0.6,1.8c0.6,0.3,1.2,0.4,1.8,0.6c0.2,0,0.3,0,0.5,0c-0.4-0.5-0.8-1.1-1.1-1.7c-0.6-0.4-1.2-0.7-1.7-1.1
	C16.4,30.9,16.4,31.1,16.4,31.2z M21.5,16.6C21.5,16.6,21.6,16.6,21.5,16.6C21.6,16.5,21.5,16.5,21.5,16.6
	C21.5,16.6,21.5,16.6,21.5,16.6C21.5,16.6,21.5,16.6,21.5,16.6z M25,15.3c0.7-0.2,1.4-0.3,2-0.4c-0.1-0.1-0.2-0.3-0.4-0.4
	c-0.5-0.4-1.1-0.6-1.7-0.9c-0.6,0.2-1.1,0.5-1.7,0.9c-0.1,0.1-0.2,0.2-0.4,0.4C23.6,15,24.3,15.1,25,15.3z M28.5,16.6
	C28.5,16.6,28.5,16.6,28.5,16.6C28.5,16.6,28.5,16.6,28.5,16.6C28.5,16.5,28.5,16.5,28.5,16.6C28.4,16.6,28.5,16.6,28.5,16.6z
	 M30.7,33.6c0.2,0,0.3,0,0.5,0c0.6-0.1,1.2-0.3,1.8-0.6c0.3-0.6,0.4-1.2,0.6-1.8c0-0.2,0-0.3,0-0.5c-0.5,0.4-1.1,0.8-1.7,1.1
	C31.5,32.5,31.1,33,30.7,33.6z M33.5,21.5C33.4,21.5,33.4,21.5,33.5,21.5C33.4,21.5,33.4,21.5,33.5,21.5
	C33.4,21.5,33.4,21.6,33.5,21.5C33.5,21.5,33.5,21.5,33.5,21.5z M33.5,28.4C33.4,28.4,33.4,28.5,33.5,28.4c0,0.1,0,0.1-0.1,0.1
	C33.4,28.5,33.4,28.5,33.5,28.4C33.5,28.5,33.5,28.5,33.5,28.4z M33.6,18.8c-0.1-0.6-0.3-1.2-0.6-1.8c-0.6-0.3-1.2-0.4-1.8-0.6
	c-0.2,0-0.3,0-0.5,0c0.4,0.5,0.8,1.1,1.1,1.7c0.6,0.4,1.2,0.7,1.7,1.1C33.6,19.1,33.6,18.9,33.6,18.8z M31.8,8.6
	c-1.9,0.8-3.8,1.9-5.6,3.4c0.5,0.4,1,0.9,1.4,1.3c0,0,0.1,0.1,0.1,0.1c0.5,0.4,1.1,0.8,1.6,1.3c0.7,0,1.4,0.1,2,0.2c0,0,0.1,0,0.1,0
	c0.7,0,1.3,0,2,0.1C33.1,12.7,32.6,10.5,31.8,8.6z M18.8,7.2C20.9,8.1,23,9.4,25,11c2-1.6,4.1-2.8,6.2-3.7c-1.5-3.2-3.7-5.5-6.2-6.4
	C22.5,1.7,20.3,4.1,18.8,7.2z M16.6,14.9c0.6,0,1.3-0.1,2-0.1c0,0,0.1,0,0.1,0c0.7-0.1,1.3-0.2,2-0.2c0.5-0.5,1-0.9,1.6-1.3
	c0,0,0.1-0.1,0.1-0.1c0.5-0.5,0.9-0.9,1.4-1.3c-1.8-1.4-3.7-2.6-5.6-3.4C17.4,10.5,16.9,12.7,16.6,14.9z M8.1,16.8
	c2.1-0.8,4.5-1.5,7-1.7c0.3-2.5,0.9-4.9,1.7-7c-3.3-1.2-6.5-1.3-8.9-0.2C6.8,10.3,6.9,13.5,8.1,16.8z M14.9,18.6c0-0.7,0-1.3,0.1-2
	c-2.3,0.3-4.4,0.8-6.3,1.6c0.8,1.9,1.9,3.8,3.4,5.6c0.4-0.5,0.9-1,1.3-1.4c0,0,0.1-0.1,0.1-0.1c0.4-0.5,0.8-1.1,1.3-1.6
	c0-0.7,0.1-1.4,0.2-2C14.9,18.7,14.9,18.6,14.9,18.6z M8.6,31.8c1.9,0.8,4.1,1.3,6.3,1.6c0-0.6-0.1-1.3-0.1-2c0,0,0-0.1,0-0.1
	c-0.1-0.7-0.2-1.3-0.2-2c-0.5-0.5-0.9-1-1.3-1.6c0,0-0.1-0.1-0.1-0.1c-0.5-0.5-0.9-0.9-1.3-1.4C10.5,28,9.4,29.9,8.6,31.8z M15.3,25
	c-0.2-0.7-0.3-1.4-0.4-2c-0.1,0.1-0.2,0.2-0.4,0.4c-0.4,0.5-0.6,1.1-0.9,1.7c0.2,0.6,0.5,1.1,0.9,1.7c0.1,0.1,0.2,0.2,0.4,0.4
	C15,26.4,15.1,25.7,15.3,25z M7.2,31.2C8.1,29.1,9.4,27,11,25c-1.6-2-2.8-4.1-3.7-6.2c-3.2,1.5-5.5,3.7-6.4,6.2
	C1.7,27.5,4.1,29.7,7.2,31.2z M16.8,41.9c-0.8-2.1-1.5-4.5-1.7-7c-2.5-0.3-4.9-0.9-7-1.7c-1.2,3.3-1.3,6.5-0.2,8.9
	C10.3,43.2,13.5,43.1,16.8,41.9z M18.2,41.4c1.9-0.8,3.8-1.9,5.6-3.4c-0.5-0.4-1-0.9-1.4-1.3c0,0-0.1-0.1-0.1-0.1
	c-0.5-0.4-1.1-0.8-1.6-1.3c-0.7,0-1.4-0.1-2-0.2c0,0-0.1,0-0.1,0c-0.7,0-1.3,0-2-0.1C16.9,37.3,17.4,39.5,18.2,41.4z M31.2,42.8
	C29.1,41.9,27,40.6,25,39c-2,1.6-4.1,2.8-6.2,3.7c1.5,3.2,3.7,5.5,6.2,6.4C27.5,48.3,29.7,45.9,31.2,42.8z M33.4,35.1
	c-0.6,0-1.3,0.1-2,0.1c0,0-0.1,0-0.1,0c-0.7,0.1-1.3,0.2-2,0.2c-0.5,0.5-1,0.9-1.6,1.3c0,0-0.1,0.1-0.1,0.1
	c-0.5,0.5-0.9,0.9-1.4,1.3c1.8,1.4,3.7,2.6,5.6,3.4C32.6,39.5,33.1,37.3,33.4,35.1z M42.1,42.1c1.1-2.4,1-5.6-0.2-8.9
	c-2.1,0.8-4.5,1.5-7,1.7c-0.3,2.5-0.9,4.9-1.7,7C36.5,43.1,39.7,43.2,42.1,42.1z"/>
</svg>
