<svg id="Layer_1" data-name="Layer 1" xmlns="http://www.w3.org/2000/svg" viewBox="0 0 189.52 94.76"><defs><style>.cls-1{fill:#231f20;}</style></defs><title>kalamana-copy</title><path class="cls-1" d="M184.87,42.09a59.3,59.3,0,0,0-12.69-18.82l-.31-.3a41.17,41.17,0,0,0,8.47-12.75A41.1,41.1,0,0,0,183.18,0h-12a29.65,29.65,0,0,1-23.09,23.1v12a41.36,41.36,0,0,0,10.22-2.85,41.42,41.42,0,0,0,4.07-2,47.22,47.22,0,0,1,14.95,28.95h-46c.1-.21.19-.42.28-.64a58.86,58.86,0,0,0,4.66-23.05V0H124.38V35.54A47.39,47.39,0,0,1,77,82.92h0A47.41,47.41,0,0,1,32.36,51.47a29.52,29.52,0,0,1,11.21-3.84,35.55,35.55,0,0,0,69-12.09V0H77A35.52,35.52,0,0,0,41.47,35.54V36A41.47,41.47,0,0,0,6.34,71.07h12a29.45,29.45,0,0,1,4.72-11,59.28,59.28,0,0,0,30.86,30,59.2,59.2,0,0,0,64.93-12.68,59,59,0,0,0,5.51-6.35h64.85a58.23,58.23,0,0,0,.29-5.92A58.9,58.9,0,0,0,184.87,42.09ZM53.31,35.54A23.69,23.69,0,0,1,77,11.85h23.69V35.54A23.69,23.69,0,0,1,77,59.23h0A23.69,23.69,0,0,1,53.31,35.54Z"/><path class="cls-1" d="M35.54,17.77A17.77,17.77,0,1,0,17.77,35.54,17.79,17.79,0,0,0,35.54,17.77Zm-23.69,0a5.92,5.92,0,1,1,5.92,5.92A5.92,5.92,0,0,1,11.85,17.77Z"/></svg>