<svg id="Layer_1" data-name="Layer 1" xmlns="http://www.w3.org/2000/svg" viewBox="0 0 260.6 148.07"><defs><style>.cls-1{fill:#231f20;}</style></defs><title>kalamana-copy</title><path class="cls-1" d="M220.41,77.63a59.08,59.08,0,0,0-12.69-18.82l-.31-.3a41.36,41.36,0,0,0,11.31-23h-12a29.62,29.62,0,0,1-23.09,23.09v12a41.14,41.14,0,0,0,10.21-2.84,38.54,38.54,0,0,0,4.08-2,47.24,47.24,0,0,1,14.95,29h-46c.1-.21.19-.42.28-.63a58.91,58.91,0,0,0,4.66-23.06V35.54H159.92V71.07a47.39,47.39,0,0,1-47.39,47.38h0A47.4,47.4,0,0,1,67.9,87a29.36,29.36,0,0,1,11.21-3.85,35.55,35.55,0,0,0,69-12.09V35.54H112.54A35.51,35.51,0,0,0,77,71.07v.42a41.49,41.49,0,0,0-35.13,35.12h12a29.5,29.5,0,0,1,4.72-11A59.2,59.2,0,0,0,154.41,113a57.93,57.93,0,0,0,5.51-6.34h64.85a58.23,58.23,0,0,0,.29-5.92A58.9,58.9,0,0,0,220.41,77.63ZM88.85,71.07a23.69,23.69,0,0,1,23.69-23.69h23.69V71.07a23.68,23.68,0,0,1-23.69,23.69h0A23.69,23.69,0,0,1,88.85,71.07Z"/><path class="cls-1" d="M71.08,53.3A17.77,17.77,0,1,0,53.31,71.07,17.79,17.79,0,0,0,71.08,53.3Zm-23.69,0a5.92,5.92,0,1,1,5.92,5.93A5.93,5.93,0,0,1,47.39,53.3Z"/></svg>