<svg id="Layer_1" data-name="Layer 1" xmlns="http://www.w3.org/2000/svg" viewBox="0 0 810.36 94.76"><defs><style>.cls-1{fill:#f1f2f2;}</style></defs><title>kalamana-copy</title><path class="cls-1" d="M184.87,42.09a59.3,59.3,0,0,0-12.69-18.82l-.31-.3a41.17,41.17,0,0,0,8.47-12.75A41.1,41.1,0,0,0,183.18,0h-12a29.65,29.65,0,0,1-23.09,23.1v12a41.36,41.36,0,0,0,10.22-2.85,41.42,41.42,0,0,0,4.07-2,47.22,47.22,0,0,1,14.95,28.95h-46c.1-.21.19-.42.28-.64a58.86,58.86,0,0,0,4.66-23.05V0H124.38V35.54A47.39,47.39,0,0,1,77,82.92h0A47.41,47.41,0,0,1,32.36,51.47a29.52,29.52,0,0,1,11.21-3.84,35.55,35.55,0,0,0,69-12.09V0H77A35.52,35.52,0,0,0,41.47,35.54V36A41.47,41.47,0,0,0,6.34,71.07h12a29.45,29.45,0,0,1,4.72-11,59.28,59.28,0,0,0,30.86,30,59.2,59.2,0,0,0,64.93-12.68,59,59,0,0,0,5.51-6.35h64.85a58.23,58.23,0,0,0,.29-5.92A58.9,58.9,0,0,0,184.87,42.09ZM53.31,35.54A23.69,23.69,0,0,1,77,11.85h23.69V35.54A23.69,23.69,0,0,1,77,59.23h0A23.69,23.69,0,0,1,53.31,35.54Z"/><path class="cls-1" d="M35.54,17.77A17.77,17.77,0,1,0,17.77,35.54,17.79,17.79,0,0,0,35.54,17.77Zm-23.69,0a5.92,5.92,0,1,1,5.92,5.92A5.92,5.92,0,0,1,11.85,17.77Z"/><path class="cls-1" d="M461.38,23.75H425.54a19,19,0,0,0-19,15.87,19.55,19.55,0,0,0-.27,3.51V68.69c0,.51,0,1,.06,1.55a.75.75,0,0,0,.63.68,5.33,5.33,0,0,0,1,.09c2.14,0,4.31,0,6.45,0,1.54,0,1.69-.18,1.69-1.69,0-3.27,0-6.57,0-9.84V43.87c0-.65,0-1.3,0-2a9,9,0,0,1,7.14-8.17,23.8,23.8,0,0,1,5.47-.24c.62,0,.83.24.86.86s0,.92,0,1.4V68.52c0,.5,0,1,0,1.54s.26.83.86.92c.33,0,.65.06,1,.06h6c1.82,0,1.94-.12,1.94-1.9V35.28c0-1.78,0-1.78,1.81-1.78h10.11c1.69,0,1.72.06,1.72,1.75V68.69c0,.51,0,1,0,1.55a.7.7,0,0,0,.68.74,5.43,5.43,0,0,0,1,.06h6.33a5.78,5.78,0,0,0,.72,0c.71-.09.92-.27.95-1,0-.47,0-.92,0-1.4.06-7.13.06-14.2.06-21.28V25.18C462.84,23.9,462.69,23.78,461.38,23.75Z"/><path class="cls-1" d="M310,23.81a7.2,7.2,0,0,0-1.13-.06c-5.74,0-11.45-.06-17.15,0a18.94,18.94,0,0,0-18.79,17.06,37.06,37.06,0,0,0-.18,4.07V68.19c0,.41,0,.86,0,1.31.06,1.3.21,1.51,1.61,1.51q3.3,0,6.6,0c1.51,0,1.66-.18,1.66-1.75V63.08c0-1.43.09-1.52,1.52-1.52h15.57c.89.06,1.07.21,1.13,1.07V69a8.72,8.72,0,0,0,.06,1.25.75.75,0,0,0,.74.71,7.91,7.91,0,0,0,.84.06h6.6c1.42-.06,1.57-.21,1.6-1.66V24.55A.75.75,0,0,0,310,23.81Zm-9.13,19v7.44c0,1.9,0,1.93-1.84,1.93h-14.6c-.32,0-.65,0-1,0-.53,0-.74-.24-.8-.78a5.54,5.54,0,0,1,0-.71c0-2.7-.06-5.44,0-8.17a8.91,8.91,0,0,1,5.05-8,9.69,9.69,0,0,1,4.46-1c2.38,0,4.79,0,7.17,0,1.48,0,1.57.09,1.57,1.61Z"/><path class="cls-1" d="M396.55,26.16V24.88c-.06-.92-.27-1.1-1.22-1.16h-.71c-5.68,0-11.33,0-17,0a19,19,0,0,0-18.88,17,42.11,42.11,0,0,0-.18,4.34v23.6a13.39,13.39,0,0,0,.06,1.55.75.75,0,0,0,.75.71,5.32,5.32,0,0,0,1,.06h6.48c1.42-.06,1.6-.21,1.6-1.66,0-2.11,0-4.22,0-6.33,0-1.34.12-1.46,1.43-1.46h15.31c1.39,0,1.48.09,1.51,1.55v6c0,1.72.15,1.84,1.85,1.84h6.18a5.62,5.62,0,0,0,.71,0c.83-.09,1.07-.29,1.13-1.13,0-.47,0-.92,0-1.39,0-7,0-14,0-21Zm-9.84,24.1a8.66,8.66,0,0,1-.09,1.25.6.6,0,0,1-.56.54,10.93,10.93,0,0,1-1.4.06h-15c-1-.06-1.13-.18-1.19-1.13V42.42A9.17,9.17,0,0,1,375,33.86a11.47,11.47,0,0,1,3.18-.45h6.87c1.6,0,1.66.06,1.66,1.67V50.26Z"/><path class="cls-1" d="M510.52,26.13V24.85c-.06-.86-.27-1.07-1.07-1.13a7.66,7.66,0,0,0-.83,0c-5.68,0-11.33,0-17,0a18.59,18.59,0,0,0-13.31,5.44,18.41,18.41,0,0,0-5.53,11.24,31.64,31.64,0,0,0-.21,3.77V68.6a13.39,13.39,0,0,0,.06,1.55.75.75,0,0,0,.74.71,4,4,0,0,0,.84.06c2.2,0,4.4,0,6.59,0,1.43,0,1.61-.18,1.61-1.66,0-2.11,0-4.22,0-6.33,0-1.34.12-1.46,1.43-1.46h15.3c1.4,0,1.49.09,1.52,1.55v6c0,1.72.15,1.84,1.84,1.84h6.19a5.7,5.7,0,0,0,.71,0c.83-.09,1.07-.29,1.13-1.13,0-.47,0-.92,0-1.39,0-6.93,0-13.94,0-21Zm-9.87,16.64v7.44c0,1.87,0,1.9-1.84,1.93h-14.6c-.32,0-.65,0-1,0a.77.77,0,0,1-.8-.8,3.63,3.63,0,0,1,0-.57c0-2.79,0-5.62,0-8.41a8.46,8.46,0,0,1,2.76-6.24,9.53,9.53,0,0,1,6.75-2.65c2.38,0,4.79,0,7.17,0,1.48,0,1.57.09,1.57,1.61C500.68,37.63,500.65,40.19,500.65,42.77Z"/><path class="cls-1" d="M603.86,23.75h-17a18.43,18.43,0,0,0-7.14,1.4A18.7,18.7,0,0,0,568.4,38.08a16.79,16.79,0,0,0-.6,4.58c0,8.7,0,17.41,0,26.12a10.7,10.7,0,0,0,.06,1.4.72.72,0,0,0,.69.74,5.33,5.33,0,0,0,1,.09c2.11,0,4.22,0,6.33,0,1.54,0,1.63-.12,1.63-1.72V63.52c0-.38,0-.74,0-1.13s.27-.77.77-.8c.33,0,.66,0,1,0h14.89c1.72,0,1.72,0,1.75,1.69v6c0,1.51.15,1.66,1.73,1.69,2.11,0,4.22,0,6.33,0a5.7,5.7,0,0,0,.71,0c.71-.09.89-.26.92-1,0-.41,0-.83,0-1.28V25.48C605.61,23.84,605.55,23.75,603.86,23.75Zm-7.94,18.91v7.58c0,.38,0,.74,0,1.12s-.24.69-.68.75-.75,0-1.13,0H579.34c-.33,0-.66,0-1,0-.62-.06-.8-.24-.83-.89,0-.33,0-.66,0-1V44.35c0-1,.09-2,.18-2.94a9.14,9.14,0,0,1,6.78-7.61,12.44,12.44,0,0,1,2.76-.36h7.17a7.77,7.77,0,0,1,.83,0,.68.68,0,0,1,.65.62c0,.36.06.75.06,1.13C596,37.69,595.92,40.19,595.92,42.66Z"/><path class="cls-1" d="M261.77,60.67a41.83,41.83,0,0,0-8-16.26c-.35-.45-.71-.89-1-1.34a.64.64,0,0,1,0-.77,2.59,2.59,0,0,1,.42-.54,42.46,42.46,0,0,0,6.51-10.61,36.58,36.58,0,0,0,2.08-6.27c.18-.83,0-1-.8-1.1h-7.46a7.86,7.86,0,0,0-.84,0,.94.94,0,0,0-.86.62c-.12.3-.21.63-.32.93-.57,1.33-1,2.73-1.73,4a32.38,32.38,0,0,1-12.78,13.46,3.49,3.49,0,0,1-1.75.81c-.57-.6-.27-1.34-.27-2,0-5.4,0-10.78,0-16.16,0-1.55-.18-1.73-1.7-1.73h-6.45a3.76,3.76,0,0,0-.56,0c-.77.06-1,.27-1.07,1,0,.45,0,.92,0,1.4V69.35c0,1.51.18,1.66,1.75,1.72H233c1.9,0,1.93,0,1.93-2V55.44a1.2,1.2,0,0,1,.89-1.28c.15-.06.33-.15.51-.21a44,44,0,0,0,7.46-3.89c1.21-.84,1.39-.81,2.29.35a35.25,35.25,0,0,1,3.44,5.29,31.4,31.4,0,0,1,3.63,13.59c.06,1.6.21,1.75,1.81,1.75h6.33a7.86,7.86,0,0,0,.84,0c.59-.06.8-.27.86-.89A7.11,7.11,0,0,0,263,69,49.84,49.84,0,0,0,261.77,60.67Z"/><path class="cls-1" d="M556,23.75c-5.59,0-11.15,0-16.74,0A19,19,0,0,0,520.81,38a16.32,16.32,0,0,0-.54,3.6c0,2.14,0,4.31,0,6.45v20.8c0,.48,0,.92.06,1.4a.6.6,0,0,0,.51.59,5.36,5.36,0,0,0,1,.12h6.86c1-.09,1.22-.27,1.28-1.28,0-.41,0-.83,0-1.27V43.28a12.23,12.23,0,0,1,.21-2.53,9.09,9.09,0,0,1,7.73-7.16,16.53,16.53,0,0,1,2.11-.18h7.31c.8.06,1,.24,1,1,0,.48,0,.95,0,1.4V68.57c0,.48,0,1,0,1.4,0,.69.24.89.95,1a5.7,5.7,0,0,0,.71,0h6.6c1.22-.06,1.4-.24,1.43-1.39V68.28c.06-6.93.06-13.91.06-20.9V25.89C558.11,23.75,558.11,23.75,556,23.75Z"/><path class="cls-1" d="M347.25,61.14H340.8c-2.11,0-4.22,0-6.33,0a4.42,4.42,0,0,1-4.37-4.25c0-.5,0-1,0-1.54V26.13c0-.48,0-.92,0-1.4,0-.77-.23-.95-1-1h-7.16a3.84,3.84,0,0,0-.83.09.67.67,0,0,0-.57.57c0,.47-.06.92-.06,1.39V41.38c0,5.23,0,10.49,0,15.66a13.23,13.23,0,0,0,2.5,7.76,14.08,14.08,0,0,0,11.74,6.12c4.13.06,8.23,0,12.37,0a7,7,0,0,0,1.13-.09.77.77,0,0,0,.71-.74,3.87,3.87,0,0,0,.06-.83c0-2.14,0-4.31,0-6.45C348.86,61.35,348.68,61.2,347.25,61.14Z"/><path class="cls-1" d="M762.79,25.46c0-1.63-.09-1.72-1.79-1.72H744a18.34,18.34,0,0,0-7.13,1.39,18.71,18.71,0,0,0-11.33,12.93A17,17,0,0,0,725,42.5v1c0,8.29,0,16.57,0,24.86v.44a10.17,10.17,0,0,0,.06,1.36.72.72,0,0,0,.68.74,5.41,5.41,0,0,0,1,.09H733c1,0,1.35,0,1.52-.45a3.69,3.69,0,0,0,.12-1.28V63.51c0-.39,0-.75,0-1.13.06-.54.26-.77.77-.8l.21,0H745c.35,0,.69,0,1-.08a18.95,18.95,0,0,0,16.8-18.73c0-1.62,0-3.24,0-4.86h0Zm-15.1,25.76a8.8,8.8,0,0,1-3.9.8h-4.95v.1h-2.36c-.33,0-.65,0-1,0a1.44,1.44,0,0,1-.4-.07c-.31-.11-.41-.33-.43-.82,0-.33,0-.65,0-1V44.34c0-1,.09-2,.18-3a9.16,9.16,0,0,1,6.77-7.61,13.21,13.21,0,0,1,2.77-.35h7.16a7.58,7.58,0,0,1,.83,0,.68.68,0,0,1,.66.62c0,.36.06.75.06,1.13,0,2.47,0,5,0,7.43v2A9,9,0,0,1,747.69,51.22Z"/><path class="cls-1" d="M810.36,24.27c0-.53,0-.53-.53-.53h-8.42c-.56,0-.56,0-.56.56v18a10.86,10.86,0,0,1-.24,2.4,9.4,9.4,0,0,1-18.58-2V24.24c0-.5,0-.5-.5-.5h-8.47c-.54,0-.54,0-.54.56V42.52c0,.51,0,1,.06,1.49a18,18,0,0,0,2.2,7.61,18.75,18.75,0,0,0,11.44,9.21.57.57,0,0,1,.45.63v9.06c0,.54,0,.54.54.54h8.5c.53,0,.53,0,.53-.57V61.4a.43.43,0,0,1,.36-.54,18.69,18.69,0,0,0,9.45-6.21,18.33,18.33,0,0,0,4.25-11.44c.06-3.09,0-6.16,0-9.25C810.33,30.72,810.33,27.48,810.36,24.27Z"/><path class="cls-1" d="M705.65,33.31V52.09a9.35,9.35,0,1,1-18.69,0V42.66a9.35,9.35,0,0,1,9.35-9.35h9.34m9.58-9.57H696.31a18.92,18.92,0,0,0-18.92,18.92v9.43a18.92,18.92,0,0,0,37.84,0V23.74Z"/><path class="cls-1" d="M644.29,52.06V42.62a9.36,9.36,0,0,1,9.35-9.34h14V23.71h-14a18.92,18.92,0,0,0-18.92,18.91v9.44A18.92,18.92,0,0,0,653.64,71h14V61.4h-14A9.36,9.36,0,0,1,644.29,52.06Z"/></svg>