<svg id="Layer_1" data-name="Layer 1" xmlns="http://www.w3.org/2000/svg" viewBox="0 0 50 50"><defs><style>.cls-1{fill:#231f20;}</style></defs><path class="cls-1" d="M31.24,34.47a4.27,4.27,0,0,0-.88-1.3l0,0a2.89,2.89,0,0,0,.59-.88,3,3,0,0,0,.19-.71h-.83a2.06,2.06,0,0,1-1.6,1.6V34a2.88,2.88,0,0,0,.71-.2,2.44,2.44,0,0,0,.28-.14,3.33,3.33,0,0,1,1,2H27.53s0,0,0,0A3.77,3.77,0,0,0,27.87,34V31.56h-.82V34a3.28,3.28,0,0,1-3.28,3.28h0a3.28,3.28,0,0,1-3.09-2.18,2,2,0,0,1,.78-.26A2.46,2.46,0,0,0,26.23,34V31.56H23.77A2.46,2.46,0,0,0,21.31,34h0v0a2.86,2.86,0,0,0-2.43,2.43h.83a2.15,2.15,0,0,1,.33-.76,4.11,4.11,0,0,0,6.63,1.2,5.2,5.2,0,0,0,.38-.44h4.49c0-.14,0-.28,0-.41A4.19,4.19,0,0,0,31.24,34.47ZM22.13,34a1.64,1.64,0,0,1,1.64-1.64h1.64V34a1.63,1.63,0,0,1-1.64,1.64h0A1.64,1.64,0,0,1,22.13,34Z"/><path class="cls-1" d="M20.9,32.79A1.23,1.23,0,1,0,19.67,34h0A1.23,1.23,0,0,0,20.9,32.79Zm-1.64,0a.41.41,0,1,1,.41.41h0A.41.41,0,0,1,19.26,32.79Z"/><path class="cls-1" d="M38.88,39.4a4.06,4.06,0,0,0-.3,1.54v0a3.11,3.11,0,0,0-1,.21,3.38,3.38,0,0,0-.64.36l.59.59a2.06,2.06,0,0,1,2.26,0l.59-.59a2.7,2.7,0,0,0-.64-.36l-.3-.1a3.26,3.26,0,0,1,.69-2.15l2.25,2.25,0,0a4.14,4.14,0,0,0-1.36.9L39.2,43.84l.58.58,1.74-1.74a3.28,3.28,0,0,1,4.64,0h0a3.3,3.3,0,0,1,.65,3.73,2.21,2.21,0,0,1-.74-.36,2.46,2.46,0,0,0-4-2.79L40.36,45l1.74,1.74a2.46,2.46,0,0,0,3.48,0h0l0,0a2.88,2.88,0,0,0,3.44,0l-.59-.59a1.93,1.93,0,0,1-.77.31,4.1,4.1,0,0,0-3.84-5.54,5.65,5.65,0,0,0-.58,0l-3.17-3.17-.31.28A4,4,0,0,0,38.88,39.4ZM45,46.16a1.64,1.64,0,0,1-2.32,0L41.52,45l1.16-1.16a1.64,1.64,0,0,1,2.32,0h0A1.64,1.64,0,0,1,45,46.16Z"/><path class="cls-1" d="M45,47.9a1.23,1.23,0,1,0,1.74,0h0A1.23,1.23,0,0,0,45,47.9Zm1.16,1.16a.41.41,0,1,1,0-.58h0A.41.41,0,0,1,46.16,49.06Z"/><path class="cls-1" d="M11.12,10.6a4.06,4.06,0,0,0,.3-1.54V9a3.11,3.11,0,0,0,1-.21,3.38,3.38,0,0,0,.64-.36l-.59-.59a2.06,2.06,0,0,1-2.26,0l-.59.59a2.7,2.7,0,0,0,.64.36l.3.1a3.26,3.26,0,0,1-.69,2.15L7.66,8.82l0,0a4.14,4.14,0,0,0,1.36-.9L10.8,6.16l-.58-.58L8.48,7.32a3.28,3.28,0,0,1-4.64,0h0a3.3,3.3,0,0,1-.65-3.73A2.21,2.21,0,0,1,3.93,4a2.46,2.46,0,0,0,4,2.79L9.64,5,7.9,3.26a2.46,2.46,0,0,0-3.48,0h0l0,0A2.88,2.88,0,0,0,1,3.28l.59.59a1.93,1.93,0,0,1,.77-.31A4.1,4.1,0,0,0,6.16,9.1a5.65,5.65,0,0,0,.58,0l3.17,3.17.31-.28A4,4,0,0,0,11.12,10.6ZM5,3.84a1.64,1.64,0,0,1,2.32,0L8.48,5,7.32,6.16A1.64,1.64,0,0,1,5,6.16H5A1.64,1.64,0,0,1,5,3.84Z"/><path class="cls-1" d="M5,2.1a1.23,1.23,0,1,0-1.74,0h0A1.23,1.23,0,0,0,5,2.1ZM3.84.94a.41.41,0,1,1,0,.58h0A.41.41,0,0,1,3.84.94Z"/><path class="cls-1" d="M36.11,36.56a4.06,4.06,0,0,0-1.54-.3h0a3.11,3.11,0,0,0-.21-1,3,3,0,0,0-.36-.63l-.59.58a2.06,2.06,0,0,1,0,2.26L34,38a3.09,3.09,0,0,0,.36-.64,2.64,2.64,0,0,0,.1-.3,3.28,3.28,0,0,1,2.15.69L34.33,40l0,0a4.14,4.14,0,0,0-.9-1.36l-1.74-1.74-.58.58,1.74,1.74a3.28,3.28,0,0,1,0,4.64h0a3.3,3.3,0,0,1-3.73.65,2.21,2.21,0,0,1,.36-.74,2.46,2.46,0,0,0,2.79-4L30.51,38l-1.74,1.74a2.46,2.46,0,0,0,0,3.48h0l0,0a2.88,2.88,0,0,0,0,3.44l.59-.59a1.93,1.93,0,0,1-.31-.77,4.1,4.1,0,0,0,5.54-3.84,3.79,3.79,0,0,0,0-.58l3.18-3.17a4.13,4.13,0,0,0-1.63-1.21Zm-6.76,6.12a1.64,1.64,0,0,1,0-2.32l1.16-1.16,1.16,1.16a1.64,1.64,0,0,1,0,2.32h0A1.64,1.64,0,0,1,29.35,42.68Z"/><path class="cls-1" d="M27.61,42.68a1.23,1.23,0,1,0,0,1.74h0A1.23,1.23,0,0,0,27.61,42.68Zm-1.16,1.16a.41.41,0,1,1,.58,0h0A.41.41,0,0,1,26.45,43.84Z"/><path class="cls-1" d="M45.39,27.29a4.11,4.11,0,0,0-1.55-.3h0a2.65,2.65,0,0,0-.21-1,2.7,2.7,0,0,0-.36-.64l-.58.59a2.06,2.06,0,0,1,0,2.26l.58.59a2.91,2.91,0,0,0,.36-.64c0-.1.08-.2.11-.3a3.24,3.24,0,0,1,2.14.68L43.6,30.75s0,0,0-.05a4.3,4.3,0,0,0-.9-1.36L41,27.61l-.59.58,1.74,1.74a3.27,3.27,0,0,1,0,4.64h0a3.28,3.28,0,0,1-3.72.64,2,2,0,0,1,.36-.74,2.46,2.46,0,0,0,2.79-4l-1.74-1.74-1.74,1.74A2.44,2.44,0,0,0,38,34h0l0,0a2.87,2.87,0,0,0,0,3.43l.58-.58a2,2,0,0,1-.3-.77,4.1,4.1,0,0,0,5.53-3.84,3.69,3.69,0,0,0,0-.58L47,28.49a4,4,0,0,0-.28-.3A4,4,0,0,0,45.39,27.29Zm-6.76,6.12a1.64,1.64,0,0,1,0-2.32l1.16-1.16,1.15,1.16a1.62,1.62,0,0,1,0,2.32h0A1.63,1.63,0,0,1,38.63,33.41Z"/><path class="cls-1" d="M36.89,33.41a1.23,1.23,0,1,0,0,1.74h0A1.23,1.23,0,0,0,36.89,33.41Zm-1.16,1.16a.41.41,0,1,1,.58,0h0A.41.41,0,0,1,35.73,34.57Z"/><path class="cls-1" d="M13.89,13.44a4.06,4.06,0,0,0,1.54.3h0a3.11,3.11,0,0,0,.21,1,3,3,0,0,0,.36.63l.59-.58a2.06,2.06,0,0,1,0-2.26L16,12a3.09,3.09,0,0,0-.36.64,2.64,2.64,0,0,0-.1.3,3.28,3.28,0,0,1-2.15-.69L15.67,10l0,0a4.14,4.14,0,0,0,.9,1.36l1.74,1.74.58-.58L17.17,10.8a3.28,3.28,0,0,1,0-4.64h0a3.3,3.3,0,0,1,3.73-.65,2.21,2.21,0,0,1-.36.74,2.46,2.46,0,0,0-2.79,4L19.49,12l1.74-1.74a2.46,2.46,0,0,0,0-3.48h0l0,0a2.88,2.88,0,0,0,0-3.44l-.59.59a1.93,1.93,0,0,1,.31.77,4.1,4.1,0,0,0-5.54,3.84,3.79,3.79,0,0,0,0,.58l-3.18,3.17a4.13,4.13,0,0,0,1.63,1.21Zm6.76-6.12a1.64,1.64,0,0,1,0,2.32L19.49,10.8,18.33,9.64a1.64,1.64,0,0,1,0-2.32h0A1.64,1.64,0,0,1,20.65,7.32Z"/><path class="cls-1" d="M22.39,7.32a1.23,1.23,0,1,0,0-1.74h0A1.23,1.23,0,0,0,22.39,7.32Zm1.16-1.16a.41.41,0,1,1-.58,0h0A.41.41,0,0,1,23.55,6.16Z"/><path class="cls-1" d="M4.61,22.71a4.11,4.11,0,0,0,1.55.3h0a2.65,2.65,0,0,0,.21,1,2.7,2.7,0,0,0,.36.64l.58-.59a2.06,2.06,0,0,1,0-2.26l-.58-.59a2.91,2.91,0,0,0-.36.64c0,.1-.08.2-.11.3a3.24,3.24,0,0,1-2.14-.68L6.4,19.25s0,0,0,.05a4.3,4.3,0,0,0,.9,1.36l1.74,1.73.59-.58L7.9,20.07a3.27,3.27,0,0,1,0-4.64h0a3.28,3.28,0,0,1,3.72-.64,2,2,0,0,1-.36.74,2.46,2.46,0,0,0-2.79,4l1.74,1.74L12,19.49A2.44,2.44,0,0,0,12,16h0l0,0a2.87,2.87,0,0,0,0-3.43l-.58.58a2,2,0,0,1,.3.77,4.1,4.1,0,0,0-5.53,3.84,3.69,3.69,0,0,0,0,.58L3,21.51a4,4,0,0,0,.28.3A4,4,0,0,0,4.61,22.71Zm6.76-6.12a1.64,1.64,0,0,1,0,2.32l-1.16,1.16L9.06,18.91a1.62,1.62,0,0,1,0-2.32h0A1.63,1.63,0,0,1,11.37,16.59Z"/><path class="cls-1" d="M13.11,16.59a1.23,1.23,0,1,0,0-1.74h0A1.23,1.23,0,0,0,13.11,16.59Zm1.16-1.16a.41.41,0,1,1-.58,0h0A.41.41,0,0,1,14.27,15.43Z"/><path class="cls-1" d="M18.76,15.53a4.27,4.27,0,0,0,.88,1.3l0,0a2.89,2.89,0,0,0-.59.88,3,3,0,0,0-.19.71h.83a2.06,2.06,0,0,1,1.6-1.6V16a2.88,2.88,0,0,0-.71.2,2.44,2.44,0,0,0-.28.14,3.33,3.33,0,0,1-1-2h3.19s0,0,0,.05A3.77,3.77,0,0,0,22.13,16v2.46H23V16a3.28,3.28,0,0,1,3.28-3.28h0a3.28,3.28,0,0,1,3.09,2.18,2,2,0,0,1-.78.26,2.46,2.46,0,0,0-4.77.84v2.46h2.46A2.46,2.46,0,0,0,28.69,16h0v0a2.86,2.86,0,0,0,2.43-2.43h-.83a2.15,2.15,0,0,1-.33.76,4.11,4.11,0,0,0-6.63-1.2,5.2,5.2,0,0,0-.38.44H18.46c0,.14,0,.28,0,.41A4.19,4.19,0,0,0,18.76,15.53Zm9.11.45a1.64,1.64,0,0,1-1.64,1.64H24.59V16a1.63,1.63,0,0,1,1.64-1.64h0A1.64,1.64,0,0,1,27.87,16Z"/><path class="cls-1" d="M29.1,17.21A1.23,1.23,0,1,0,30.33,16h0A1.23,1.23,0,0,0,29.1,17.21Zm1.64,0a.41.41,0,1,1-.41-.41h0A.41.41,0,0,1,30.74,17.21Z"/><path class="cls-1" d="M15.53,31.24a4.27,4.27,0,0,0,1.3-.88l0,0a2.89,2.89,0,0,0,.88.59,3,3,0,0,0,.71.19v-.83a2.06,2.06,0,0,1-1.6-1.6H16a2.88,2.88,0,0,0,.2.71,2.44,2.44,0,0,0,.14.28,3.33,3.33,0,0,1-2,1V27.53l.05,0a3.77,3.77,0,0,0,1.59.32h2.46v-.82H16a3.28,3.28,0,0,1-3.28-3.28h0a3.28,3.28,0,0,1,2.18-3.09,2,2,0,0,1,.26.78A2.46,2.46,0,0,0,16,26.23h2.46V23.77A2.46,2.46,0,0,0,16,21.31h0a2.86,2.86,0,0,0-2.43-2.43v.83a2.15,2.15,0,0,1,.76.33,4.11,4.11,0,0,0-1.2,6.63,5.2,5.2,0,0,0,.44.38v4.49l.41,0A4.19,4.19,0,0,0,15.53,31.24ZM16,22.13a1.64,1.64,0,0,1,1.64,1.64v1.64H16a1.63,1.63,0,0,1-1.64-1.64h0A1.64,1.64,0,0,1,16,22.13Z"/><path class="cls-1" d="M17.21,20.9A1.23,1.23,0,1,0,16,19.67h0A1.23,1.23,0,0,0,17.21,20.9Zm0-1.64a.41.41,0,1,1-.41.41h0A.41.41,0,0,1,17.21,19.26Z"/><path class="cls-1" d="M34.47,18.76a4.27,4.27,0,0,0-1.3.88l0,0a2.89,2.89,0,0,0-.88-.59,3,3,0,0,0-.71-.19v.83a2.06,2.06,0,0,1,1.6,1.6H34a2.88,2.88,0,0,0-.2-.71,2.44,2.44,0,0,0-.14-.28,3.33,3.33,0,0,1,2-1v3.19l0,0A3.77,3.77,0,0,0,34,22.13H31.56V23H34a3.28,3.28,0,0,1,3.28,3.28h0a3.28,3.28,0,0,1-2.18,3.09,2,2,0,0,1-.26-.78A2.46,2.46,0,0,0,34,23.77H31.56v2.46A2.46,2.46,0,0,0,34,28.69h0a2.86,2.86,0,0,0,2.43,2.43v-.83a2.15,2.15,0,0,1-.76-.33,4.11,4.11,0,0,0,1.2-6.63,5.2,5.2,0,0,0-.44-.38V18.46l-.41,0A4.19,4.19,0,0,0,34.47,18.76ZM34,27.87a1.64,1.64,0,0,1-1.64-1.64V24.59H34a1.63,1.63,0,0,1,1.64,1.64h0A1.64,1.64,0,0,1,34,27.87Z"/><path class="cls-1" d="M32.79,29.1A1.23,1.23,0,1,0,34,30.33h0A1.23,1.23,0,0,0,32.79,29.1Zm0,1.64a.41.41,0,1,1,.41-.41h0A.41.41,0,0,1,32.79,30.74Z"/><path class="cls-1" d="M13.44,36.11a4.06,4.06,0,0,0,.3-1.54v0a3.11,3.11,0,0,0,1-.21,3,3,0,0,0,.63-.36l-.58-.59a2.06,2.06,0,0,1-2.26,0L12,34a3.09,3.09,0,0,0,.64.36l.3.1a3.28,3.28,0,0,1-.69,2.15L10,34.33l0,0a4.14,4.14,0,0,0,1.36-.9l1.74-1.74-.58-.58L10.8,32.83a3.28,3.28,0,0,1-4.64,0h0a3.3,3.3,0,0,1-.65-3.73,2.21,2.21,0,0,1,.74.36,2.46,2.46,0,0,0,4,2.79L12,30.51l-1.74-1.74a2.46,2.46,0,0,0-3.48,0h0l0,0a2.88,2.88,0,0,0-3.44,0l.59.59a1.93,1.93,0,0,1,.77-.31,4.1,4.1,0,0,0,3.84,5.54,3.79,3.79,0,0,0,.58,0l3.17,3.18.31-.28A4.15,4.15,0,0,0,13.44,36.11ZM7.32,29.35a1.64,1.64,0,0,1,2.32,0l1.16,1.16L9.64,31.67a1.64,1.64,0,0,1-2.32,0h0A1.64,1.64,0,0,1,7.32,29.35Z"/><path class="cls-1" d="M7.32,27.61a1.23,1.23,0,1,0-1.74,0h0A1.23,1.23,0,0,0,7.32,27.61ZM6.16,26.45a.41.41,0,1,1,0,.58h0A.41.41,0,0,1,6.16,26.45Z"/><path class="cls-1" d="M22.71,45.39a4.11,4.11,0,0,0,.3-1.55v0a2.65,2.65,0,0,0,1-.21,2.7,2.7,0,0,0,.64-.36l-.59-.58a2.06,2.06,0,0,1-2.26,0l-.59.58a2.91,2.91,0,0,0,.64.36l.3.11a3.24,3.24,0,0,1-.68,2.14L19.25,43.6h.05a4.3,4.3,0,0,0,1.36-.9L22.39,41l-.58-.59L20.07,42.1a3.27,3.27,0,0,1-4.64,0h0a3.28,3.28,0,0,1-.64-3.72,2,2,0,0,1,.74.36,2.46,2.46,0,0,0,4,2.79l1.74-1.74-1.74-1.74A2.44,2.44,0,0,0,16,38h0l0,0a2.87,2.87,0,0,0-3.43,0l.58.58a2,2,0,0,1,.77-.3,4.1,4.1,0,0,0,3.84,5.53,3.69,3.69,0,0,0,.58,0L21.51,47a4,4,0,0,0,.3-.28A4,4,0,0,0,22.71,45.39Zm-6.12-6.76a1.64,1.64,0,0,1,2.32,0l1.16,1.16-1.16,1.15a1.62,1.62,0,0,1-2.32,0h0A1.63,1.63,0,0,1,16.59,38.63Z"/><path class="cls-1" d="M16.59,36.89a1.23,1.23,0,1,0-1.74,0h0A1.23,1.23,0,0,0,16.59,36.89Zm-1.16-1.16a.41.41,0,1,1,0,.58h0A.41.41,0,0,1,15.43,35.73Z"/><path class="cls-1" d="M36.56,13.89a4.06,4.06,0,0,0-.3,1.54v0a3.11,3.11,0,0,0-1,.21,3,3,0,0,0-.63.36l.58.59a2.06,2.06,0,0,1,2.26,0L38,16a3.09,3.09,0,0,0-.64-.36l-.3-.1a3.28,3.28,0,0,1,.69-2.15L40,15.67l0,0a4.14,4.14,0,0,0-1.36.9l-1.74,1.74.58.58,1.74-1.74a3.28,3.28,0,0,1,4.64,0h0a3.3,3.3,0,0,1,.65,3.73,2.21,2.21,0,0,1-.74-.36,2.46,2.46,0,0,0-4-2.79L38,19.49l1.74,1.74a2.46,2.46,0,0,0,3.48,0h0l0,0a2.88,2.88,0,0,0,3.44,0l-.59-.59a1.93,1.93,0,0,1-.77.31,4.1,4.1,0,0,0-3.84-5.54,3.79,3.79,0,0,0-.58,0l-3.17-3.18-.31.28A4.15,4.15,0,0,0,36.56,13.89Zm6.12,6.76a1.64,1.64,0,0,1-2.32,0L39.2,19.49l1.16-1.16a1.64,1.64,0,0,1,2.32,0h0A1.64,1.64,0,0,1,42.68,20.65Z"/><path class="cls-1" d="M42.68,22.39a1.23,1.23,0,1,0,1.74,0h0A1.23,1.23,0,0,0,42.68,22.39Zm1.16,1.16a.41.41,0,1,1,0-.58h0A.41.41,0,0,1,43.84,23.55Z"/><path class="cls-1" d="M27.29,4.61A4.11,4.11,0,0,0,27,6.16v0a2.65,2.65,0,0,0-1,.21,2.7,2.7,0,0,0-.64.36l.59.58a2.06,2.06,0,0,1,2.26,0l.59-.58a2.91,2.91,0,0,0-.64-.36l-.3-.11a3.24,3.24,0,0,1,.68-2.14L30.75,6.4H30.7a4.3,4.3,0,0,0-1.36.9L27.61,9.05l.58.59L29.93,7.9a3.27,3.27,0,0,1,4.64,0h0a3.28,3.28,0,0,1,.64,3.72,2,2,0,0,1-.74-.36,2.46,2.46,0,0,0-4-2.79l-1.74,1.74L30.51,12A2.44,2.44,0,0,0,34,12h0l0,0a2.87,2.87,0,0,0,3.43,0l-.58-.58a2,2,0,0,1-.77.3,4.1,4.1,0,0,0-3.84-5.53,3.69,3.69,0,0,0-.58,0L28.49,3a4,4,0,0,0-.3.28A4,4,0,0,0,27.29,4.61Zm6.12,6.76a1.64,1.64,0,0,1-2.32,0l-1.16-1.16,1.16-1.15a1.62,1.62,0,0,1,2.32,0h0A1.63,1.63,0,0,1,33.41,11.37Z"/><path class="cls-1" d="M33.41,13.11a1.23,1.23,0,1,0,1.74,0h0A1.23,1.23,0,0,0,33.41,13.11Zm1.16,1.16a.41.41,0,1,1,0-.58h0A.41.41,0,0,1,34.57,14.27Z"/><path class="cls-1" d="M10.6,38.88a4.06,4.06,0,0,0-1.54-.3H9a3.11,3.11,0,0,0-.21-1,3.38,3.38,0,0,0-.36-.64l-.59.59a2.06,2.06,0,0,1,0,2.26l.59.59a2.7,2.7,0,0,0,.36-.64c0-.1.07-.2.1-.3a3.26,3.26,0,0,1,2.15.69L8.82,42.34l0,0a4.14,4.14,0,0,0-.9-1.36L6.16,39.2l-.58.58,1.74,1.74a3.28,3.28,0,0,1,0,4.64h0a3.3,3.3,0,0,1-3.73.65A2.21,2.21,0,0,1,4,46.07a2.46,2.46,0,0,0,2.79-4L5,40.36,3.26,42.1a2.46,2.46,0,0,0,0,3.48h0l0,0a2.88,2.88,0,0,0,0,3.44l.59-.59a1.93,1.93,0,0,1-.31-.77A4.1,4.1,0,0,0,9.1,43.84a5.65,5.65,0,0,0,0-.58l3.17-3.17a4.12,4.12,0,0,0-.28-.31A4,4,0,0,0,10.6,38.88ZM3.84,45a1.64,1.64,0,0,1,0-2.32L5,41.52l1.16,1.16a1.64,1.64,0,0,1,0,2.32h0A1.64,1.64,0,0,1,3.84,45Z"/><path class="cls-1" d="M2.1,45a1.23,1.23,0,1,0,0,1.74h0A1.23,1.23,0,0,0,2.1,45ZM.94,46.16a.41.41,0,1,1,.58,0h0A.41.41,0,0,1,.94,46.16Z"/><path class="cls-1" d="M39.4,11.12a4.06,4.06,0,0,0,1.54.3h0a3.11,3.11,0,0,0,.21,1,3.38,3.38,0,0,0,.36.64l.59-.59a2.06,2.06,0,0,1,0-2.26l-.59-.59a2.7,2.7,0,0,0-.36.64c0,.1-.07.2-.1.3a3.26,3.26,0,0,1-2.15-.69l2.25-2.25s0,0,0,0a4.14,4.14,0,0,0,.9,1.36l1.74,1.74.58-.58L42.68,8.48a3.28,3.28,0,0,1,0-4.64h0a3.3,3.3,0,0,1,3.73-.65,2.21,2.21,0,0,1-.36.74,2.46,2.46,0,0,0-2.79,4L45,9.64,46.74,7.9a2.46,2.46,0,0,0,0-3.48h0l0,0a2.88,2.88,0,0,0,0-3.44l-.59.59a1.93,1.93,0,0,1,.31.77A4.1,4.1,0,0,0,40.9,6.16a5.65,5.65,0,0,0,0,.58L37.77,9.91a4.12,4.12,0,0,0,.28.31A4,4,0,0,0,39.4,11.12ZM46.16,5a1.64,1.64,0,0,1,0,2.32L45,8.48,43.84,7.32a1.64,1.64,0,0,1,0-2.32h0A1.64,1.64,0,0,1,46.16,5Z"/><path class="cls-1" d="M47.9,5a1.23,1.23,0,1,0,0-1.74h0A1.23,1.23,0,0,0,47.9,5Zm1.16-1.16a.41.41,0,1,1-.58,0h0A.41.41,0,0,1,49.06,3.84Z"/></svg>