<svg id="Layer_1" data-name="Layer 1" xmlns="http://www.w3.org/2000/svg" viewBox="0 0 1005.92 148.07"><defs><style>.cls-1{fill:#231f20;}</style></defs><title>kalamana-copy</title><path class="cls-1" d="M540,57.43H503.59A19.42,19.42,0,0,0,484,77.11v26c0,.51,0,1,.06,1.57a.77.77,0,0,0,.64.69,5.52,5.52,0,0,0,1,.09c2.18,0,4.38,0,6.56,0,1.57,0,1.72-.18,1.72-1.72,0-3.32,0-6.67,0-10V77.87c0-.67,0-1.33,0-2a9.17,9.17,0,0,1,7.24-8.3,24.61,24.61,0,0,1,5.56-.24c.63,0,.84.24.87.88,0,.48,0,.93,0,1.41v33.27c0,.52,0,1.06,0,1.57s.27.85.88.94c.33,0,.66.06,1,.06h6.12c1.85,0,2-.12,2-1.93V69.14c0-1.81,0-1.81,1.84-1.81h10.26c1.72,0,1.75.06,1.75,1.78v34c0,.51,0,1,0,1.57a.72.72,0,0,0,.7.75,5.49,5.49,0,0,0,1,.06h6.44a5.78,5.78,0,0,0,.72,0c.72-.09.94-.27,1-1,0-.48,0-.93,0-1.41.06-7.25.06-14.44.06-21.62V58.88C541.48,57.58,541.33,57.46,540,57.43Z"/><path class="cls-1" d="M356.66,57.49a7.45,7.45,0,0,0-1.15-.06c-5.83,0-11.62-.06-17.42,0A18.89,18.89,0,0,0,324.59,63,18.65,18.65,0,0,0,319,74.76a38,38,0,0,0-.18,4.13v23.67c0,.42,0,.88,0,1.33.06,1.33.21,1.54,1.63,1.54,2.23,0,4.47,0,6.7,0,1.54,0,1.69-.18,1.69-1.78V97.37c0-1.45.09-1.54,1.54-1.54h15.82c.91.06,1.09.21,1.15,1.09v6.43a9.07,9.07,0,0,0,.06,1.27.76.76,0,0,0,.75.72,8.09,8.09,0,0,0,.85.06h6.7c1.45-.06,1.6-.21,1.63-1.69V58.24A.76.76,0,0,0,356.66,57.49Zm-9.27,19.26V84.3c0,1.93,0,2-1.87,2H330.69c-.33,0-.66,0-1,0-.55,0-.76-.24-.82-.79a5.78,5.78,0,0,1,0-.72c0-2.75-.06-5.53,0-8.3A9,9,0,0,1,334,68.3a9.71,9.71,0,0,1,4.53-1c2.42,0,4.86,0,7.28,0,1.51,0,1.6.09,1.6,1.63Z"/><path class="cls-1" d="M464.31,59.87v-1.3c-.06-.93-.28-1.11-1.24-1.17h-.73c-5.76,0-11.5,0-17.27,0A19.25,19.25,0,0,0,425.9,74.64a43.16,43.16,0,0,0-.18,4.4v24a13.82,13.82,0,0,0,.06,1.57.76.76,0,0,0,.76.72,5.49,5.49,0,0,0,1,.06h6.59c1.44-.06,1.63-.21,1.63-1.69,0-2.14,0-4.29,0-6.43,0-1.36.12-1.48,1.44-1.48h15.55c1.42,0,1.51.09,1.54,1.57v6.13c0,1.75.15,1.87,1.87,1.87h6.28a5.86,5.86,0,0,0,.73,0c.84-.09,1.09-.3,1.15-1.15,0-.48,0-.93,0-1.42,0-7.06,0-14.19,0-21.31Zm-10,24.49a9.15,9.15,0,0,1-.09,1.27.61.61,0,0,1-.57.54,11.24,11.24,0,0,1-1.42.06H437c-1-.06-1.14-.18-1.2-1.15V76.39a9.31,9.31,0,0,1,6.64-8.7,11.77,11.77,0,0,1,3.23-.45h7c1.63,0,1.69.06,1.69,1.69V84.36Z"/><path class="cls-1" d="M599.75,59.84v-1.3c-.06-.87-.27-1.08-1.09-1.14a8,8,0,0,0-.85,0c-5.76,0-11.5,0-17.26,0A18.92,18.92,0,0,0,567,62.92a18.7,18.7,0,0,0-5.61,11.41,30.9,30.9,0,0,0-.22,3.84V103a13.65,13.65,0,0,0,.06,1.57.77.77,0,0,0,.76.73,4,4,0,0,0,.84.06c2.24,0,4.47,0,6.71,0,1.45,0,1.63-.18,1.63-1.69,0-2.14,0-4.29,0-6.43,0-1.36.12-1.48,1.45-1.48h15.54c1.42,0,1.51.09,1.54,1.57v6.13c0,1.75.15,1.87,1.88,1.87h6.28a5.78,5.78,0,0,0,.72,0c.85-.09,1.09-.3,1.15-1.15,0-.48,0-.93,0-1.42,0-7,0-14.16,0-21.31Zm-10,16.91V84.3c0,1.9,0,1.93-1.87,2H573c-.33,0-.67,0-1,0-.54-.06-.75-.27-.81-.82a3.63,3.63,0,0,1,0-.57c0-2.84,0-5.71,0-8.54A8.59,8.59,0,0,1,574,70a9.66,9.66,0,0,1,6.86-2.69c2.41,0,4.86,0,7.27,0,1.51,0,1.6.09,1.6,1.63C589.75,71.53,589.72,74.12,589.72,76.75Z"/><path class="cls-1" d="M714.24,57.43H697a18.63,18.63,0,0,0-7.25,1.42A19,19,0,0,0,678.22,72a17.35,17.35,0,0,0-.6,4.65c0,8.84,0,17.69,0,26.54a11.09,11.09,0,0,0,.06,1.42.73.73,0,0,0,.69.75,5.55,5.55,0,0,0,1,.09c2.14,0,4.28,0,6.43,0,1.57,0,1.66-.12,1.66-1.75V97.82c0-.39,0-.75,0-1.14.06-.55.27-.79.78-.82.33,0,.67,0,1,0h15.12c1.76,0,1.76,0,1.79,1.72v6.13c0,1.54.15,1.69,1.75,1.72,2.14,0,4.28,0,6.43,0a5.78,5.78,0,0,0,.72,0c.73-.09.91-.27.94-1,0-.42,0-.84,0-1.29V59.18C716,57.52,716,57.43,714.24,57.43Zm-8.06,19.2v7.7c0,.39,0,.75,0,1.14s-.25.7-.7.76-.75,0-1.15,0h-15c-.33,0-.67,0-1,0-.63-.06-.81-.24-.84-.91,0-.33,0-.66,0-1v-6c0-1,.09-2,.18-3a9.3,9.3,0,0,1,6.88-7.73,12.88,12.88,0,0,1,2.81-.36h7.28a7.86,7.86,0,0,1,.84,0,.68.68,0,0,1,.66.63,10.76,10.76,0,0,1,.07,1.15C706.21,71.59,706.18,74.12,706.18,76.63Z"/><path class="cls-1" d="M912.22,59.18c0-1.66-.09-1.75-1.81-1.75H893.14a18.58,18.58,0,0,0-7.24,1.42A19,19,0,0,0,874.39,72a17.06,17.06,0,0,0-.6,4.5v1c0,8.42,0,16.83,0,25.25v.45a10.24,10.24,0,0,0,.06,1.37.73.73,0,0,0,.69.76,5.72,5.72,0,0,0,1,.09H882c1,0,1.37,0,1.54-.45a3.82,3.82,0,0,0,.12-1.3V97.82c0-.39,0-.75,0-1.14.06-.55.27-.79.79-.82l.21,0h9.46c.35,0,.7,0,1-.08a19.23,19.23,0,0,0,17.06-19c0-1.64,0-3.29,0-4.93h0ZM896.89,85.34a8.93,8.93,0,0,1-4,.81h-5v.11h-2.4c-.33,0-.66,0-1,0a1.76,1.76,0,0,1-.4-.08c-.32-.11-.43-.33-.45-.83,0-.33,0-.66,0-1v-6c0-1,.09-2,.18-3a9.29,9.29,0,0,1,6.89-7.73,12.79,12.79,0,0,1,2.8-.36h7.28a7.86,7.86,0,0,1,.84,0,.68.68,0,0,1,.67.63c0,.37.06.76.06,1.15,0,2.51,0,5,0,7.55v2A9.12,9.12,0,0,1,896.89,85.34Z"/><path class="cls-1" d="M297.88,94.92a42.68,42.68,0,0,0-8.15-16.51c-.36-.45-.73-.91-1.06-1.36a.63.63,0,0,1,0-.78,2.42,2.42,0,0,1,.42-.55,42.78,42.78,0,0,0,6.62-10.78,36.59,36.59,0,0,0,2.11-6.37c.18-.84,0-1-.82-1.11h-7.57a8,8,0,0,0-.85,0,.94.94,0,0,0-.87.63c-.13.3-.22.64-.34.94-.57,1.36-1.05,2.78-1.75,4.07a32.91,32.91,0,0,1-13,13.68,3.58,3.58,0,0,1-1.78.81c-.57-.6-.27-1.35-.27-2,0-5.49,0-11,0-16.42,0-1.57-.18-1.75-1.72-1.75h-6.56a3.83,3.83,0,0,0-.57,0c-.78.06-1,.27-1.09,1,0,.46,0,.94,0,1.42v43.84c0,1.54.19,1.69,1.79,1.75h6.28c1.93,0,2,0,2-2V89.61a1.22,1.22,0,0,1,.9-1.3c.15-.06.34-.15.52-.21a44.25,44.25,0,0,0,7.57-3.95c1.24-.85,1.42-.82,2.33.36a35.09,35.09,0,0,1,3.5,5.37,31.79,31.79,0,0,1,3.68,13.8c.06,1.63.22,1.78,1.85,1.78h6.43a7.86,7.86,0,0,0,.84,0c.61-.06.82-.27.88-.91a7.23,7.23,0,0,0,0-1.14A50.48,50.48,0,0,0,297.88,94.92Z"/><path class="cls-1" d="M655.81,57.43c-5.67,0-11.32,0-17,0A19.32,19.32,0,0,0,620,71.92a17.41,17.41,0,0,0-.55,3.65c0,2.18,0,4.38,0,6.55v21.14c0,.48,0,.93.07,1.42a.61.61,0,0,0,.51.6,5.58,5.58,0,0,0,1,.12h7c1.06-.09,1.24-.27,1.3-1.3,0-.42,0-.84,0-1.3V77.26a12.46,12.46,0,0,1,.21-2.56,9.21,9.21,0,0,1,7.85-7.28,17.16,17.16,0,0,1,2.14-.18h7.43c.81.06,1,.24,1.06,1,0,.48,0,1,0,1.41V103c0,.49,0,1,0,1.42,0,.7.24.91,1,1a5.86,5.86,0,0,0,.73,0h6.7c1.24-.06,1.42-.24,1.45-1.42v-1.3c.06-7,.06-14.13.06-21.22V59.6C657.93,57.43,657.93,57.43,655.81,57.43Z"/><path class="cls-1" d="M404.39,95.41h-6.55c-2.14,0-4.29,0-6.43,0A4.49,4.49,0,0,1,387,91.09c0-.51,0-1.06,0-1.57V59.84c0-.48,0-.93,0-1.42,0-.78-.24-1-1.06-1h-7.27a4.09,4.09,0,0,0-.85.09.67.67,0,0,0-.57.57c0,.48-.06.94-.06,1.42V75.33c0,5.31,0,10.66,0,15.91a13.38,13.38,0,0,0,2.53,7.88,14.29,14.29,0,0,0,11.93,6.22c4.2.06,8.36,0,12.56,0a7.24,7.24,0,0,0,1.15-.09.78.78,0,0,0,.72-.76,4,4,0,0,0,.06-.84c0-2.17,0-4.38,0-6.55C406,95.62,405.84,95.47,404.39,95.41Z"/><path class="cls-1" d="M970.39,58c0-.54,0-.54-.55-.54H961.3c-.58,0-.58,0-.58.57V76.27a11.22,11.22,0,0,1-.24,2.44,9.55,9.55,0,0,1-18.87-2.08V57.94c0-.51,0-.51-.51-.51h-8.6c-.55,0-.55,0-.55.57V76.51c0,.51,0,1,.06,1.51a18.31,18.31,0,0,0,2.24,7.73,19.05,19.05,0,0,0,11.62,9.36.57.57,0,0,1,.45.63V105c0,.54,0,.54.55.54h8.63c.55,0,.55,0,.55-.57V95.68a.43.43,0,0,1,.36-.54,19,19,0,0,0,9.6-6.31,18.67,18.67,0,0,0,4.32-11.63c.06-3.14,0-6.25,0-9.39C970.36,64.52,970.36,61.23,970.39,58Z"/><path class="cls-1" d="M793.34,95.77h-13.8a11.8,11.8,0,0,1-1.47-.06,13.73,13.73,0,0,1-8.61-4,14,14,0,0,1-4.17-12.4,13.85,13.85,0,0,1,5.08-8.94,14.11,14.11,0,0,1,9.33-3.29h13.58c.61,0,.61,0,.61-.61v-8.6c0-.15,0-.3,0-.45-5.32,0-10.66,0-16,0-.84.12-1.72.18-2.56.33a23.37,23.37,0,0,0-11.26,5.22,24,24,0,0,0-7.37,10.75,23.22,23.22,0,0,0-1.24,6.58c0,.12,0,.24-.06.36v1.51a.71.71,0,0,1,.06.24,16.82,16.82,0,0,0,.21,2.48,24.13,24.13,0,0,0,12.5,17.78,22.71,22.71,0,0,0,10.45,2.78c5,.06,9.9,0,14.85,0,.37,0,.43-.12.43-.45V96.31C793.92,95.77,793.92,95.77,793.34,95.77Z"/><path class="cls-1" d="M829,66.11h.15a15.61,15.61,0,1,1-.15,0m0-9.85a26.12,26.12,0,1,0,.24,0Z"/><path class="cls-1" d="M220.4,77.63a58.75,58.75,0,0,0-12.69-18.82l-.3-.3a41.54,41.54,0,0,0,11.31-23h-12a29.65,29.65,0,0,1-23.1,23.09v12a41.1,41.1,0,0,0,10.22-2.84,40.54,40.54,0,0,0,4.08-2,47.28,47.28,0,0,1,14.94,29h-46l.28-.63a58.9,58.9,0,0,0,4.65-23.06V35.54H159.91V71.07a47.38,47.38,0,0,1-47.38,47.38h0A47.38,47.38,0,0,1,67.9,87a29.26,29.26,0,0,1,11.2-3.85,35.55,35.55,0,0,0,69-12.09V35.54H112.54A35.52,35.52,0,0,0,77,71.07c0,.14,0,.28,0,.42a41.43,41.43,0,0,0-35.13,35.12h12a29.66,29.66,0,0,1,4.72-11A59.21,59.21,0,0,0,154.41,113a60.16,60.16,0,0,0,5.51-6.34h64.85q.28-2.94.29-5.92A58.91,58.91,0,0,0,220.4,77.63ZM88.85,71.07a23.69,23.69,0,0,1,23.69-23.69h23.69V71.07a23.69,23.69,0,0,1-23.69,23.69h0A23.68,23.68,0,0,1,88.85,71.07Z"/><path class="cls-1" d="M71.07,53.3A17.77,17.77,0,1,0,53.3,71.07,17.79,17.79,0,0,0,71.07,53.3Zm-23.69,0a5.92,5.92,0,1,1,5.92,5.93A5.93,5.93,0,0,1,47.38,53.3Z"/></svg>