<?xml version="1.0" encoding="utf-8"?>
<!-- Generator: Adobe Illustrator 24.3.0, SVG Export Plug-In . SVG Version: 6.00 Build 0)  -->
<svg version="1.0" id="Layer_1" xmlns="http://www.w3.org/2000/svg" xmlns:xlink="http://www.w3.org/1999/xlink" x="0px" y="0px"
	 viewBox="0 0 51 49.4" style="enable-background:new 0 0 51 49.4;" xml:space="preserve">
<style type="text/css">
	.st0{fill:#F7B700;}
</style>
<g>
	<path class="st0" d="M25.7,0.1L25.5,0l-0.2,0.1C9.9,6.6,0,21.6,0,38.3v7.5h4v2.6H0v1h5v0h41v0h5v-1h-4v-2.6h4v-7.5
		C51,21.6,41.1,6.6,25.7,0.1z M4,38.3v6.5H1v-6.5c0-2.2,0.2-4.3,0.5-6.4l2.7,2.7C4.1,35.8,4,37,4,38.3z M4.4,33.3l-2.6-2.6
		c1.4-7.2,4.6-13.8,9.4-19.2l2.2,2.2C8.5,19.1,5.4,25.9,4.4,33.3z M14.5,44.8H5v-6.5c0-1,0-1.9,0.1-2.9L14.5,44.8z M8.3,37.3l5-5
		l5,5l-5,5L8.3,37.3z M14,42.9l5.7-5.7l-2.8-2.8l2.3-2.3l6.4,6.4l6.4-6.4l2.3,2.3l-2.8,2.8l5.7,5.7l-1.9,1.9H15.9L14,42.9z
		 M25.5,27.7l1-1l1.3,1.3l-2.3,2.3l-2.3-2.3l1.3-1.3L25.5,27.7z M27.2,26l1-1l-1-1l1.3-1.3l2.3,2.3l-2.3,2.3L27.2,26z M26.5,23.4
		l-1-1l-1,1l-1.3-1.3l2.3-2.3l2.3,2.3L26.5,23.4z M23.8,24.1l-1,1l1,1l-1.3,1.3l-2.3-2.3l2.3-2.3L23.8,24.1z M25.5,31.8l3-3l2.7,2.7
		l-5.7,5.7l-5.7-5.7l2.7-2.7L25.5,31.8z M29.2,28.1l3-3l-3-3l2.7-2.7l5.7,5.7l-5.7,5.7L29.2,28.1z M28.5,21.3l-3-3l-3,3l-2.7-2.7
		l5.7-5.7l5.7,5.7L28.5,21.3z M21.8,22.1l-3,3l3,3l-2.7,2.7l-5.7-5.7l5.7-5.7L21.8,22.1z M32.7,37.3l5-5l5,5l-5,5L32.7,37.3z
		 M37.7,30.9l-2.8,2.8l-2.3-2.3l6.4-6.4l-6.4-6.4l4.4-4.4c4.8,5.5,7.9,12.4,8.7,19.9l-2.4,2.4L37.7,30.9z M31.9,18l-6.4-6.4L19.1,18
		l-4.5-4.5c3-3.3,6.7-6,10.8-8c4.2,2,7.8,4.8,10.8,8L31.9,18z M18.4,18.7l-6.4,6.4l6.4,6.4l-2.3,2.3l-2.8-2.8l-5.7,5.7l-2.4-2.4
		c0.8-7.5,3.9-14.4,8.7-19.9L18.4,18.7z M5,48.4v-2.6h10.5l2.6,2.6H5z M19.5,48.4l-2.6-2.6h17.3l-2.6,2.6H19.5z M46,48.4H32.9
		l2.6-2.6H46V48.4z M46,44.8h-9.4l9.3-9.3c0.1,0.9,0.1,1.9,0.1,2.9V44.8z M50,38.3v6.5h-3v-6.5c0-1.3-0.1-2.5-0.2-3.8l2.7-2.7
		C49.8,34,50,36.1,50,38.3z M49.3,30.7l-2.6,2.6c-1-7.3-4.2-14.2-9-19.7l2.2-2.2C44.6,16.8,47.9,23.5,49.3,30.7z M37,12.9
		c-3.2-3.4-7-6.3-11.3-8.4l-0.2-0.1l-0.2,0.1C21,6.6,17.2,9.4,14,12.9l-2.1-2.1c3.8-4,8.4-7.4,13.6-9.6c5.3,2.3,9.9,5.6,13.6,9.6
		L37,12.9z"/>
	<path class="st0" d="M48.5,14.9c1,1.5,1.8,3.2,2.5,4.8v-7.4C50.3,13.3,49.4,14.2,48.5,14.9z"/>
	<path class="st0" d="M0,12.3v7.4c0.8-1.7,1.6-3.3,2.5-4.8C1.6,14.2,0.7,13.3,0,12.3z"/>
	
		<rect x="11.4" y="35.4" transform="matrix(0.7071 -0.7071 0.7071 0.7071 -22.4457 20.3179)" class="st0" width="3.8" height="3.8"/>
	
		<rect x="35.8" y="35.4" transform="matrix(0.7071 -0.7071 0.7071 0.7071 -15.3009 37.5664)" class="st0" width="3.8" height="3.8"/>
</g>
</svg>
