<?xml version="1.0" encoding="utf-8"?>
<!-- Generator: Adobe Illustrator 24.3.0, SVG Export Plug-In . SVG Version: 6.00 Build 0)  -->
<svg version="1.0" id="Layer_1" xmlns="http://www.w3.org/2000/svg" xmlns:xlink="http://www.w3.org/1999/xlink" x="0px" y="0px"
	 viewBox="0 0 51 49.4" style="enable-background:new 0 0 51 49.4;" xml:space="preserve">
<style type="text/css">
	.st0{fill:none;stroke:#F7B700;stroke-miterlimit:10;}
	.st1{fill:#F7B700;}
</style>
<path class="st0" d="M50.5,38.3v7h-50v-7c0-17,10.3-31.5,25-37.8C40.2,6.8,50.5,21.3,50.5,38.3z"/>
<path class="st0" d="M0,48.9h4.5V38.3c0-14.3,8.2-27.2,21-33.4c12.8,6.1,21,19.1,21,33.4v10.6H51"/>
<polyline class="st0" points="46.5,48.9 32.6,48.9 18.4,48.9 4.5,48.9 "/>
<rect x="16.5" y="16.1" transform="matrix(0.7071 0.7071 -0.7071 0.7071 25.1863 -10.6924)" class="st0" width="18" height="18"/>
<line class="st0" x1="16" y1="34.6" x2="40" y2="10.5"/>
<line class="st0" x1="11" y1="10.5" x2="35" y2="34.6"/>
<polyline class="st0" points="1.2,30.8 15.7,45.3 19.3,48.9 "/>
<polyline class="st0" points="31.7,48.9 35.3,45.3 49.8,30.8 "/>
<rect x="21.3" y="20.8" transform="matrix(0.7071 0.7071 -0.7071 0.7071 25.1863 -10.6924)" class="st0" width="8.5" height="8.5"/>
<rect x="9.3" y="33.2" transform="matrix(0.7071 0.7071 -0.7071 0.7071 30.2384 1.5046)" class="st0" width="8" height="8"/>
<rect x="33.7" y="33.2" transform="matr/Users/mad-iwad/Documents/assets/artwork/border-01.svgix(0.7071 0.7071 -0.7071 0.7071 37.3832 -15.7445)" class="st0" width="8" height="8"/>
<path class="st1" d="M51,12.3v7.4c-0.8-1.7-1.6-3.3-2.5-4.8C49.4,14.2,50.3,13.3,51,12.3z"/>
<path class="st1" d="M0,12.3l0,7.4c0.8-1.7,1.6-3.3,2.5-4.8C1.6,14.2,0.7,13.3,0,12.3z"/>
<rect x="23.6" y="23.2" transform="matrix(0.7071 0.7071 -0.7071 0.7071 25.1863 -10.6924)" class="st1" width="3.8" height="3.8"/>
<rect x="11.4" y="35.4" transform="matrix(0.7071 0.7071 -0.7071 0.7071 30.2384 1.5046)" class="st1" width="3.8" height="3.8"/>
<rect x="35.8" y="35.4" transform="matrix(0.7071 0.7071 -0.7071 0.7071 37.3832 -15.7445)" class="st1" width="3.8" height="3.8"/>
</svg>
