<?xml version="1.0" encoding="utf-8"?>
<!-- Generator: Adobe Illustrator 24.3.0, SVG Export Plug-In . SVG Version: 6.00 Build 0)  -->
<svg version="1.0" xmlns="http://www.w3.org/2000/svg" xmlns:xlink="http://www.w3.org/1999/xlink" x="0px" y="0px"
	 viewBox="0 0 251.7 1323.8" style="enable-background:new 0 0 251.7 1323.8;" xml:space="preserve">
<style type="text/css">
	.st0{display:none;}
	.st1{display:inline;}
	.st2{fill:#EAB000;}
	.st3{fill:#F7B700;}
	.st4{fill:none;stroke:#F7B700;stroke-width:10;stroke-miterlimit:10;}
	.st5{fill:none;stroke:#F7B700;stroke-width:10;stroke-linecap:round;stroke-miterlimit:10;}
	.st6{fill:none;stroke:#F7B700;stroke-width:10;stroke-linecap:round;stroke-miterlimit:10;stroke-dasharray:8.1714,15.3214;}
</style>
<g id="Layer_1" class="st0">
	<g id="wW4pxw.tif" class="st1">
		
			<image style="overflow:visible;" width="1140" height="996" id="Layer_0" xlink:href="F6D1838E4CBA7C91.png"  transform="matrix(1 0 0 1 -463.6321 24.1295)">
		</image>
	</g>
</g>
<g id="Layer_2">
	<path class="st2" d="M225.3,502.9H26.4c-2.4,0-4.4-2-4.4-4.4v0c0-2.4,2-4.4,4.4-4.4h198.9c2.4,0,4.4,2,4.4,4.4v0
		C229.7,500.9,227.7,502.9,225.3,502.9z"/>
	<g>
		<path class="st3" d="M230.9,523v13.2H20.8V523H230.9 M240.9,513H10.8v33.2h230.1V513L240.9,513z"/>
	</g>
	<path class="st2" d="M247.2,511.1H4.4c-2.4,0-4.4,2-4.4,4.4l0,0c0,2.4,2,4.4,4.4,4.4h242.8c2.4,0,4.4-2,4.4-4.4l0,0
		C251.7,513,249.7,511.1,247.2,511.1z"/>
	<path class="st2" d="M247.2,541.8H4.4c-2.4,0-4.4,2-4.4,4.4l0,0c0,2.4,2,4.4,4.4,4.4h242.8c2.4,0,4.4-2,4.4-4.4l0,0
		C251.7,543.7,249.7,541.8,247.2,541.8z"/>
	<path class="st2" d="M225.2,801.2H26.4c-2.4,0-4.4,2-4.4,4.4v0c0,2.4,2,4.4,4.4,4.4h198.8c2.4,0,4.4-2,4.4-4.4v0
		C229.6,803.2,227.7,801.2,225.2,801.2z"/>
	<g>
		<path class="st3" d="M230.9,767.9v13.2H20.8v-13.2H230.9 M240.9,757.9H10.8v33.2h230.1V757.9L240.9,757.9z"/>
	</g>
	<path class="st2" d="M247.2,793H4.4c-2.4,0-4.4-2-4.4-4.4l0,0c0-2.4,2-4.4,4.4-4.4h242.8c2.4,0,4.4,2,4.4,4.4l0,0
		C251.7,791.1,249.7,793,247.2,793z"/>
	<path class="st2" d="M247.2,762.3H4.4c-2.4,0-4.4-2-4.4-4.4l0,0c0-2.4,2-4.4,4.4-4.4h242.8c2.4,0,4.4,2,4.4,4.4l0,0
		C251.7,760.3,249.7,762.3,247.2,762.3z"/>
	<path class="st2" d="M147.7,924.1h-43.8c-2.4,0-4.4-2-4.4-4.4l0,0c0-2.4,2-4.4,4.4-4.4h43.8c2.4,0,4.4,2,4.4,4.4l0,0
		C152.1,922.2,150.2,924.1,147.7,924.1z"/>
	<path class="st2" d="M135.3,941.8h-19c-2.4,0-4.4-2-4.4-4.4l0,0c0-2.4,2-4.4,4.4-4.4h19c2.4,0,4.4,2,4.4,4.4l0,0
		C139.7,939.8,137.7,941.8,135.3,941.8z"/>
	<g>
		<rect x="22" y="541.8" class="st2" width="12.5" height="220.6"/>
		<rect x="87.1" y="541.8" class="st2" width="12.5" height="220.6"/>
		<rect x="152.1" y="541.8" class="st2" width="12.5" height="220.6"/>
		<rect x="217.2" y="541.8" class="st2" width="12.5" height="220.6"/>
	</g>
	<path class="st4" d="M213.3,809c0,21.8-8,41.7-21.2,57c-1.5,1.8-3.1,3.5-4.8,5.1c-0.4,0.4-0.9,0.9-1.3,1.3c-1,1-2.1,1.9-3.2,2.8
		c-1.8,1.6-3.6,3-5.5,4.4c-0.6,0.5-1.2,0.9-1.9,1.3c-3.8,2.6-7.7,4.9-11.9,6.9c-22.9,15.8-37.8,42.2-37.8,72c0-29.9-15-56.2-37.8-72
		c-4.2-2-8.2-4.3-11.9-6.9c-0.6-0.4-1.2-0.9-1.8-1.3c-1.9-1.4-3.8-2.8-5.5-4.4c-1.1-0.9-2.1-1.9-3.2-2.9c-0.4-0.4-0.9-0.8-1.3-1.3
		c-1.7-1.6-3.3-3.3-4.8-5.1c-13.2-15.3-21.2-35.3-21.2-57H213.3z"/>
	<circle class="st2" cx="125.8" cy="961.1" r="11.2"/>
	<path class="st2" d="M103.9,381h43.8c2.4,0,4.4,2,4.4,4.4v0c0,2.4-2,4.4-4.4,4.4h-43.8c-2.4,0-4.4-2-4.4-4.4v0
		C99.5,383,101.5,381,103.9,381z"/>
	<path class="st2" d="M116.3,363.4h19c2.4,0,4.4,2,4.4,4.4l0,0c0,2.4-2,4.4-4.4,4.4h-19c-2.4,0-4.4-2-4.4-4.4l0,0
		C111.9,365.3,113.9,363.4,116.3,363.4z"/>
	<path class="st4" d="M213.3,496.1h-175c0-22.1,8.2-42.2,21.7-57.6c1.5-1.8,3.1-3.5,4.8-5.1c0.3-0.3,0.5-0.5,0.8-0.8
		c1.2-1.2,2.5-2.3,3.7-3.3c1.8-1.5,3.7-3,5.6-4.4c0.4-0.3,0.8-0.6,1.2-0.9c3.8-2.6,7.7-4.9,11.9-6.9c22.9-15.8,37.8-42.2,37.8-72
		c0,29.9,15,56.2,37.8,72c4.2,2,8.2,4.3,12,6.9c0.4,0.3,0.8,0.6,1.2,0.9c1.9,1.4,3.8,2.8,5.6,4.4c1.3,1.1,2.5,2.2,3.7,3.3
		c0.3,0.2,0.5,0.5,0.8,0.8c1.7,1.6,3.3,3.3,4.8,5.1C205.2,453.9,213.3,474,213.3,496.1z"/>
	<circle class="st2" cx="125.8" cy="344" r="11.2"/>
	<g>
		<g>
			<line class="st5" x1="125.8" y1="983.7" x2="125.8" y2="987.7"/>
			<line class="st6" x1="125.8" y1="1003" x2="125.8" y2="1300.7"/>
			<line class="st5" x1="125.8" y1="1308.4" x2="125.8" y2="1312.4"/>
			<g>
				<path class="st3" d="M113.8,1311.8c0,6.6,5.4,12,12,12s12-5.4,12-12c0-6.6-5.4-12-12-12S113.8,1305.1,113.8,1311.8z"/>
			</g>
		</g>
	</g>
	<line class="st5" x1="125.8" y1="5" x2="125.8" y2="345.2"/>
	<polygon class="st2" points="61.5,579.5 65.7,588.2 75.3,589.6 68.4,596.3 70,605.8 61.5,601.3 52.9,605.8 54.6,596.3 47.7,589.6 
		57.2,588.2 	"/>
	<polygon class="st2" points="61.5,636.7 65.7,645.4 75.3,646.7 68.4,653.5 70,663 61.5,658.5 52.9,663 54.6,653.5 47.7,646.7 
		57.2,645.4 	"/>
	<polygon class="st2" points="61.5,693.9 65.7,702.5 75.3,703.9 68.4,710.6 70,720.2 61.5,715.7 52.9,720.2 54.6,710.6 47.7,703.9 
		57.2,702.5 	"/>
	<polygon class="st2" points="125.8,605.4 130.1,614.1 139.6,615.5 132.7,622.2 134.4,631.7 125.8,627.2 117.3,631.7 118.9,622.2 
		112,615.5 121.6,614.1 	"/>
	<polygon class="st2" points="125.8,672.6 130.1,681.2 139.6,682.6 132.7,689.4 134.4,698.9 125.8,694.4 117.3,698.9 118.9,689.4 
		112,682.6 121.6,681.2 	"/>
	<polygon class="st2" points="190.2,579.5 194.4,588.2 204,589.6 197.1,596.3 198.7,605.8 190.2,601.3 181.6,605.8 183.3,596.3 
		176.4,589.6 185.9,588.2 	"/>
	<polygon class="st2" points="190.2,636.7 194.4,645.4 204,646.7 197.1,653.5 198.7,663 190.2,658.5 181.6,663 183.3,653.5 
		176.4,646.7 185.9,645.4 	"/>
	<polygon class="st2" points="190.2,693.9 194.4,702.5 204,703.9 197.1,710.6 198.7,720.2 190.2,715.7 181.6,720.2 183.3,710.6 
		176.4,703.9 185.9,702.5 	"/>
	<rect x="38.3" y="496.1" class="st4" width="175" height="21.8"/>
	<rect x="38.3" y="786.4" class="st4" width="175" height="19.2"/>
	<g>
		<circle class="st2" cx="69.1" cy="468.6" r="11.1"/>
		<circle class="st2" cx="107" cy="468.6" r="11.1"/>
		<circle class="st2" cx="144.9" cy="468.6" r="11.1"/>
		<circle class="st2" cx="182.8" cy="468.6" r="11.1"/>
	</g>
	<g>
		<circle class="st2" cx="69.1" cy="835.5" r="11.1"/>
		<circle class="st2" cx="107" cy="835.5" r="11.1"/>
		<circle class="st2" cx="144.9" cy="835.5" r="11.1"/>
		<circle class="st2" cx="182.8" cy="835.5" r="11.1"/>
	</g>
	<path class="st2" d="M186.9,433.4l-3.9,3.6l-4.4-4.2l3.8-3.6c-1.8-1.5-3.7-3-5.6-4.4l-3.3,3.1l-9.5-9l-9.5,9l-9.5-9l-9.5,9l-9.5-9
		l-9.5,9l-9.5-9l-9.5,9l-9.5-9l-9.5,9l-3.3-3.1c-1.9,1.4-3.8,2.8-5.6,4.4l3.8,3.6l-4.4,4.2l-3.9-3.6c-1.7,1.6-3.3,3.3-4.8,5.1
		l8.7,8.2l9.5-9l9.5,9l9.5-9l9.5,9l9.5-9l9.5,9l9.5-9l9.5,9l9.5-9l9.5,9l9.5-9l9.5,9l8.7-8.2C190.1,436.7,188.5,435,186.9,433.4z
		 M87.7,437.1l-4.4-4.2l4.4-4.2l4.4,4.2L87.7,437.1z M106.8,437.1l-4.4-4.2l4.4-4.2l4.4,4.2L106.8,437.1z M125.8,437.1l-4.4-4.2
		l4.4-4.2l4.4,4.2L125.8,437.1z M144.9,437.1l-4.4-4.2l4.4-4.2l4.4,4.2L144.9,437.1z M164,437.1l-4.4-4.2l4.4-4.2l4.4,4.2L164,437.1
		z"/>
	<path class="st2" d="M183,857.4l-9.5,9l-9.5-9l-9.5,9l-9.5-9l-9.5,9l-9.5-9l-9.5,9l-9.5-9l-9.5,9l-9.5-9l-9.5,9l-9.5-9l-9.2,8.7
		c1.5,1.8,3.1,3.5,4.8,5.1l4.4-4.2l4.4,4.2l-4.4,4.1c1.8,1.5,3.6,3,5.5,4.4l3.9-3.7l9.5,9l9.5-9l9.5,9l9.5-9l9.5,9l9.5-9l9.5,9
		l9.5-9l9.5,9l9.5-9l3.9,3.7c1.9-1.4,3.8-2.8,5.5-4.4l-4.3-4.1l4.4-4.2l4.4,4.2c1.7-1.6,3.2-3.4,4.8-5.1L183,857.4z M87.7,875.4
		l-4.4-4.2l4.4-4.2l4.4,4.2L87.7,875.4z M106.8,875.4l-4.4-4.2l4.4-4.2l4.4,4.2L106.8,875.4z M125.8,875.4l-4.4-4.2l4.4-4.2l4.4,4.2
		L125.8,875.4z M144.9,875.4l-4.4-4.2l4.4-4.2l4.4,4.2L144.9,875.4z M164,875.4l-4.4-4.2l4.4-4.2l4.4,4.2L164,875.4z"/>
	<path class="st2" d="M221.3,550.6l-4.1,3.9l-5.4,5.1l-9.5-9l-9.5,9l-9.5-9l-9.5,9l-9.5-9l-9.5,9l-9.5-9l-9.5,9l-9.5-9l-9.5,9
		l-9.5-9l-9.5,9l-9.5-9l-9.5,9l-9.5-9l-9.5,9l-9.5-9l-9.5,9l-5.8-5.4l-3.8-3.6l-8.7,8.2V570l8.7,8.2l3.8-3.6l5.8-5.4l9.5,9l9.5-9
		l9.5,9l9.5-9l9.5,9l9.5-9l9.5,9l9.5-9l9.5,9l9.5-9l9.5,9l9.5-9l9.5,9l9.5-9l9.5,9l9.5-9l9.5,9l9.5-9l5.4,5.1l4.1,3.9l8.4-7.9v-11.8
		L221.3,550.6z M34.5,565l-3.8,3.6l-4.4-4.2l4.4-4.2l3.8,3.6l0.7,0.6L34.5,565z M49.8,568.6l-4.4-4.2l4.4-4.2l4.4,4.2L49.8,568.6z
		 M68.8,568.6l-4.4-4.2l4.4-4.2l4.4,4.2L68.8,568.6z M87.9,568.6l-4.4-4.2l4.4-4.2l4.4,4.2L87.9,568.6z M106.9,568.6l-4.4-4.2
		l4.4-4.2l4.4,4.2L106.9,568.6z M126,568.6l-4.4-4.2l4.4-4.2l4.4,4.2L126,568.6z M145.1,568.6l-4.4-4.2l4.4-4.2l4.4,4.2L145.1,568.6
		z M164.1,568.6l-4.4-4.2l4.4-4.2l4.4,4.2L164.1,568.6z M183.2,568.6l-4.4-4.2l4.4-4.2l4.4,4.2L183.2,568.6z M202.2,568.6l-4.4-4.2
		l4.4-4.2l4.4,4.2L202.2,568.6z M221.3,568.6l-4.1-3.9l-0.3-0.3l0.3-0.3l4.1-3.9l4.4,4.2L221.3,568.6z"/>
	<path class="st2" d="M221.3,725.9l-4.1,3.9l-5.4,5.1l-9.5-9l-9.5,9l-9.5-9l-9.5,9l-9.5-9l-9.5,9l-9.5-9l-9.5,9l-9.5-9l-9.5,9
		l-9.5-9l-9.5,9l-9.5-9l-9.5,9l-9.5-9l-9.5,9l-9.5-9l-9.5,9l-5.8-5.4l-3.8-3.6l-8.7,8.2v11.2l8.7,8.2l3.8-3.6l5.8-5.4l9.5,9l9.5-9
		l9.5,9l9.5-9l9.5,9l9.5-9l9.5,9l9.5-9l9.5,9l9.5-9l9.5,9l9.5-9l9.5,9l9.5-9l9.5,9l9.5-9l9.5,9l9.5-9l5.4,5.1l4.1,3.9l8.4-7.9v-11.8
		L221.3,725.9z M34.5,740.3l-3.8,3.6l-4.4-4.2l4.4-4.2l3.8,3.6l0.7,0.6L34.5,740.3z M49.8,743.9l-4.4-4.2l4.4-4.2l4.4,4.2
		L49.8,743.9z M68.8,743.9l-4.4-4.2l4.4-4.2l4.4,4.2L68.8,743.9z M87.9,743.9l-4.4-4.2l4.4-4.2l4.4,4.2L87.9,743.9z M106.9,743.9
		l-4.4-4.2l4.4-4.2l4.4,4.2L106.9,743.9z M126,743.9l-4.4-4.2l4.4-4.2l4.4,4.2L126,743.9z M145.1,743.9l-4.4-4.2l4.4-4.2l4.4,4.2
		L145.1,743.9z M164.1,743.9l-4.4-4.2l4.4-4.2l4.4,4.2L164.1,743.9z M183.2,743.9l-4.4-4.2l4.4-4.2l4.4,4.2L183.2,743.9z
		 M202.2,743.9l-4.4-4.2l4.4-4.2l4.4,4.2L202.2,743.9z M221.3,743.9l-4.1-3.9l-0.3-0.3l0.3-0.3l4.1-3.9l4.4,4.2L221.3,743.9z"/>
</g>
</svg>
