<?xml version="1.0" encoding="utf-8"?>
<!-- Generator: Adobe Illustrator 24.3.0, SVG Export Plug-In . SVG Version: 6.00 Build 0)  -->
<svg version="1.0" id="Layer_1" xmlns="http://www.w3.org/2000/svg" xmlns:xlink="http://www.w3.org/1999/xlink" x="0px" y="0px"
	 viewBox="0 0 48.8 48.8" style="enable-background:new 0 0 48.8 48.8;" xml:space="preserve">
<style type="text/css">
	.st0{fill:none;stroke:#000000;stroke-width:2;stroke-miterlimit:10;}
</style>
<path class="st0" d="M42.1,31.7l6.3-6.3c0.5-0.5,0.5-1.4,0-2l-6.3-6.3v-9c0-0.8-0.6-1.4-1.4-1.4h-9l-6.3-6.3c-0.5-0.5-1.4-0.5-2,0
	l-6.3,6.3h-9c-0.8,0-1.4,0.6-1.4,1.4v9l-6.3,6.3c-0.5,0.5-0.5,1.4,0,2l6.3,6.3v9c0,0.8,0.6,1.4,1.4,1.4h9l6.3,6.3
	c0.5,0.5,1.4,0.5,2,0l6.3-6.3h9c0.8,0,1.4-0.6,1.4-1.4V31.7z"/>
<path d="M34.6,23.3l-2.2-2.2V18c0-0.9-0.7-1.6-1.6-1.6h-3.1l-2.2-2.2c-0.6-0.6-1.6-0.6-2.2,0l-2.2,2.2H18c-0.9,0-1.6,0.7-1.6,1.6
	v3.1l-2.2,2.2c-0.6,0.6-0.6,1.6,0,2.2l2.2,2.2v3.1c0,0.9,0.7,1.6,1.6,1.6h3.1l2.2,2.2c0.6,0.6,1.6,0.6,2.2,0l2.2-2.2h3.1
	c0.9,0,1.6-0.7,1.6-1.6v-3.1l2.2-2.2C35.2,24.9,35.2,23.9,34.6,23.3z M30.3,26.9v3.4h-3.4l-2.5,2.4L22,30.3h-3.4v-3.4l-2.5-2.5
	l2.5-2.4v-3.4H22l2.4-2.5l2.5,2.5h3.4V22l2.4,2.4L30.3,26.9z"/>
</svg>
