<?xml version="1.0" encoding="utf-8"?>
<!-- Generator: Adobe Illustrator 24.3.0, SVG Export Plug-In . SVG Version: 6.00 Build 0)  -->
<svg version="1.0" id="Layer_1" xmlns="http://www.w3.org/2000/svg" xmlns:xlink="http://www.w3.org/1999/xlink" x="0px" y="0px"
	 viewBox="0 0 49.5 60" style="enable-background:new 0 0 49.5 60;" xml:space="preserve">
<style type="text/css">
	.st0{fill:#6B4423;}
</style>
<g>
	<path class="st0" d="M25.3,22.1l-0.5-0.3l-0.5,0.3C14,28,7.5,38.4,6.9,50.2l-0.1,1.1h35.9l-0.1-1.1C41.9,38.4,35.4,28,25.3,22.1z
		 M15.5,37.7l-2.1-2.1c0.6-1.1,1.3-2.1,2.1-3.1h2.2v3.1L15.5,37.7z M17.7,37v2.9l-1.4-1.4L17.7,37z M14.8,38.4L10.2,43
		c0.7-2.3,1.6-4.5,2.7-6.5L14.8,38.4z M15.5,39.2l2.2,2.2v3.1h-7.4L15.5,39.2z M27.2,44.4h-5l-3.5-3.5v-5l3.5-3.5h5l3.5,3.5v5
		L27.2,44.4z M30.7,42.4v2h-2L30.7,42.4z M26.2,45.5l-1.4,1.4l-1.4-1.4H26.2z M20.8,44.4h-2v-2L20.8,44.4z M18.8,34.5v-2h2
		L18.8,34.5z M28.7,32.5h2v2L28.7,32.5z M27.6,31.4l-2.2-2.2l2.7-2.7c0.9,0.7,1.8,1.5,2.6,2.2v2.6h-3.1V31.4z M26.2,31.4h-2.9
		l1.4-1.4L26.2,31.4z M21.8,31.4h-3.1v-2.6c0.8-0.8,1.7-1.5,2.6-2.2l2.7,2.7L21.8,31.4z M18.8,45.5h3.1l2.2,2.2l-1.6,1.6h-3.7V45.5z
		 M24.7,48.4l0.8,0.8h-1.7L24.7,48.4z M25.5,47.6l2.2-2.2h3.1v3.7H27L25.5,47.6z M31.8,37l1.4,1.4l-1.4,1.4
		C31.8,39.8,31.8,37,31.8,37z M31.8,41.4l2.2-2.2l5.2,5.2h-7.4C31.8,44.4,31.8,41.4,31.8,41.4z M34.7,38.4l1.9-1.9
		c1.1,2.1,2,4.2,2.7,6.5L34.7,38.4z M33.9,37.7l-2.2-2.2v-3.1h2.2c0.8,1,1.5,2,2.1,3.1L33.9,37.7z M31.8,31.4v-1.5
		c0.5,0.5,0.9,1,1.4,1.5H31.8z M24.7,24.2c0.9,0.5,1.7,1.1,2.6,1.7l-2.6,2.6l-2.6-2.6C23,25.3,23.8,24.8,24.7,24.2z M17.7,29.9v1.5
		h-1.4C16.8,30.9,17.2,30.4,17.7,29.9z M9.6,45.5h8.1v3.7H9C9.1,47.9,9.3,46.7,9.6,45.5z M31.8,49.2v-3.7h8.1
		c0.3,1.2,0.4,2.5,0.6,3.7H31.8z"/>
	<path class="st0" d="M25,19.2l-0.2-0.1l-0.2,0.1c-12.4,6.4-20.1,19-20.1,33v1.5h40.8v-1.5C45.1,38.2,37.4,25.6,25,19.2z M44.1,52.7
		H5.4v-0.5c0-13.5,7.4-25.7,19.3-32C36.6,26.4,44,38.7,44,52.2L44.1,52.7L44.1,52.7z"/>
	<path class="st0" d="M24.7,11c0.7,0,1.3-0.6,1.3-1.3s-0.6-1.3-1.3-1.3S23.4,9,23.4,9.7S24,11,24.7,11z"/>
	<path class="st0" d="M24.7,7.7c0.6,0,1.1-0.5,1.1-1.1s-0.5-1.1-1.1-1.1s-1,0.5-1,1.1S24.1,7.7,24.7,7.7z"/>
	<path class="st0" d="M24.7,4.4c0.4,0,0.8-0.4,0.8-0.8s-0.4-0.8-0.8-0.8s-0.8,0.4-0.8,0.8S24.3,4.4,24.7,4.4z"/>
	<circle class="st0" cx="24.7" cy="0.5" r="0.5"/>
	<path class="st0" d="M49.5,43.6c0-0.1-0.1-0.3-0.1-0.4v-1.1v-2.9c-3.6-11.4-11.8-21.1-23.1-26.3v-0.1c0-0.9-0.7-1.6-1.6-1.6
		s-1.6,0.7-1.6,1.6v0.1c-11.2,5.2-19.5,14.8-23,26.3v2.9v1.1c0,0.1-0.1,0.3-0.1,0.4l0.1-0.1L1.6,45l-1.5,1.5V48l1.1,1.1
		c0,0.3,0,0.6,0,0.9l-1,1v1.5l1,1v1.1l-1,1V57l1.5,1.5L1.1,59h-1v1h49.3v-1h-1.1l-0.4-0.4l1.5-1.5v-1.5l-1-1v-1.1l1-1V51l-1-1
		c0-0.3,0-0.6,0-0.9l1.1-1.1v-1.5L48,45L49.5,43.6L49.5,43.6z M3,57l-0.7,0.7L1.6,57H3z M7.5,58.5L9,57h0.1l1.5,1.5L10.1,59H8
		L7.5,58.5z M6.8,57.8L6.1,57h1.5L6.8,57.8z M10.6,57H12l-0.7,0.7L10.6,57z M12,58.5l1.5-1.5h0.1l1.5,1.5L14.6,59h-2.1L12,58.5z
		 M15,57h1.5l-0.7,0.7L15,57z M16.5,58.5L18,57l0,0l1.5,1.5L19.1,59H17L16.5,58.5z M19.5,57H21l-0.7,0.7L19.5,57z M21,58.5l1.5-1.5
		h0.1l1.5,1.5L23.5,59h-2.1L21,58.5z M24,57h1.5l-0.7,0.7L24,57z M25.5,58.5L27,57l0,0l1.5,1.5L28,59h-2.1L25.5,58.5z M28.5,57h1.4
		l-0.7,0.7L28.5,57z M29.9,58.5l1.5-1.5h0.1l1.5,1.5L32.5,59h-2.1L29.9,58.5z M33,57h1.4l-0.7,0.7L33,57z M34.4,58.5l1.5-1.5H36
		l1.5,1.5L37,59h-2.1L34.4,58.5z M37.4,57h1.4l-0.7,0.7L37.4,57z M38.9,58.5l1.5-1.5h0.1l1.5,1.5L41.5,59h-2.1L38.9,58.5z M41.9,57
		h1.5l-0.7,0.7L41.9,57z M47.9,57l-0.7,0.7L46.4,57H47.9z M47.4,52.2V56H2.1v-3.8C2.1,37,11,23,24.7,16.5C38.5,23,47.4,37,47.4,52.2
		z M23.2,15.9l1.5-1.5l1.5,1.5L26.1,16c-0.4-0.2-0.8-0.4-1.2-0.6l-0.2-0.1l-0.2,0.1c-0.4,0.2-0.8,0.4-1.2,0.6L23.2,15.9z M29.9,18.2
		l1.3-1.3c0.3,0.2,0.7,0.4,1,0.7l0.7,0.7l-1.3,1.3c-0.5-0.4-1-0.7-1.5-1.1L29.9,18.2z M44.5,35l0.4-0.4l1.5,1.5l-1,1
		C45.2,36.4,44.9,35.7,44.5,35z M35.2,20.4l-1,1c-0.5-0.5-1.1-0.9-1.6-1.3l1.2-1.2L35.2,20.4z M35.9,21.2l1.5,1.5l-0.9,0.9
		c-0.5-0.5-1-1-1.5-1.5L35.9,21.2z M38.2,23.4l1.5,1.5l-1,1c-0.5-0.5-0.9-1.1-1.4-1.6L38.2,23.4z M40.4,25.6l1.5,1.5l-1.3,1.3
		c-0.4-0.6-0.9-1.1-1.3-1.7L40.4,25.6z M44,34c-0.1-0.2-0.2-0.3-0.2-0.5l0.4,0.4L44,34z M44.9,33.1l-1.5-1.5l1-1
		c0.4,0.6,0.7,1.3,1.1,1.9L44.9,33.1z M43.9,29.7l-1.2,1.2l-1-1c-0.1-0.2-0.3-0.4-0.4-0.6l1.4-1.4l0.1,0.1
		C43.1,28.5,43.5,29.1,43.9,29.7z M4,37.1l-1-1l1.5-1.5L4.9,35C4.6,35.7,4.3,36.4,4,37.1z M5.4,34L5.4,34l0.3-0.5
		C5.6,33.7,5.5,33.8,5.4,34z M8.8,28.4l-1.3-1.3L9,25.6l1.1,1.1C9.7,27.3,9.2,27.8,8.8,28.4z M10.8,25.9l-1-1l1.5-1.5l0.9,0.9
		C11.7,24.8,11.2,25.4,10.8,25.9z M12.9,23.6L12,22.7l1.5-1.5l1,1C14,22.6,13.4,23.1,12.9,23.6z M15.3,21.4l-1-1l1.5-1.5l1.2,1.2
		C16.4,20.5,15.8,21,15.3,21.4z M19.3,18.4c-0.5,0.3-1,0.7-1.5,1.1l-1.3-1.3l0.7-0.7c0.3-0.3,0.7-0.5,1-0.7l1.3,1.3L19.3,18.4z
		 M8.2,29.3c-0.1,0.2-0.3,0.4-0.4,0.6l-1,1l-1.2-1.2c0.4-0.6,0.8-1.2,1.2-1.8l0,0L8.2,29.3z M6.1,31.6l-1.5,1.5L4,32.5
		c0.3-0.7,0.7-1.3,1.1-1.9L6.1,31.6z M3.8,33.9l-1,1C3,34.5,3.2,34,3.4,33.6L3.8,33.9z M2.3,36.8l1.3,1.3c-0.1,0.2-0.2,0.5-0.2,0.7
		l-1,1l-1-1c0.2-0.5,0.3-1,0.5-1.5L2.3,36.8z M45.9,38.1l1.3-1.3l0.5,0.5c0.2,0.5,0.3,1,0.5,1.4l-1,1l-1-1
		C46,38.6,46,38.3,45.9,38.1z M45.6,33.9l0.4-0.4c0.2,0.4,0.4,0.9,0.6,1.4L45.6,33.9z M29.2,17.4l-1.5-1.5l0.8-0.8
		c0.6,0.3,1.3,0.7,1.9,1.1L29.2,17.4z M27.5,14.6L27,15.2L25.7,14c0.1,0,0.1-0.1,0.2-0.1C26.5,14.1,27,14.3,27.5,14.6z M23.5,13.8
		c0,0.1,0.1,0.1,0.2,0.1l-1.2,1.2l-0.6-0.6C22.5,14.3,23,14.1,23.5,13.8z M21,15.1l0.8,0.8l-1.5,1.5l-1.2-1.2
		C19.7,15.9,20.3,15.5,21,15.1z M0.9,39.9l0.7,0.6l-1.1,1.1C0.6,41.1,0.8,40.5,0.9,39.9z M0.8,42.8l1.5-1.5l0.2,0.2
		c-0.2,0.8-0.4,1.6-0.6,2.4L0.8,42.8z M0.8,47.3l0.6-0.6c-0.1,0.4-0.1,0.7-0.1,1.1L0.8,47.3z M1.1,51.5c0,0.2,0,0.3,0,0.5l-0.2-0.2
		L1.1,51.5z M1,56v0.4l-0.2-0.2L1,56z M3.1,58.5L4.5,57h0.1l1.5,1.5L5.6,59H3.5L3.1,58.5z M43.8,59l-0.4-0.4l1.5-1.5H45l1.5,1.5
		L45.9,59H43.8z M48.6,56.3l-0.2,0.2V56L48.6,56.3z M48.6,51.8L48.4,52c0-0.2,0-0.3,0-0.5L48.6,51.8z M48.1,47.8
		c0-0.4-0.1-0.7-0.1-1.1l0.6,0.6L48.1,47.8z M47.5,43.9c-0.2-0.8-0.4-1.6-0.6-2.4l0.2-0.2l1.5,1.5L47.5,43.9z M47.9,40.6l0.7-0.7
		l0,0c0.2,0.6,0.3,1.2,0.5,1.8L47.9,40.6z"/>
	<path class="st0" d="M24.7,35.5c-1.6,0-2.9,1.3-2.9,2.9c0,1.6,1.3,2.9,2.9,2.9s2.9-1.3,2.9-2.9C27.7,36.8,26.3,35.5,24.7,35.5z"/>
</g>
</svg>
