<?xml version="1.0" encoding="utf-8"?>
<!-- Generator: Adobe Illustrator 24.3.0, SVG Export Plug-In . SVG Version: 6.00 Build 0)  -->
<svg version="1.0" id="Layer_1" xmlns="http://www.w3.org/2000/svg" xmlns:xlink="http://www.w3.org/1999/xlink" x="0px" y="0px"
	 viewBox="0 0 251.7 1323.8" style="enable-background:new 0 0 251.7 1323.8;" xml:space="preserve">
<style type="text/css">
	.st0{display:none;}
	.st1{display:inline;}
	.st2{fill:none;stroke:#6B4423;stroke-width:10;stroke-linecap:round;stroke-miterlimit:10;}
	.st3{fill:none;stroke:#6B4423;stroke-width:10;stroke-linecap:round;stroke-miterlimit:10;stroke-dasharray:7.7654,14.5601;}
	.st4{fill:#6B4423;}
</style>
<g id="Layer_1_1_" class="st0">
	<g id="wW4pxw.tif" class="st1">
	</g>
</g>
<g>
	<g>
		<line class="st2" x1="125.8" y1="904.8" x2="125.8" y2="908.8"/>
		<line class="st3" x1="125.8" y1="923.4" x2="125.8" y2="1251"/>
		<line class="st2" x1="125.8" y1="1258.3" x2="125.8" y2="1262.3"/>
	</g>
</g>
<line class="st2" x1="125.8" y1="5" x2="125.8" y2="372.9"/>
<g>
	<path class="st4" d="M235.4,761.9c-3.2-3-3.9-6.4-3.9-10.5c0.1-57.8,0.1-115.5,0.1-173.3c0-3,0.9-5.3,3-7.4
		c2.7-2.7,5.1-5.7,6.7-9.2c2-4.2,1-6.6-3-9.1c-7.2-4.4-14.2-9.1-21.4-13.6c-1.7-1.1-1.9-2.3-1.2-4.1c1-2.7,1.2-5.5,0.2-8.1
		c-0.8-2-0.4-3.7,0.6-5.5c6.1-11.7,6.1-23.5,0.4-35.3c-5-10.4-12.9-18.2-22.1-24.8c-10.9-7.9-22.9-13.9-35.4-18.7
		c-2.5-1-3.8-1.9-2.4-5c1.5-3.4,0.7-6.8-2.2-9.1c-6.9-5.4-11.9-12.5-17.4-19.2c-0.5-0.5-1.2-1.2-0.8-1.8c1.7-2.9,1.4-6.5,4.6-9
		c11.4-8.6,12.8-25.6,3.2-35.9c-9.8-10.5-26.1-10.3-36.1,0.3c-9.8,10.4-8.4,26.4,3.1,35.5c3.2,2.5,2.6,6.5,4.7,9.4
		c0.4,0.6-0.5,1.2-1,1.7c-5.8,6.4-10.6,13.7-17.5,19.1c-3,2.3-3.9,5.9-2.3,9.4c1.3,2.8,0.2,3.5-2.2,4.4
		c-10.3,3.9-20.2,8.6-29.5,14.5c-10.3,6.4-19.5,14-26,24.5c-7.4,12.1-9.4,24.7-3.3,37.9c1.4,3,3,5.6,1.3,9.1
		c-0.6,1.2-0.6,3.2,0.1,4.4c2.3,4.3,0,6.2-3.4,8c-2,1.1-3.9,2.5-5.8,3.8c-4.6,2.9-9,6.2-13.8,8.6c-2.9,1.4-3.7,3-3.2,5.9
		c0.8,4.3,3.2,7.7,6.2,10.6c3.4,3.4,4.6,7.2,4.5,12C20,637.5,20,693.8,20.2,750c0,5.1-1,9.1-4.8,12.6c-2.6,2.5-4.5,5.6-5.4,9.1
		c-1.1,4.3,0.1,6.2,4.4,7.3c3.2,0.8,6.5,1.4,9.3,3.5c5.3,4.1,10.6,8.2,16,12.2c2.1,1.5,2.6,2.8,0.6,5c-4.1,4.4-6.1,9.7-6.2,15.8
		c-0.1,3.1,1,5.4,4.2,6.3c1.5,0.4,2.8,1,3.3,2.7c3.7,10.9,11.8,18,21.3,23.8c11.5,7,24.2,11.4,37,15.6c2.5,0.8,3.4,1.7,2.7,4.3
		c-0.7,2.6,0,5.3,2,7c5.8,4.7,10.3,10.5,14,17c0.9,1.5,1.4,2.7,0.8,4.4c-1,2.8-0.1,5.2,1.9,7.3c1.6,1.7,2.4,2.8,2.5,3.8h4.9
		c-0.2-1.6,1-2.2,2-3c3-2.2,3.9-5,2.6-8.5c-0.4-1.1-0.8-2,0-3.2c3.9-6.2,7.5-12.7,13.9-17c2.5-1.7,3.4-4.5,2.8-7.4
		c-0.8-3.2,0.6-4.2,3.3-5.1c10.4-3.2,20.6-7,30.2-12.1c11.7-6.2,22.1-14,27-27.1c0.5-1.3,1.5-1.9,2.7-2.4c4.4-1.9,5.3-3.5,4.6-8.3
		c-0.7-5.1-2.5-9.7-5.9-13.5c-2.3-2.6-1.8-4.1,0.9-5.9c2.5-1.6,4.9-3.5,7.2-5.5c5.7-4.8,11.5-9.3,19.2-10.4c3-0.4,3.4-2.8,2.9-5.4
		C241.2,768.6,238.6,764.9,235.4,761.9z M236.4,561c-1.8,3.1-4.2,5.8-6.7,8.3c-0.9,0.9-1.8,1.4-3.1,1.2c-10.5-1.6-21-3.2-31.5-4.8
		c-2.2-0.3-4.3-0.8-6.5-1s-2.1-1.2-1.2-2.7c2.2-3.7,4.1-7.5,5.3-11.6c0.5-1.5,1.2-1.9,2.8-1.6c13,2.6,26,5.1,39,7.8
		C237.8,557.3,238.1,558.1,236.4,561z M220.2,600.7c2.2,2.9,4.3,1.1,6.6-0.8v151.4c0,5.7,0,5.6-5.4,6.8c-11.1,2.4-22.1,4.7-33.2,7.2
		c-2.6,0.6-3.6,0.1-3.6-2.7c0.3-24.7,0.1-49.4,0.3-74.1c0.3-28.8,0.5-57.5-0.2-86.3c-0.2-9.7-0.1-19.4-0.1-29.1
		c0-3.9,0.5-4.4,4.5-3.8c9.1,1.4,18.2,2.9,27.4,4.3c1.1,0.2,2.3,0.3,3.4,0.5c7,0.9,7.5,1.6,6.3,9.6c-1.7-4.7-3.4-5.9-6.9-5.1
		c-3.2,0.7-3.1,3.7-3,5.8c0.1,2.3-0.7,5.6,3.2,6.3c4.3,0.7,5,0.4,6.7-4.7c0.9,3.8,0.3,7.1,0.6,11.1c-1.8-2.8-3.4-5.2-6.3-2.8
		C218.5,596.2,218.7,598.6,220.2,600.7z M85.8,830.9c-4.2,0-4.5-0.3-4.3-4.6c0.3-5.2,1.4-10.3,3-15.2c0.6-2,2.1-2.1,3.8-2.2
		c2-0.1,1.8,1.3,1.9,2.6c0,0.5,0.1,0.9,0.3,1.4c0.7,1.7,1.8,3.8,3.6,3.8c2.1-0.1,3.4-2.1,3.9-4.2c0.3-1.3-0.2-3.1,1.8-3.3
		s4.2-0.5,6.1,0.3c0.9,0.4,0.6,1.4,0.7,2.2c0.1,2.6,1.4,4.9,3.8,5c2.3,0.1,3.8-2.2,4-4.5c0.2-2.5,1-3.4,3.5-3.2
		c2.5,0.1,4.1,0.4,4,3.6c0,2.2,1.8,4.5,4,4.6c2.3,0,3.9-2.4,3.9-4.6c0-3.2,1.7-3.5,4.2-3.5s3.9,0.5,3.9,3.4c0.1,2.2,1.5,4.4,3.7,4.4
		c2.3,0,3.4-2.4,4.1-4.6c0.3-1.1-0.5-2.9,1.3-3.1c2-0.2,4.1,0,6.2,0.2c0.2,0,0.5,0.7,0.6,1.2s0,1.2,0.1,1.7c0.5,2.3,1.8,4.6,4,4.6
		s3.5-2.3,3.9-4.7c0.2-1.2-0.6-3,1.7-3c2,0,3.2,0.7,3.9,2.6c1.7,4.8,2.7,9.7,3.1,14.9c0.2,3.4-1.2,4.5-4.4,4.5
		c-10.3,0-20.6,0-30.8,0h-9.7l0,0C112.3,830.9,99,830.9,85.8,830.9z M167.7,803.2c-1,1-2.4,0.9-3.6,0.9c-25.6,0-51.2,0-76.8,0
		c-2.2,0-3.8-0.7-5.1-2.4c-1.7-2.1-3.5-4-5.2-6c-0.8-0.9-2.3-1.8-1.9-3.1c0.5-1.4,2.2-0.8,3.4-0.8c4.3-0.1,8.5,0,12.8,0
		c27.3,0,54.7,0,82,0h3.7c0.2,0.3,0.3,0.6,0.5,0.9C174.3,796.2,171,799.7,167.7,803.2z M168.8,787.4c-14.3,0-28.6,0-42.9,0v-0.1
		c-18.9,0-37.9,0-56.8,0c-4.7,0-4.8-0.2-3.2-4.7C70,771,70,771,82.3,771c31.4,0,62.8,0,94.2-0.1c3.1,0,4.9,0.8,6.1,3.8
		c1.3,3.2,2.8,6.3,3.9,9.6c0.7,2.2,0.1,3-2.1,3C179.2,787.3,174,787.4,168.8,787.4z M24.5,579.7c0-3.1,0.8-4.5,4.1-5
		c11.1-1.5,22.1-3.4,33.2-5.1c4.5-0.7,4.8-0.5,4.8,4c0,31.3,0,62.6,0,93.9h0.1c0,31.2,0,62.4,0,93.5c0,5,0,4.9-4.8,3.9
		c-11-2.3-21.9-4.7-32.9-6.9c-3.2-0.6-4.5-1.8-4.5-5.4C24.6,694.9,24.6,637.3,24.5,579.7z M75,523.7c0.2,5.6,0.2,5.6-5.2,6.6
		c-8.3,1.6-16.6,2.9-24.8,4.7c-3.2,0.7-4.5-0.3-5-3.3c-0.6-3.4,0.3-5.4,3.3-6.1c7.8-1.7,15.5-3.4,23.3-5.1c2.1-0.5,4.3-0.9,6.4-1.5
		c1.7-0.4,2.5-0.1,1.9,2.5C75,521.9,74.9,522.8,75,523.7z M86.3,533c25.7,0.7,51.5,0.6,77.2,0.1c8.7-0.2,14.3,3.6,19.7,10.1h-115
		C74.1,538.4,77.7,532.7,86.3,533z M84.5,528.7c-4.6,0-4.7-0.1-4.7-4.6c0-0.7,0.1-1.4,0-2.1c-0.3-3.1,0.9-4.2,4.1-4.2
		c25.4,0.1,50.8,0.1,76.2,0.1c2.2,0,4.4-0.1,6.6,0c1.7,0.1,4.2-1.1,4.9,1.3c0.8,2.7,0.9,5.8-0.2,8.5c-0.6,1.5-2.5,1-3.8,1
		c-14,0-27.9,0-41.9,0l0,0C112,528.7,98.3,528.7,84.5,528.7z M169.9,513.4c-2.1-0.1-1.7-1.7-2-3c-0.6-3-2.9-4.9-5-6.9
		c-0.7-0.6-1.6-0.5-2.2,0.2c-2,2.2-4.6,4-4.8,7.3c-0.2,3.4-2.8,2.3-4.7,2.5c-2,0.2-3.5-0.4-3.3-2.8c0-0.1,0-0.2,0-0.3
		c-0.2-2.7-1.8-5.2-4.1-5.3s-4.1,2.5-4.2,4.8c-0.2,3.8-2.4,3.8-5.1,3.7c-1.7-0.1-2.5-0.8-2.5-2.5c0-3.5-2.7-5.2-4.8-7.3
		c-1.1-1.1-2.1-0.6-3,0.4c-2,2.1-4.2,4-4.3,7.2c-0.2,2.9-2.6,2-4.2,2.1c-1.7,0.1-3.1-0.2-3-2.4c0-0.2,0-0.5,0-0.7
		c-0.2-2.7-1.8-5.1-4.1-5.4c-2.4-0.3-4.1,2.5-4.2,4.7c-0.2,4.2-2.7,3.8-5.4,3.7c-1.3-0.1-2.3-0.5-2.3-2c-0.2-3.4-2.8-5.1-4.8-7.3
		c-0.9-1-2-1.4-3-0.2c-1.9,2.1-4.4,3.9-4.7,7c-0.2,1.4-0.6,2.4-2.3,2.4c-1.8,0-2.3-1.2-2.5-2.7c-2.2-12.9-0.3-25,5.9-36.5
		c7.1-13.1,17.1-23.7,28.4-33.2c1.2-1,2.6-1.4,4.2-1.4c2.8,0,5.5,0,9.7,0c7.3-2.2,13.1,2.4,18.6,8.1c10.5,10.7,20.2,21.9,24.9,36.5
		c2.8,8.5,3.3,17.2,1.8,26C172.4,511.8,172.2,513.5,169.9,513.4z M176.7,522.2c-0.6-2.9,0.3-3.4,3-2.8c9.2,2.1,18.5,4.2,27.7,6
		c3.5,0.7,4.3,2.6,4.2,5.6c0,3.8-1.1,4.7-4.7,4.1c-9.2-1.6-18.4-3.4-27.6-5c-2.2-0.4-3.3-1.3-2.9-3.7
		C176.8,524.9,177,523.5,176.7,522.2z M68.4,547.8c38.6,0,77.2,0,115.7,0c4.7,0,4.9,0.3,3,4.6c-4.9,11.6-4.9,11.6-17.6,11.6h-43.7
		c-17.1,0-34.2,0-51.3,0.1c-2.9,0-4.8-0.8-6-3.5c-1.4-3.2-3-6.2-4.5-9.4c-1.1-2.2-0.7-3.6,2.1-3.4C67,547.8,67.7,547.8,68.4,547.8z
		 M180.2,667.5c0,31.4,0,62.8,0,94.2c0,4.8,0,4.8-4.8,4.8c-33.1,0-66.3,0-99.4,0.1c-3.5,0-4.5-1.2-4.5-4.6
		c0.1-63.1,0.1-126.1,0-189.2c0-3.5,1.1-4.5,4.6-4.5c33.3,0.1,66.5,0.1,99.8,0c3.5,0,4.5,1,4.5,4.5
		C180.2,604.5,180.2,636,180.2,667.5z M225,550c-11-2.2-22.1-4.1-33.1-6.6c-4-0.9-5.9-5.2-9.3-7.5c0.1-0.3,0.2-0.5,0.3-0.8
		c7.9,1.5,15.7,3.2,23.7,4.4C214,540.8,218.9,546.3,225,550z M196.3,468c9.2,7.5,16.9,16.2,19.4,28.3c1.6,7.6,0.9,15.2-2.9,22.2
		c-0.5,0.9-1.1,1.7-1.8,2.5c-0.4,0.5-1.1,0.5-1.6,0.2c-0.8-0.4-0.3-1,0-1.5c0.2-0.4,0.5-0.8,0.7-1.2c0.6-1.6,0.9-3.3-0.5-4.5
		c-1.3-1.1-2.6,0.1-3.8,0.6c-1.5,0.7-2.5,2-3.5,3.2s-2.5,1.7-3.7,0.9c-1.3-0.8,0.2-1.8,0.5-2.6c0.5-1.7,0.6-3.4-0.7-4.5
		c-1.6-1.3-3.1,0.1-4.3,1c-1.1,0.9-2,2.2-2.9,3.4c-1,1.1-2.3,1.1-3.5,0.7c-1.4-0.5-0.5-1.5-0.2-2.3c1-2.2,1.1-4.8-1-5.9
		c-2.2-1.2-4,1-5.5,2.5c-1,0.9-0.9,3.6-2.8,2.7c-1.8-0.8-0.4-2.9-0.2-4.4c2.3-17.6-3-33.1-13.1-47.2c-4.1-5.8-8.8-11-13.8-16
		c-0.8-0.8-1.9-1.3-2.1-2.6c0.6-0.5,1.1-0.2,1.7,0C166.7,449.7,182.6,456.8,196.3,468z M146,375.6c1,7.6-1.5,14-7.6,18.7
		c10.3-10.9,8.7-24.9-3.8-33C140.1,362.6,145.2,368.8,146,375.6z M109.4,368.3c4.5-7,14-12,23.9-7.6c-10.6-2.6-18.2,0.3-23.1,8.8
		c-5.2,8.9-2.9,17.1,3.7,24.5C105.9,388.1,104,376.7,109.4,368.3z M114.8,387.8c-3.8-4.9-3.9-12-0.2-17.5c3.5-5,10-7.3,15.9-5.5
		c6,1.9,10.1,7.4,10.2,13.8c0.1,3.4-1,6.3-2.9,9c-1.1,1.6-2.2,1.8-4,0.6c-5.2-3.6-10.2-3.6-15,0.1
		C116.8,389.8,115.9,389.2,114.8,387.8z M133.8,399.1c0,5.4-1.7,6.9-7.7,6.9c-5.7,0-7.8-1.9-7.9-6.9c-0.1-4.9,3.6-8.9,8.1-8.9
		S133.9,393.8,133.8,399.1z M101,431.1c6.2-5.1,11.2-11.3,15.9-17.7c2.4-3.3,6-2.2,9.2-2.4c5.3-1.1,8.8,1.2,11.6,5.6
		c3.4,5.3,7.8,9.7,12.6,13.8c2.1,1.8,2.7,3.9,1.9,6.5c-0.2,0.8-0.7,1.6-1.7,1.3c-0.8-0.2-0.8-1-0.7-1.7c0-0.2,0.1-0.5,0.1-0.7
		c0.1-1.7,0.2-3.6-1.5-4.3c-1.9-0.8-3.1,0.9-4.3,2.1c-0.8,0.8-0.6,2.8-2.5,2.2c-1.8-0.5-1.1-2-1.3-3.2c-0.3-1.5-0.8-3.2-2.5-3.4
		c-1.6-0.2-2.6,1.2-3.4,2.5c-0.3,0.6-0.5,1.3-0.6,2c-0.3,1.3-1.4,1.4-2.5,1.4c-1.2,0-1.6-0.6-1.6-1.7c0-0.3-0.1-0.7-0.1-1
		c-0.5-1.8-1.2-3.6-3.1-3.7s-2.8,1.7-3.4,3.4c-0.4,1.2,0,2.9-2.1,3c-2,0.1-2-1.5-2.5-2.7c-0.7-1.6-1.9-3.3-3.8-3
		c-1.8,0.4-2.6,2.1-2.5,4c0.1,0.9,0.2,1.9-1,2.3c-1,0.3-1.8-0.2-2.3-1.1c-0.2-0.4-0.5-0.8-0.8-1.1c-1.1-1.3-2.4-3.1-4.2-2.2
		c-1.8,0.9-2.1,2.9-1.5,4.9c0.2,0.8,0.9,1.9-0.5,2.2c-1.1,0.3-1.7-0.6-2-1.5C98.9,434.7,99.2,432.6,101,431.1z M40.1,485.8
		c4.8-9.1,12.1-16,20.4-21.8c12.7-9,26.9-15.1,41.4-20.7c0.3-0.1,0.7-0.1,1-0.1c-4.5,5.3-9.2,10.3-13.5,15.8
		c-9,11.7-15,24.6-15.8,39.6c-0.2,4.2,0.3,8.3,0.9,12.4c0.1,1,1.2,2.4-0.4,3c-1.4,0.5-2-0.8-2.5-1.8c-0.6-1.1-1.2-2.3-2.4-2.9
		c-1.3-0.6-2.5-2.4-4-1.2c-1.5,1.2-1.7,3.1-1.2,5.1c0.2,1.1,2.4,2.4,0.3,3.5c-1.9,1-3.3-0.3-4.1-2.1c-0.2-0.4-0.5-0.8-0.8-1.1
		c-1.5-1.5-3.4-3.3-5.3-2.3c-2.1,1.1-1.6,3.6-0.6,5.6c0.4,0.8,1.2,1.7-0.3,2.2c-1.1,0.4-2.2,0.6-3.1-0.5c-1-1.4-1.7-3.1-3.3-3.9
		c-1.4-0.7-2.9-2.2-4.4-0.8c-1.3,1.2-1,2.9-0.5,4.6c0.3,0.9,2.1,2,0.4,2.8c-1.5,0.7-2.1-1-2.7-2.1C33.5,508,34.2,496.8,40.1,485.8z
		 M46.9,539.2c7.4-0.8,14.7-2.6,22.2-3.6c-3.7,3.3-6.3,7.7-12.1,8.6c-10.1,1.5-20.1,3.9-30.1,5.9C33.3,545.9,38.6,540.1,46.9,539.2z
		 M14.9,560.5c-1.4-2.5-0.3-3.5,2.2-4c9.4-1.7,18.8-3.6,28.2-5.4c3.6-0.7,7.2-1.4,10.8-2.2c1.3-0.3,2.5-0.5,3,1.3
		c1.1,4,3.1,7.7,5.1,11.3c0.7,1.3,1.2,2.7-1,3.1c-12.8,2.1-25.7,4.1-38.5,6.1c-0.8,0-1.4-0.2-1.9-0.7
		C19.9,567.1,16.9,564.2,14.9,560.5z M16.7,775c-1.8-0.4-2.7-1.1-1.9-3.1c1.6-4.1,4.7-7.1,7.8-10c0.5-0.5,1.3-0.5,2-0.3
		c9.7,2.1,19.4,4.1,29.1,6.2c3.2,0.7,6.3,1.4,9.5,2c1.9,0.4,3,1.1,1.8,3.3c-1.9,3.5-3.4,7.1-4.5,10.9c-0.5,1.6-1.3,1.9-2.9,1.5
		C44,782,30.3,778.5,16.7,775z M34.5,784.4c8.2,2.1,16.4,4.1,24.6,6.2c0.7,0.2,1.3,0.5,2,0.5c7.4-0.3,10.5,5.5,15.1,10.8
		c-4.6-0.5-8-1.8-11.6-2.7c-3.2-0.8-6.4-2.1-9.7-2.5C46.2,795.7,40.6,789.7,34.5,784.4z M41.3,818.2c-2.1-0.6-2.8-1.7-2.6-4.1
		c0.5-5.5,3.2-9.8,6.9-13.6c0.4-0.4,0.9-0.7,1.4-1c0.3-0.1,0.7-0.1,1.6-0.1c-1.1,2.3-2.7,4.8-0.3,6.2s4.6-0.3,6.1-2.4
		c0.9-1.4,2-1.4,3.3-0.9s0.7,1.5,0.4,2.4c-0.6,1.6-0.8,3.3,0.8,4.4c1.5,1,2.8-0.4,4.2-0.9c0.4-0.2,0.8-0.5,1.1-0.8
		c1.1-1.2,2-3.3,4.1-2.1c1.9,1.1-0.1,2.4-0.2,3.7c-0.2,2.8,1.3,4.2,4,3.2c0.9-0.4,1.9-1,2.6-1.7c1.3-1.3,2-3.9,4.5-2.4
		c2.7,1.5,0.3,3.5,0,5.1c-1,4.5-2.2,9-2,13.6c0.1,2.1-0.7,2.7-2.7,2C63.3,825.2,52.3,821.7,41.3,818.2z M55.8,837.4
		c-3.2-2.9-5.9-6.2-8-9.9c-0.3-0.6-0.9-1.2-0.5-1.9c0.4-0.8,1.2-0.4,1.9-0.2c10.2,3.2,20.4,6.5,30.6,9.7c0.9,0.3,1.6,0.8,2,1.8
		c3.7,8.2,8.9,15.3,15.8,21.2C82.7,853,67.7,848.3,55.8,837.4z M145,870.9c-0.4,1.8-2,2.8-3.4,3.8c-4.2,3.2-7.4,7.2-9.7,12
		c-1.5,3.2-3.3,4.4-5.7,4.4c-2.2-0.2-4.2-0.8-5.2-3c-2.8-6.1-7.2-10.9-12.5-15c-1.3-1-1.8-2.4-1.5-4c0.2-1.2,0.5-2.3,2-2.3
		c1.3,0,2.2,0.6,2.4,2c0.1,0.5,0,0.9,0.2,1.4c0.4,1.5,1.2,2.9,2.8,3.1c1.7,0.2,2.7-1.1,3.4-2.5c0.5-1.1,0.5-2.6,2.3-2.6
		c1.9,0,2.4,1.3,2.9,2.9c0.5,1.5,1.5,2.9,3.1,2.9c1.8,0.1,2.7-1.5,3.3-3c1.4-3.1,2.9-3.2,4.7-0.5c0.9,1.4,1.9,2.9,3.7,2.8
		c2-0.2,2.6-2.1,3-3.8c0.4-1.6,1.1-3.1,3-2.5C145.5,867.5,145.3,869.4,145,870.9z M138.6,862.9c-1.4,0.7-2.9,0.8-4.4,0.8
		c-4.4,0-8.8-0.2-13.1,0.1c-4.9,0.3-9-1.1-13-3.8c-8-5.5-15.1-11.8-19.9-20.4c-2.3-4.1-2.2-4.3,2.4-4.3c11.9,0,23.8,0,35.6,0l0,0
		c11.9,0,23.8,0,35.7,0c3.9,0,4.1,0.3,2.3,3.6C158.3,849.7,149.3,857.2,138.6,862.9z M200.4,832.6c-5,6-11.2,10.6-18.1,14.3
		c-8.9,4.8-18.4,8.3-28,11.4c6.8-6.1,12.4-13,15.9-21.5c0.4-0.9,1.2-1.4,2.1-1.6c10.4-3.3,20.9-6.6,31.3-9.9c0.2-0.1,0.4,0,0.9,0.1
		C204.1,828.3,202.2,830.5,200.4,832.6z M212.8,815.9c-0.3,1.2-1.1,1.7-2.1,2c-11.1,3.6-22.1,7.2-33.2,10.8
		c-1.8,0.6-2.6,0.1-2.5-1.8c0.2-5.5-1.2-10.7-3-15.9c-0.3-1-1.3-2.2,0.3-2.9c1.4-0.6,2.7-0.7,3.8,0.6c0.8,1,1.4,2.2,2.6,2.7
		c1.3,0.6,2.8,1.7,4.1,0.4c1.1-1.1,1.1-2.6,0.7-4.2c-0.2-0.8-2.1-1.9,0-2.7c1.4-0.6,2.7-0.4,3.5,1.1c0.3,0.5,0.6,1,1.1,1.3
		c1.4,1.2,3.2,2.6,5,1.6c1.7-0.9,1.4-2.9,0.7-4.7c-0.3-0.8-0.6-1.6,0.4-2.1s2-0.6,2.8,0.3c1,1.1,1.8,2.5,3.4,2.9
		c1.2,0.3,2.4,1.3,3.5,0.1c0.9-1,0.9-2.3,0.5-3.6c-0.2-0.6-0.4-1.3-0.9-2.4C208.8,801.3,214.1,811.2,212.8,815.9z M199.9,795.9
		c-8.1,1.7-16,4.2-24.5,6.5c0.5-0.9,0.6-1.1,0.8-1.2c4.5-6.3,10.2-10.1,18.3-11.1c7.7-1,15.2-3.7,22.9-5.4
		C211.8,788.8,207.3,794.3,199.9,795.9z M234.6,775c-13.4,3.5-26.8,7-40.1,10.5c-1.6,0.4-2.6,0.2-3.1-1.6c-1.1-3.9-2.8-7.5-4.7-11.1
		c-0.5-1-1.4-2.2,0.6-2.6c13.4-2.9,26.8-5.8,40.2-8.7c0.9-0.1,1.6,0.2,2.2,0.8c2.7,2.5,5,5.4,6.8,8.7
		C237.5,773,237.1,774.4,234.6,775z"/>
	<path class="st4" d="M165.7,631.6c-1.9-1.1-2.3-2-1.4-4.1c4.6-10.8,2.3-20.2-6.7-28c-4.8-4.1-10-7.4-15.3-10.8
		c-4.9-3.2-10.2-5.8-14.4-10.2c-1.4-1.5-2.7-1.4-4.1,0c-3,3.1-6.7,5.2-10.3,7.5c-7.4,4.7-15,9.1-21.1,15.6
		c-7.6,8.1-9.1,15.8-4.6,25.6c1,2.3,0.5,3.2-1.5,4.3c-5.5,3.2-8.4,7.9-8.9,14.4c-0.2,3.7,0.2,7.4,0.1,11.1
		c-0.2,9.9-0.5,19.9-0.3,29.8c0.2,10.4,0.1,20.8,0.1,31.2c0,12.6,0,25.2-0.1,37.8c0,4.6,0.8,5.4,5.5,5.4c28.9,0,57.8,0,86.6,0
		c4.7,0,5-0.4,5-5.2v-54.4c0-18.1,0-36.3,0-54.4C174.3,640.3,171.6,635,165.7,631.6z M143,753.8c0,1.9-0.8,2.8-2.6,2.8
		c-9.8,0-19.6,0-29.4,0.1c-2.4,0-2.5-1.5-2.5-3.2c0-8,0-15.9,0-23.9l0,0c0-7.7,0-15.5,0-23.2c0-4.1,1.3-5.4,5.4-5.5
		c8.2-0.1,16.4-0.1,24.6,0c3.5,0,5,1.3,4.8,4.8C142.7,721.8,143.1,737.8,143,753.8z M125,680.3c0.9-1.5,1.7-1.2,2.4,0.2
		c1.5,2.7,2.3,5.5,1.2,8.9c-2.7-2.2-2.7-2.2-4.9,0.6C122.1,686.3,123.2,683.3,125,680.3z M118.5,684.2c-1.4-2.4-1.2-4.5-0.8-6.4
		c1.5-6.2,6.4-10.7,8.9-16.3c0.4-1,1.1-0.5,1.5,0.2c3.6,6.4,7.3,12.7,6,20.5c0,0.3-0.3,0.6-0.6,1.2c-1.8-3.4-3.3-6.3-4.9-9.2
		c-1.7-3-2.8-3-4.7-0.2C121.9,676.9,119.9,680.1,118.5,684.2z M169.9,752.3c0,3.1-0.7,4.3-4,4c-4.4-0.3-8.8-0.1-13.2-0.1
		c-4.9,0-4.9,0-4.9-4.8c0-14.5,0-29.1,0-43.7c0-1.7-0.1-3.5-0.4-5.2c-0.8-3.9-3.6-6.2-7.6-6.3c-3.1-0.1-6.2,0-9.3,0
		c-1,0-1.8-0.4-1.9-1.6c-0.1-0.9,0.3-1.3,1.2-1.7c7-3.1,10.6-10.4,8.9-18.3c-1.7-7.9-5.8-14.8-10.5-21.3c-0.7-0.9-1.5-1.8-2.9-1.6
		c-1.4,0.3-1.7,1.5-1.8,2.7c-0.2,4.2-2.2,7.7-4.4,11.1c-1.9,2.9-3.9,5.7-5.1,9.1c-2.8,8.1,0.9,15.6,9.1,18.2
		c1.1,0.3,0.8,0.9,0.8,1.5c0,1.3-0.7,1.9-1.9,1.9c-2.5,0-5.1,0-7.6,0.1c-7.7,0-10.3,2.6-10.4,10.5c-0.1,14.9,0,29.8-0.1,44.7
		c0,5.1,0,5.1-5.1,5.1c-4.3,0-8.5-0.4-12.8-0.3c-3.2,0.1-4.2-1.1-4.2-4.2c0.1-17.7,0.1-35.3,0.1-53l0,0c0-17,0.1-34-0.1-50.9
		c-0.1-6.6,2.7-11,8.5-13.7c4.7-2.2,4.8-2.7,2.2-7.3c-4.7-8.5-3.8-15.2,3-22.3c4.5-4.7,10-8.1,15.4-11.7c4.3-2.9,8.7-5.7,13-8.6
		c1-0.7,1.9-1.4,3.1-0.5c8.5,6.8,18.6,11.2,26.8,18.5c9.2,8.1,10.6,15.3,4.6,26c-1.5,2.7-0.9,4.5,1.8,5.4c7.3,2.6,9.6,8,9.6,15.4
		C169.7,683.7,169.8,718,169.9,752.3z"/>
	<path class="st4" d="M84.7,572.9c-4.6,0-7.9,3.6-8.1,8.5c-0.1,4.5,3.7,9.2,7.8,9c2.4-0.1,5.3-0.6,7-2c1.8-1.5,1.3-4.7,2.7-6.6
		C94.3,577.7,89,572.9,84.7,572.9z M83.5,585.9c-2.7-0.5-2.1-3-2.1-4.8c0-2.2,0.7-4.3,4-3.4c2.9-0.7,4,1.3,4.1,3.8
		C89.6,584.5,86.9,586.5,83.5,585.9z"/>
	<path class="st4" d="M166.8,573.1c-4.8-0.1-8.7,3.3-9,8.1c-0.3,4.5,4.4,9.4,9,9.3c4,0,8.4-4.5,8.5-8.8
		C175.4,577.4,171.3,573.3,166.8,573.1z M167.7,585.8c-3.5,0.2-5.2-1.1-5.2-4.2c0-2.6,0.8-4.6,3.9-3.9c3.4-0.7,4,1.5,4,3.8
		C170.4,583.3,170.6,585.6,167.7,585.8z"/>
	<path class="st4" d="M170.9,593.9c-2.6-0.1-5.7,2.7-5.7,5c-0.1,3,2.4,5.5,5.4,5.5c3.4,0,5.3-1.9,5.3-5.4
		C175.9,596.6,173.5,594,170.9,593.9z"/>
	<path class="st4" d="M81.5,604.6c2.8,0,5-2.3,5-5.1s-2.5-5.3-5.3-5.4c-2.7-0.1-5.3,2.3-5.2,4.9C76,602.6,77.9,604.6,81.5,604.6z"/>
	<path class="st4" d="M105.4,582.4c2.9,0.1,5.1-1.8,5.2-4.7c0.1-2.5-2.1-5.1-4.5-5.3c-3.2-0.2-5.6,1.6-5.8,4.5
		C100,580.2,101.9,582.3,105.4,582.4z"/>
	<path class="st4" d="M146.5,582.4c3.3,0,5.2-1.9,5.2-5.1c0-2.9-2.1-4.8-5.2-4.8c-2.8,0-4.8,2-4.9,4.8
		C141.6,580.2,143.7,582.4,146.5,582.4z"/>
	<path class="st4" d="M60.3,630.8c-1.4-1.9-1.6-3.6-1-5.8c2-6.6,1.2-13-1-19.4c-2.7-7.9-8.4-14-12.2-21.3c-1.1-2.1-2.8-1.8-4,0.2
		c-2.5,4.3-5,8.6-7.6,12.8c-5.4,9.1-7.8,18.7-4.4,29.2c0.4,1.2,0.4,2.5-0.3,3.7c-2.8,4.2-3.4,9-3.4,13.9c0,17,0,34,0,51l0,0
		c0,17.6,0,35.1,0,52.7c0,2.9,0.5,5.2,4,5.8c9.5,1.8,19,3.9,28.5,5.9c4.1,0.8,5.1,0.1,5.1-4c0-37.4,0-74.9,0-112.3
		C63.9,638.8,63,634.5,60.3,630.8z M55.9,754.4c-7.3-1.6-14.7-3.1-22-4.6c-2.1-0.4-2.7-1.4-2.7-3.5c0.1-10.4,0.1-20.8,0.1-31.2
		c0-23.7,0-47.3,0-71c0-4.7,0.2-9.3,3.5-13c0.8-0.9,0.9-2.1,0.4-3.3c-4.3-11.4-1.2-21.5,5.2-31.1c4.2-6.3,4-6.4,8.1-0.1
		c2.6,4.1,5.1,8.2,6.5,13c1.6,5.5,1.4,11-0.5,16.3c-0.9,2.5-0.5,4.3,1.3,6.3c3,3.1,3.7,7.2,3.8,11.2c0.1,36,0,72.1,0.1,108.1
		C59.5,754.3,58.5,755,55.9,754.4z"/>
	<path class="st4" d="M29.2,591.1c2.3-0.4,5.4,0.5,5.8-3.4c0.2-2.5,0.8-4.5,4.1-4.9c2.2-0.2,2.5-2.5,1.7-4.4
		c-0.8-1.8-2.9-2.7-3.9-1.4c-1.8,2.4-3.5,2.5-5.7,1.2c-0.7,0.2-1.3,0.3-1.8,0.4c-3.6,0.8-4.7,4.5-3.3,9.3
		C26.6,589.7,26.9,591.4,29.2,591.1z"/>
	<path class="st4" d="M56.3,588.5c5,0.1,7.6-2.4,7.6-7.5c0-3.7-2.1-6.5-5-6.5c-4.1-0.1-6.6,2.4-6.6,6.7
		C52.3,585.2,54.1,588.5,56.3,588.5z"/>
	<path class="st4" d="M61,590.6c-2.8,0.3-3.7,2.5-3.9,4.9s1.9,4.7,4.2,4.5c2.6-0.2,3.8-1.9,3.8-4.4C65,592.8,63.1,590.4,61,590.6z"
		/>
	<path class="st4" d="M28.5,601.7c2.6,0.1,3.5-1.7,3.8-3.9c-0.3-2.2-0.9-4.2-3.6-4.2c-2.4,0-3.5,1.7-3.6,3.8
		C25.1,599.6,25.9,601.6,28.5,601.7z"/>
	<path class="st4" d="M225.4,642.7c0-4.2-0.7-8.3-3-11.9c-1-1.5-1.1-3-0.6-4.6c2.9-10.1,0.8-19.4-4.4-28.3
		c-2.6-4.4-5.5-8.5-7.5-13.3c-1-2.4-2.9-2.5-4.4-0.2c-2.7,4.2-5.3,8.4-8,12.6c-5.8,9.1-7.8,18.9-4.7,29.4c0.4,1.4,0.2,2.4-0.7,3.5
		c-3.3,4.2-4.3,9.1-4.2,14.3c0,18.1,0,36.3,0,54.4l0,0c0,18.7,0,37.4,0,56.1c0,4.9,0.7,5.4,5.6,4.4c9-1.8,18.1-3.9,27.2-5.5
		c3.5-0.6,4.9-2.2,4.9-5.8C225.3,712.9,225.4,677.8,225.4,642.7z M220.6,745.6c0,2.6-1.1,3.7-3.5,4.2c-7,1.4-14.1,2.7-21,4.4
		c-3.1,0.8-3.8-0.3-3.8-3.2c0.1-18.1,0-36.3,0-54.4l0,0c0-17.2,0-34.4,0-51.7c0-5.2,0.6-10.2,4.7-14c1.3-1.2,1.2-2.7,0.6-4.2
		c-5-13.5,1-24.3,8.5-34.6c0.9-1.2,1.6-1.1,2.4,0.1c7.1,10.6,13,21.5,8.1,34.9c-0.6,1.7-0.4,3.1,0.8,4.5c2.3,2.8,3.2,6.1,3.2,9.7
		C220.6,676.1,220.5,710.9,220.6,745.6z"/>
	<path class="st4" d="M194.7,588.6c2.3-0.1,4.7-3.7,4.6-7c-0.1-3.9-2.9-6.8-6.3-6.6c-2.9,0.2-5.1,2.9-5.1,6.2
		C188,586.2,190.2,588.7,194.7,588.6z"/>
	<path class="st4" d="M190.7,600.1c2.9-0.3,3.7-2.6,3.7-5c0-2.3-1-4.5-3.7-4.5c-2.8,0.1-3.8,2.2-3.9,4.8
		C186.7,598.1,188.5,600.3,190.7,600.1z"/>
</g>
<path class="st4" d="M119.7,1265.7c-8,5-9.4,16.9-2,22.9c3.4,2.8,3,5.1,1.3,8.2c-2.5,4.8-3.7,9.9-4.2,15.3c-0.1,1.4,0,2.9,1.5,3
	c1.9,0.1,2.3,0.9,2.5,2.5c0.1,1.1,0.9,1.9,2.2,1.8c1.1-0.1,1.6-0.9,1.8-1.8c0.2-0.9,0.3-1.8,0.4-2.7c0.3,2.1,0.2,4.2,0.3,6.3
	c0,1.3,0.4,2.6,2.1,2.7c1.5,0,1.9-1.3,2-2.4c0.3-2.4,0.3-4.8,0.4-7.2c0.1,0,0.2,0.1,0.3,0.1c0,0.5,0,0.9,0,1.4
	c0.1,1.5-0.4,3.6,1.8,3.9c2,0.3,2.3-1.4,2.6-3c0.1-0.8,0.4-1.3,1.3-1.2c3.4,0.1,2.9-2.4,2.7-4.4c-0.6-5.1-2-10-4.5-14.5
	c-1.3-2.3-1.1-4.1,1.4-5.4c2.1-1.1,3.6-2.8,4.8-4.9c0.5-0.9,0.6-1.8-0.1-2.6c-0.7-0.8-1.5-0.9-2.5-0.6s-2,0.7-3,0.9
	c-2.7,0.4-5.1,0-6.8-2.4c-1.5-2.1-1.6-4.4-0.4-6.5c1.4-2.4,3.7-3.5,6.4-3.2c0.9,0.1,1.8,0.3,2.7,0.5c1.2,0.3,2.4,0.5,3.1-0.7
	c0.8-1.3,0.1-2.4-0.8-3.4c-1.7-2-3.9-3.2-6.4-4c-1.1-0.3-2.7-0.1-3-1.9h-4.9C123,1263.4,121.9,1264.3,119.7,1265.7z M126.5,1287.7
	c-4.5,0.2-8.3-3.3-9-8.3c-0.7-5.4,2.3-9.8,8-11.1C118.5,1276.1,118.8,1281.4,126.5,1287.7z"/>
</svg>
