<?xml version="1.0" encoding="utf-8"?>
<!-- Generator: Adobe Illustrator 24.3.0, SVG Export Plug-In . SVG Version: 6.00 Build 0)  -->
<svg version="1.1" id="Layer_1" xmlns="http://www.w3.org/2000/svg" xmlns:xlink="http://www.w3.org/1999/xlink" x="0px" y="0px"
	 viewBox="0 0 48.8 48.8" style="enable-background:new 0 0 48.8 48.8;" xml:space="preserve">
<style type="text/css">
	.st0{fill:#FAFAFA;}
</style>
<g>
	<path class="st0" d="M24.3,49.8c-0.6,0-1.2-0.2-1.6-0.7l-6-6H8.1c-1.3,0-2.4-1.1-2.4-2.4v-8.6l-6-6c-0.9-1.1-0.9-2.5,0-3.4l6-6V8.1
		c0-1.3,1.1-2.4,2.4-2.4h8.6l6-6c1.1-0.9,2.5-0.9,3.4,0l6,6h8.6c1.3,0,2.4,1.1,2.4,2.4v8.6l6,6c0.9,1.1,0.9,2.5,0,3.4l-6,6v8.6
		c0,1.3-1.1,2.4-2.4,2.4h-8.6l-6,6C25.6,49.6,24.9,49.8,24.3,49.8z M8.1,7.7c-0.2,0-0.4,0.2-0.4,0.4v9.4l-6.6,6.6
		C1,24.2,1,24.5,1.2,24.8l6.5,6.5v9.4c0,0.2,0.2,0.4,0.4,0.4h9.4l6.6,6.6c0.1,0.1,0.4,0.1,0.7-0.1l6.5-6.5h9.4
		c0.2,0,0.4-0.2,0.4-0.4v-9.4l6.6-6.6c0.1-0.1,0.1-0.4-0.1-0.7l-6.5-6.5V8.1c0-0.2-0.2-0.4-0.4-0.4h-9.4l-6.6-6.6
		C24.6,1,24.3,1,24,1.2l-6.5,6.5H8.1z"/>
</g>
<path class="st0" d="M34.6,23.3l-2.2-2.2V18c0-0.9-0.7-1.6-1.6-1.6h-3.1l-2.2-2.2c-0.6-0.6-1.6-0.6-2.2,0l-2.2,2.2H18
	c-0.9,0-1.6,0.7-1.6,1.6v3.1l-2.2,2.2c-0.6,0.6-0.6,1.6,0,2.2l2.2,2.2v3.1c0,0.9,0.7,1.6,1.6,1.6h3.1l2.2,2.2c0.6,0.6,1.6,0.6,2.2,0
	l2.2-2.2h3.1c0.9,0,1.6-0.7,1.6-1.6v-3.1l2.2-2.2C35.2,24.9,35.2,23.9,34.6,23.3z M30.3,26.9v3.4h-3.4l-2.5,2.4L22,30.3h-3.4v-3.4
	l-2.5-2.5l2.5-2.4v-3.4H22l2.4-2.5l2.5,2.5h3.4V22l2.4,2.4L30.3,26.9z"/>
</svg>
