<svg id="Layer_1" data-name="Layer 1" xmlns="http://www.w3.org/2000/svg" viewBox="0 0 106.61 106.61"><defs><style>.cls-1{fill:#231f20;}.cls-2{fill:#f1f2f2;}</style></defs><title>kalamana-copy</title><path class="cls-1" d="M106.61,0V53.3A53.31,53.31,0,1,1,53.3,0Z"/><path class="cls-2" d="M75.27,58.46a46.48,46.48,0,0,0-10-14.81L65,43.41a32.36,32.36,0,0,0,8.9-18.08H64.49A23.33,23.33,0,0,1,46.31,43.51V53a32.6,32.6,0,0,0,11.25-3.81A37.22,37.22,0,0,1,69.32,72H33.1c.07-.17.15-.33.22-.5A46.38,46.38,0,0,0,37,53.3v-28H27.66v28A37.26,37.26,0,0,1,10.31,84.82a52.91,52.91,0,0,0,6.22,7.07,46.74,46.74,0,0,0,6.8-5.63,46.59,46.59,0,0,0,4.34-5h51c.15-1.54.23-3.09.23-4.66A46.43,46.43,0,0,0,75.27,58.46Z"/></svg>