<?xml version="1.0" encoding="utf-8"?>
<!-- Generator: Adobe Illustrator 24.3.0, SVG Export Plug-In . SVG Version: 6.00 Build 0)  -->
<svg version="1.0" id="Layer_1" xmlns="http://www.w3.org/2000/svg" xmlns:xlink="http://www.w3.org/1999/xlink" x="0px" y="0px"
	 viewBox="0 0 658.8 1402" style="enable-background:new 0 0 658.8 1402;" xml:space="preserve">
<style type="text/css">
	.st0{fill:#CBA86B;}
</style>
<g>
	<path class="st0" d="M656.7,785.7c-2.9-2.7-6-5.3-9.4-7.2c-5.9-3.2-12.2-5.7-18.4-8.5c-0.4-0.5-0.8-1.1-1.2-1.6
		c1.4-0.8,3.1-1.4,4.3-2.5c3.3-3.3,6.6-6.6,9.4-10.2c3.8-4.9,3.3-8.1-2.3-10.8c-5-2.5-10.5-4-15.9-5.4c-6.2-1.6-12.5-2.6-19.1-4
		c0.6-1.3,0.9-2,1.2-2.7c7-13.2,13.9-26.4,21-39.6c3.4-6.4,0.6-11.9-8-10.9c-4.5,0.5-9.1,1.3-13.9,2c0-1.9,0-3.3,0-4.8
		c0.1-8.5,0.5-17,0.2-25.5c-0.4-10.2-3.4-12.2-13.3-9.9c-0.6,0.2-1.3,0.4-1.9,0.6c-18.8,4.9-35.7,13.5-50.8,25.7
		c-1.4,1.2-3.2,1.9-4.9,3c-1.6-8.1-2.7-15.5-4.5-22.7c-2.2-9-6.9-11-13.8-4.8c-8.7,7.7-16.4,16.4-24.5,24.7
		c-1.3,1.3-2.4,2.9-3.9,4.7c-3.5-4.8-6.4-9-9.7-13c-3.5-4.3-6.9-4.2-10,0.4c-2,3-3,6.6-4.6,9.8c-0.7,1.3-1.7,3.4-2.7,3.4
		c-5.2,0.3-7.4,4-8.7,7.8c-3,9.1-5.9,18.4-7.6,27.8c-5.1,28-1.7,54.8,13.9,79.2c5.1,8.1,11.2,15.6,17.1,23.8c-1,0.9-2.1,2.3-3.6,3.2
		c-14.4,9.5-28.6,19.5-43.5,28.2c-29.2,17.1-57.7,34.9-82,59c-56.5,56-89.9,122.5-94.8,202.6c-0.1,1.9-0.5,3.8-0.7,5.7
		c-0.4,0-0.8,0-1.2,0c-0.3-2.6-0.7-5.1-0.9-7.7c-3.5-47.7,1-94.9,11.4-141.4c8.2-36.5,18.3-72.6,30-108.2
		c11.1-33.5,24.5-65.7,44.2-95.2c12.5-18.6,24.1-37.9,35.8-57.1c2.9-4.8,6.5-8.3,11.5-10.5c12.9-5.8,24.4-13.8,33.8-24.3
		c38.5-42.7,51.3-93.3,45.5-149.4c-0.6-5.9-2.1-11.8-3.5-17.6c-0.9-3.9-3.5-4.3-6.3-1.8c-16.6,15.4-33.7,30.3-49.5,46.4
		c-27.4,28.1-40.7,62.4-39.4,101.8c0.5,13.2,3.1,26.4,5.2,39.5c0.7,4.3,0.6,8-1.8,11.8c-17.4,28.2-34.6,56.4-51.9,84.7
		c-0.3,0.4-0.9,0.6-2.3,1.6c2.3-10.7,4.4-20.4,6.5-30.1c5.5-25.7,10.2-51.6,10.8-78.1c0.9-41-6.2-80.9-16.1-120.4
		c-2.8-11.3-5.3-22.2-2.8-34.3c5.4-26,12-51.5,20.6-76.6c3.5-10.4,7.6-20.6,11.5-30.9c1.2-3.3,2.8-5,5.9-1.5c1.5,1.7,3.6,3,5.6,4
		c34.9,18.6,71.7,14.1,102-11.8c3.5-3,6.6-6.6,9.3-10.3c4.1-5.5,2.2-10.1-4.5-11.7c-2.3-0.5-4.7-0.8-7.3-1.3c0.6-1.1,0.7-1.6,1-2
		c10.2-13.1,20.8-25.9,30.6-39.3c5.4-7.4,3.7-10.6-5.1-12.9c-1.4-0.4-2.9-0.7-4.4-0.9c-5.1-0.6-10.2-1.1-15.8-1.8
		c2-5.1,3.8-9.7,5.4-14.4c2.9-8.3,0.7-11.9-8-12c-7.8-0.2-15.6,0.1-23.4,0.6c-5.9,0.3-5.8,0.6-5.6-5.6c0.3-11.5,1.1-22.9-2.9-34.1
		c-3-8.3-6.5-10.1-14.8-6.5c-4.6,2-9,4.3-13.4,6.5c-3.5,1.8-5.7,1.8-7.7-2.6c-3-6.6-6.9-12.9-11-18.9c-3.1-4.6-6-4.7-10.6-1.4
		c-11.3,8.2-20.1,18.8-27.9,30.3c-1.2,1.7-2.5,3.3-3.7,4.8c-5.1-5.9-9.5-11.7-14.6-16.9c-5.5-5.8-9.9-5-13.5,2.3
		c-2.2,4.4-4.2,9.1-5.8,13.8c-3.2,9.4-3.1,9.5-11.4,4.5c-6.7-4-10.5-2.6-11.3,5.2c-0.9,8.1-0.6,16.3-1,24.4
		c-0.1,1.7-0.4,4.4-1.3,4.9c-5.2,2.2-4.5,6.5-4.4,10.6c0.6,17,6.9,32.1,15.5,46.3c10.7,17.7,25,31.4,44.4,39.3
		c6.1,2.5,6.2,2.3,3.8,8.3c-11.8,29.7-21.9,60-28.5,91.4c-1.1,5.3-2.4,10.6-3.6,15.9c-2.1-3.2-3-6.5-4.1-9.7
		c-13.8-40.2-32-78.5-51.7-116.1c-18.8-35.8-36.7-72.1-47.9-111.2c-3.5-12.3-5.7-25-8.4-37.5c-0.6-2.8-0.6-5.5,3.6-5.4
		c12.2,0.4,23.8-3,34.8-7.6c44.7-18.7,70.9-51.4,75.7-100.3c0.5-5.2-1.6-7.1-6.8-6.3c-2.8,0.5-5.6,1.4-8.8,2.2c0-1.7-0.1-2.9,0-4
		c2-19,0.9-37.9-3.3-56.6c-1.5-6.9-5.4-9-11.5-5.8c-3.1,1.6-6.1,3.4-9,5.4c-3.5,2.4-6.8,5.1-10.7,8.1c-0.8-2.1-1.3-3.6-1.9-5.1
		c-4.3-10.4-8.5-21-13.1-31.3c-3-6.6-6.5-7-11.2-1.5c-4.5,5.3-8.6,11-12.8,16.5c-1.7,2.2-3.2,4.4-5.2,7.2c-1.4-2.3-2.3-3.8-3.2-5.4
		c-5.2-9.3-10-18.8-15.8-27.7c-7.2-11-14.9-21.7-26.3-29c-5.4-3.5-8.3-3.1-11.7,2.4c-4.1,6.6-7.5,13.7-10.9,20.7
		c-2.2,4.4-4,8.9-6,13.4c-0.8,0.4-1.5,0.8-2.3,1.2c-1.3-2.1-2.4-4.5-4.1-6.2c-1.3-1.2-4-2.5-5.1-1.9c-4,2-6.7-0.2-9.6-2
		c-4.1-2.5-8.2-5.2-12.4-7.4c-13.1-7-16.2-5.6-21.1,8.6c-5.5,15.6-6.9,31.8-7.7,48.1c-0.2,5.1-1.5,6.1-6.5,5.3
		c-3.3-0.5-6.6-0.8-9.9-1.1c-6.6-0.4-8.3,1.9-5.9,8c0.8,2.1,1.9,4.1,3.2,7c-2.1-0.1-3.5-0.2-4.9-0.3c-8.4-1-16.8-2.2-25.2-3
		c-5.3-0.5-6.9,1.1-5.9,6.3c1.3,6.7,3,13.3,5.2,19.7c1.9,5.9,2.1,6-4.2,7.4c-4.5,1-9.1,2.1-13.5,3.7c-7.6,2.8-8.5,4.9-5.6,12.5
		c7.6,19.6,18,37.4,32.4,52.8c0.9,0.9,1.6,2,2.6,3.2c-1.4,1.2-2.5,2.1-3.6,3.1c-8.4,7.2-8.5,10.5-0.2,17.8
		c17,14.8,35.8,26.6,57.3,33.5c27.7,8.9,55.3,8.9,82.6-1.6c4.1-1.6,7.9-3.8,12.1-5.8c0.4,1.3,0.6,1.9,0.7,2.6
		c3.3,22,9.2,43.3,17,64.1c13.6,36.1,31.3,70.2,49.1,104.2c34.3,65.6,58.5,134.5,67.5,208.3c3.2,26.7,3.7,53.5,1.2,80.3
		c-0.1,1.4-0.5,2.8-0.8,4.2c-0.4-0.1-0.9-0.1-1.3-0.2c-0.2-4-0.5-7.9-0.7-11.9c-1.7-25.4-6-50.2-15-74.1
		c-15.4-41-41.2-74.8-73.8-103.3c-15.1-13.2-31.6-24.9-47.5-37.3c-3.4-2.6-6.2-5-5.6-10.1c2.7-23.5-6.3-42.2-24.1-57.1
		c-27.8-23.1-60.2-28.1-94.8-23.4c-4.8,0.6-5.9,2.6-4.3,7.9c7.1,24.2,18.1,46.1,37,63.4c23,21,49.4,28.4,79.8,20.6
		c1.7-0.4,4.2-0.1,5.5,1c19.6,15.4,39.8,30.1,58.5,46.6c28.3,25.1,49.6,55.5,63.3,91c15.9,41.3,18.8,84.2,13.5,127.9
		c-3.8,31.4-11.3,61.8-22.4,91.4c-1.4,3.8-2.6,7.7-3.8,11.5c-0.5-0.1-0.9-0.1-1.4-0.2c0-2.4,0-4.8,0-7.2c0-12.7,0.7-25.4-0.2-37.9
		c-1.5-21.9-4.2-43.7-6-65.6c-0.3-3.6,0.3-7.8,2-10.8c13.1-23.3,16.1-47.6,8.6-73.2c-7.8-26.4-24.3-46.8-45.7-63.2
		c-19.6-15-42.2-23.8-65.8-30c-7.5-2-15.3-3.2-23-4.1c-7.4-0.9-7.9,0-6.7,7.1c0.5,3.1,0.9,6.3,1.2,9.4c2.4,19.5,6,38.8,12.5,57.5
		c14.3,40.9,40.2,71,80.3,88.5c8.8,3.8,17.2,8.8,25.4,13.8c2.3,1.4,4.3,4.7,4.7,7.4c5.7,31.7,7.3,63.8,7.4,96
		c0,11.8,0,23.8-2.2,35.3c-3.3,17.6-8.4,34.9-12.8,52.4c-0.3,1.3-1,2.4-1.1,2.8c-2.8-14.7-5.2-30-8.9-45c-1.9-7.8-1.9-14.7,0.6-22.3
		c6.4-20,3.6-39.1-7.1-57.1c-14.8-24.7-36.9-39.7-63.7-48.5c-16.6-5.4-33.4-10.2-50-15.4c-6.1-1.9-7.9-0.8-6.7,5.6
		c2,10.8,3.9,21.6,6.8,32.2c10.8,38.7,33.4,67.7,70.5,84.4c12.4,5.6,25.1,10.6,37.5,16.4c2.8,1.3,6.2,4.3,6.7,7
		c3.2,16.3,5.8,32.7,8.4,49.1c0.7,4.6,1,9.4,0.4,13.9c-2.5,16.6-5.5,33.2-8.3,49.7c-6.1,36.8-7.3,73.8-3.5,111
		c4.1,39.8,9.9,79.3,21.1,117.8c1.9,6.6,4,13.2,6,19.8c-1.3-0.2-2-0.8-2.4-1.4c-17.9-27.9-35.9-55.7-49.6-85.9
		c-1.4-3-1.9-7.2-1.1-10.4c6-25.4,12.3-50.7,13.1-77.1c1.5-46.3-10.7-88.2-38.7-125.2c-2.5-3.3-5.4-6.3-8.4-9.2
		c-2.7-2.7-5.5-2.3-7.3,1c-1.8,3.3-3.3,6.9-4.7,10.4c-1.6,4.1-2.9,8.2-4.4,12.7c-0.9-0.8-1.4-1-1.7-1.4c-14.5-27.6-39-42.8-67-53.6
		c-4.8-1.8-6.7-0.4-6.9,4.8c-0.4,7.6-0.6,15.3-1.3,22.9c-2.7,29.4-5.6,58.7-2.4,88.2c3.2,29.8,10.9,58.3,26.2,84.2
		c21.4,36.3,51.8,58,95.5,56.9c4.3-0.1,5.5,2.8,7.1,5.8c11.7,20.5,23.4,41,35.4,61.4c8.7,14.8,19.4,28.6,26.2,44.1
		c16.9,38.9,34.5,77.5,53.9,115.2c1.1,2.1,2,4.2,3.4,6c0.6,0.8,2.5,1.4,3.3,1c0.8-0.4,1.3-2.2,1.1-3.3c-0.3-1.6-1.2-3.1-1.9-4.6
		c-14.1-29.6-28.6-59-42-88.9c-5.1-11.4-9.4-23.7-11.5-36c-5.4-31.2-1.8-62,6.1-92.5c2-7.6,6.2-13.6,13.3-16.4
		c7.8-3,16-5.5,24.3-6.8c10.6-1.7,21-3.5,30.6-8.6c21.5-11.4,32.9-30.4,39.6-52.8c2.7-8.9,4.2-18.3,7.9-26.8
		c4.6-10.4,10.7-20.2,16.5-30c3-5.1,1.9-8.6-3.8-10c-1.4-0.4-3-0.5-4.4-0.6c-27.7-0.9-54.3,3.6-79.4,16
		c-31.4,15.5-50.4,40-52.6,75.4c-0.7,11.1,2,22.4,3.2,33.6c0.6,6.2,3.3,12.9,1.7,18.4c-7,23.2-10.9,46.6-10.5,70.8c0,2.7,0,5.4,0,8
		c-0.4,0-0.9,0.1-1.3,0.1c-1.3-4-2.8-8-4-12.1c-9.6-32.2-17.7-64.6-16.6-98.5c0.5-14.4,1.5-28.9,3-43.3
		c3.3-31.7,11.5-62.2,25.9-90.7c2.1-4.2,5.9-8.6,10-10.5c15.4-7,31.2-13.1,47-19.3c1.6-0.6,4.2-0.5,5.6,0.4
		c16.6,11.3,35.8,15.3,55.1,17.8c35.8,4.6,70.6,0.2,102.8-16.7c19.4-10.2,37.7-22.3,56.3-34c5.9-3.7,5.5-5.6-0.3-9.8
		c-1.1-0.8-2.2-1.5-3.4-2.1c-10-5.3-19.9-10.8-30-15.7c-20-9.8-41.1-16.8-63.3-18.7c-39.4-3.4-71.6,11.1-96.7,41.5
		c-7.2,8.7-13.5,18.2-20.3,27.1c-1.4,1.9-3.5,3.8-5.6,4.4c-16.4,4.7-32.1,10.9-47,19.1c-0.8,0.4-1.6,0.6-3.2,1.2
		c0.9-2,1.2-3.3,1.9-4.4c9.2-13.7,17.6-27.9,27.7-40.8c26.6-34.1,58.9-61.7,96.9-82.8c20.9-11.6,42-23.2,60-39.3
		c0.7-0.6,1.7-0.9,1.6-0.9c5.5,6.6,9.9,13.6,15.9,18.9c27.8,24.9,59.8,32.9,95.9,21.7c6.6-2.1,13.2-4.5,19.4-7.5
		c4.6-2.2,5.1-6.5,1.7-10.4c-2.8-3.2-6.4-5.8-9.7-8.6c-1.7-1.4-3.4-2.7-5.7-4.5c2.3-0.8,3.7-1.3,5.1-1.8
		c20.1-7.6,38.1-18.8,54.6-32.6C659.5,791.4,659.7,788.5,656.7,785.7z M367,625.6c3.7-28.9,15.5-54,35.8-74.8
		c15.1-15.5,31.3-29.8,47.1-44.6c0.6-0.5,1.4-0.8,3-1.7c0.8,3.2,1.7,6,2,8.8c3.9,29.9,3,59.7-6.4,88.5c-11.8,36.3-31.7,66.9-66,86.2
		c-0.7,0.4-1.5,0.4-3.6,1c22.3-32,36.9-66.1,46-102.6c-0.5-0.2-1-0.4-1.6-0.7c-1.9,5-4,10-5.7,15.1c-9.3,28.3-22,54.9-38.2,79.8
		c-0.4,0.7-0.9,1.3-1.3,1.9c-0.4-0.2-0.8-0.4-1.2-0.6c1.4-8.1,2.8-16.1,4.1-24.2c-0.6-0.1-1.3-0.2-1.9-0.4
		c-4.8,7.7-4.4,17.2-8.3,25.7c-0.4-1.4-1-2.8-1.3-4.2C366.7,661.2,364.7,643.5,367,625.6z M459.3,389.5c3.7,0.8,3.1,3.1,1.4,5.6
		c-6.1,8.7-14.7,14.3-23.7,19.4c-21.5,12.5-44.1,14.9-67.7,6.9c-3.7-1.2-7.1-3.3-10.6-5.6c22.2,3.4,43.3-0.9,64.5-5.6
		c-0.1-0.8-0.1-1.7-0.2-2.5c-18,2.5-35.9,7.2-54,1.6c17.7-0.2,32-9.1,46.3-17.5C429.9,383.4,444.5,386.4,459.3,389.5z M460.8,330.7
		c5.9,0.9,11.9,1.4,17.8,2.4c4.9,0.8,5.7,2.3,2.8,6.3c-7.6,10.7-15.5,21.2-23.4,31.7c-1.8,2.4-4.2,4.4-5.8,6.8
		c-3.6,5.5-8.6,7.3-14.6,5.3c-7.7-2.7-14.1-0.1-20.8,3.4c-11.4,5.8-23,11.2-34.7,16.3c-2.9,1.3-6.5,1-9.8,1.4
		c-0.1-0.4-0.1-0.9-0.2-1.3c4-1.8,8-3.5,12-5.4c22.1-10.9,41.1-25.8,57.2-44.3c4.9-5.6,8.6-12.2,12.4-18.6
		C455.5,331.4,457.4,330.2,460.8,330.7z M425.7,309.7c0.9-3.4,2.1-4.9,5.5-5c8.5-0.1,17-0.4,25.4-0.4c4.8,0,5.7,1.3,4.1,5.8
		c-6.7,19.1-16.3,36.4-31.2,50.4c-15.9,14.9-33.4,27.4-53.5,35.9c-2.8,1.2-5.8,2-8.7,3c-0.2-0.4-0.5-0.8-0.7-1.3
		c1.2-1,2.3-2,3.5-2.9c18.6-14.6,34.5-31.8,45-53C420.2,332.2,422.7,320.7,425.7,309.7z M369.5,389.7c6.2-11,11.9-20.5,17-30.3
		c6.9-13.3,12.1-27.3,14.4-42.3c1.2-7.8,11.4-14,19.1-11.9c0.8,0.2,1.9,2.2,1.7,3.2c-3.5,20-10.8,38.4-24.4,53.7
		c-6.9,7.8-14.3,15.3-21.6,22.8C374.2,386.5,372.2,387.6,369.5,389.7z M400.5,262.7c3.7-2.2,7.7-4,11.7-5.6c4.5-1.8,6.6-0.5,8,4.2
		c3.4,11.3,4,22.9,3.4,34.6c-0.2,3.6-1.7,4.7-5.1,5.2c-5.1,0.7-10.2,2.3-15.7,3.6c0-1.9-0.1-4,0-6.1c0.6-10.7,0.9-21.3-3.9-31.3
		C398.4,266.2,399.4,263.3,400.5,262.7z M396.4,271.3c1.7,8.9,3.1,18.1,2.6,27.1c-1.8,33.2-14.2,62.5-34.7,88.5
		c-3.6,4.6-7.4,9.4-13.5,11.2c-3-3.8-2.1-7.6-0.9-11.2c3.9-12.1,3.6-24.6,3.4-37.1c0-2-0.7-4.1-1-6.1c-0.5,0-1.1,0-1.6,0
		c-0.4,7.9-0.3,15.8-1.2,23.7c-0.9,7.9-2.7,15.8-4.1,23.7c-0.7,0-1.4,0-2.1-0.1c-0.8-3.8-1.6-7.7-2.3-11.5c-0.2,0-0.4,0-0.6,0.1
		c0,3.5,0,7.1,0,10.6c-0.3,0.1-0.7,0.1-1,0.2c-0.4-1.9-1.2-3.9-1-5.7c1.3-15.7,2-31.5,4.3-47.1c1.8-12.5,7.6-24,15.1-33.9
		c9.2-12.1,19.8-23.2,30.2-34.4C392.1,264.7,395.2,265.2,396.4,271.3z M341.7,271.3c6.9-11.5,15.7-21.4,26.2-29.8
		c2.9-2.3,5.4-2.6,7.4,0.9c3.7,6.5,7.2,13,10.6,19.7c0.5,1,0.2,3.1-0.6,3.9c-8.6,10-17.4,20-26.2,29.9c-0.2,0.2-0.6,0.3-0.7,0.4
		c-5.9-7.2-11.6-14-17.1-21C340.7,274.4,341.1,272.3,341.7,271.3z M280.8,306.3c0.7-7.5,0.9-15,1.5-22.4c0.2-2,1.4-3.9,2.1-5.8
		c1.7,0.8,3.5,1.5,5.2,2.3c0.7,0.4,1.4,1,2.1,1.3c5,2.2,5.5,5.9,4.7,11c-1.4,8.8-1.8,17.8-2.6,26.7c-0.1,1.4-0.2,2.8-0.3,4.4
		C285,321.3,280,314,280.8,306.3z M276.6,315.8c2.2,1.9,3.8,3.4,5.5,4.9c1.8,1.7,3.3,4.1,5.5,5c6.2,2.8,7.6,8.1,8.7,14
		c4,21.3,13.4,39.9,27.6,56.2c0.7,0.8,1.3,1.8,2.2,3C300.7,392.1,268.9,339.2,276.6,315.8z M311.6,325.2
		c-4.3,22.2,2.2,42.2,12.5,61.5c-0.6,0.3-1.2,0.6-1.9,0.9c-3.2-4.7-7-9.1-9.6-14.1c-8.7-16.7-14.6-34.5-15-53.4
		c-0.4-20.9,3.4-41.4,12.9-60.4c2.3-4.6,3.8-4.8,7.2-0.8c4.4,5,8.6,10.2,12.4,15.6c1.2,1.7,1.6,5,0.8,6.8
		c-12.6,26.8-9.6,54.9-7.6,83c0.3,4,1.1,8.4,5.6,11.6c2.3,1.6,1.9,6.9,2.1,10.7C317.2,368.4,312,347.5,311.6,325.2z M335.3,366.2
		c-0.3,2.9,0,5.9,0,8.8c-0.6,0-1.2,0.1-1.8,0.1c-0.9-8.3-1.9-16.6-2.8-24.9c-0.6,0-1.1,0-1.7,0.1c0,5.7,0,11.4,0,17.2
		c-0.7,0-1.3,0-2,0c-2-15.2-1.8-30.5-1.4-45.7c0.3-15.6,4.3-30.3,11.5-44.1c0.7-0.2,1.5-0.4,2.2-0.6c4.7,6.9,9.7,13.7,14.1,20.9
		c0.8,1.3,0.2,4.1-0.6,5.9c-4.7,11.3-10.8,22.2-14.3,33.8C335.9,346.7,336.2,356.7,335.3,366.2z M297.4,134.4c0.8-0.2,1.6,0,3.2,0
		c-2,24.8-10.4,46.8-26.3,65.1c-16.5,19-37.9,30.5-62.6,35.8c19.2-14.5,36-31.2,52.2-48.6c-0.6-0.7-1.2-1.4-1.8-2
		c-12.6,11.7-25.2,23.4-37.9,35c-0.1-0.1-0.1-0.3-0.2-0.4c5.9-8.7,12.5-17.1,17.5-26.3c5.5-10.2,9.5-21.2,14.3-31.8
		c0.9-1.9,1.6-4.2,3.1-5.6C270.1,145.7,282.6,138,297.4,134.4z M258.3,82.2c5.9-4.6,12-8.9,18.2-13c3.4-2.2,5.1,0.4,5.5,3.2
		c1.6,10.3,3.5,20.7,4.2,31.1c0.6,8.4-0.3,16.9-1,25.4c-0.1,1.8-1.5,4.2-3,5.2c-7.2,4.8-14.6,9.2-21.9,13.8
		c-0.5,0.3-1.2,0.4-2.4,0.8c0.5-4.6,0.9-8.6,1.5-12.7c2.2-16.4,1.1-32.5-2.6-48.5C256.5,85.9,257.2,83.1,258.3,82.2z M216.1,65.3
		c5.3-6.9,10.3-13.9,15.5-20.8c2.3-3.1,4.3-3.1,6.1,0.7c17.6,36.5,23.2,74.6,13.1,114.1c-4.8,18.6-13.5,35.7-25.1,51.3
		c-2.2,2.9-4.3,5.9-6.5,8.8c-0.2,0.2-0.6,0.2-0.9,0.3c-0.4-0.1-0.8-0.3-1.3-0.4c15.5-25.2,19.4-52.8,19.4-81.3
		c-0.8-0.2-1.5-0.4-2.3-0.6c-0.6,2.1-1.4,4.2-1.7,6.4c-1.8,13.2-2.8,26.5-5.4,39.5c-2.5,12.6-8,24.3-15.4,34.9
		c-0.9,1.2-1.2,2.8-1.8,4.2c-0.8-0.6-1.6-1.2-2.4-1.8c0.5-1.9,0.8-3.9,1.5-5.8c8.3-22.6,13.7-46,15.4-70c1.7-23.5-2-46.5-9.6-68.8
		C213.4,72,213.5,68.7,216.1,65.3z M206.4,65.6c12.1,28.9,16.2,59.1,12.3,89.9c-2.1,16.5-7.5,32.6-11.5,48.9
		c-0.3,1.4-1.2,2.6-1.2,2.7c-1.3-15.7-1.9-32.1-4.1-48.4c-2.9-21.5-11.4-41.3-21.3-60.4c-1.6-3.1-2-5.7-0.1-8.7
		c5.3-8.6,10.1-17.6,15.9-25.8C200.6,57.9,203.6,58.8,206.4,65.6z M141.4,40.5c4.8-10.6,9.7-21.2,15.1-31.5
		c3.3-6.2,4.5-6.1,10.2-1.6c11.6,9.4,19.7,21.5,27.5,34c2.1,3.4,4.2,6.8,5.9,10.4c0.5,1.1,0.3,3.7-0.4,4.1c-8.1,4.1-12,11.7-16.3,19
		c-2.5,4.3-4.8,8.7-7.5,13.8c-5.2-7.5-9.5-14.4-14.5-20.8c-5.9-7.6-12.3-14.8-18.4-22.3C141.9,44.2,140.9,41.7,141.4,40.5z
		 M79.2,71.5c1.9-13.3,3.2-29.4,10-44.4c1.8-4,4-5.3,8-2.9c6.9,4,13.9,7.7,20.8,11.8c0.9,0.5,1.5,2.6,1.2,3.6
		c-5.6,16.9-8.6,34.1-9.1,51.9c-0.1,3.8-1.7,4-4.8,2.5c-6.2-3.1-12.5-6.2-18.9-8.9C78.9,82.1,78.8,82.3,79.2,71.5z M83.2,88
		c8.1,3.7,16.3,7.5,24.2,11.6c1.4,0.7,2.6,3.1,2.8,4.8c3.9,45.1,24.3,82.4,54,115.3c2,2.2,3.8,4.5,5.7,6.8
		c-25-19.7-49.8-39.6-67.4-66.7c-10.5-16.2-18.2-33.6-22.7-52.3c-1.3-5.3-1.1-10.9-1.4-16.4C78.1,87.5,80.3,86.7,83.2,88z
		 M60.3,86.1c3.3,0.5,6.5,1.5,9.6,2.6c0.9,0.3,2,1.4,2.2,2.4c1,4.1,1.7,8.3,2.7,13.5c-8.3-2.5-16.2-3.6-18.9-12.9
		C54.6,87.1,55.4,85.4,60.3,86.1z M24,103.1c-0.7-2.5-0.4-4.3,3-3.9c15.4,1.4,30.8,3.3,45.2,9.5c1.6,0.7,3.5,2.3,4,3.8
		c14.2,48.5,45.8,83.7,85.7,112.6c0.9,0.7,1.8,1.4,2.7,2.1c0.1,0.1,0,0.3-0.1,1.1c-29.8-12.5-54.3-32.1-76.5-55
		c-0.6,0.6-1.2,1.1-1.7,1.7c1.2,1.7,2.1,3.6,3.5,5.1c15.6,17.2,33.6,31.3,53.8,42.5c9,5,18.2,9.4,27.4,14.1
		c-0.1,0.4-0.2,0.9-0.4,1.3c-5.9-1.1-11.7-2.1-17.6-3.4c-22-5-40.9-16.2-59.3-28.7c-28.9-19.6-49.1-46-62.1-78.1
		C28.4,119.9,26.4,111.4,24,103.1z M5.4,142.7c-1-2.7-0.6-4.7,2.3-5.5c6.1-1.7,12.1-3.4,18.3-4.8c1.1-0.2,3.4,0.9,3.8,1.9
		c8.1,19.5,20.3,36.2,33.9,51.9c0.5,0.6,0.7,1.4,1.3,2.6c-1.6,0.4-2.8,0.6-4,1c-5.9,2-12,3.6-17.7,6.1c-2.9,1.2-4.5,1.7-6.7-0.9
		C22.9,179.5,12.4,162.1,5.4,142.7z M157,253.6c-45.1,10.3-83.5-4-118-32.5c-0.8-0.6-1.5-1.3-2.3-2c-7.3-6.2-7.4-6.9-0.2-13.1
		c7-6.1,14.9-10.4,24.1-12.4c6.4-1.4,11.3,0.6,16.5,4.4c12.5,9.3,25.3,18.4,38.7,26.3c8.8,5.2,18.7,8.4,28.2,12.5
		c3.6,1.5,7.2,3,10.7,5.6c-16.4-2.1-32.8-4.1-49.2-6.2c-0.1,0.6-0.1,1.3-0.2,1.9c22.5,6.5,45.6,8.5,69.2,7.5
		c0.1,0.8,0.1,1.7,0.2,2.5C168.9,250.1,163,252.2,157,253.6z M187.9,223.5c-1.7-1.3-2.7-1.7-3.2-2.5c-8.3-11.7-14.3-24.7-16.8-38.6
		c-1.8-10-6.2-18.4-11.1-26.7c-1-1.7-2.8-3.1-5.2-5.7c0.2,2.3,0.1,3.3,0.4,4c4.5,11.8,9.4,23.4,13.5,35.3c4.7,13.4,10,26.4,18.4,38
		c0.8,1.1,1.4,2.4,2,3.6c-0.3,0.3-0.6,0.7-0.9,1c-1.8-1.2-3.9-2.1-5.5-3.5c-42-38.9-67.6-85.5-64.6-144.2c0.8-15.2,6-30.2,9.3-45.3
		c0.7-3.2,2.3-3.4,4.9-1c26.9,25.4,47.4,55.1,60.2,90c10.2,27.9,13.1,56.6,8.7,86c-0.2,1.6-0.8,3.2-1.2,4.7
		c-0.7,0.1-1.5,0.2-2.2,0.4c2.7-32.8-8.2-60.7-28.8-85.2c-1.2-1.4-2.8-2.5-4.2-3.8c-0.5,0.3-0.9,0.7-1.4,1c1.1,1.8,2,3.7,3.2,5.4
		c9.8,13.3,19.3,27,23.1,43.3c2.9,12.3,4,25.1,5.9,37.7c-0.7,0.2-1.4,0.4-2.2,0.6c-6.2-13.1-12.4-26.2-18.6-39.3
		c-0.8,0.4-1.5,0.7-2.3,1.1C175.4,194,181.5,208.2,187.9,223.5z M172.1,465.8c-16.5-27.3-39.1-45.2-67.7-55.3
		c-0.3,0.4-0.7,0.8-1,1.2c1.1,0.9,2.2,1.9,3.4,2.7c11.6,7.3,23.8,14,34.8,22.1c11.6,8.6,20.2,20.2,27.1,32.9
		c0.4,0.7,0.5,1.5,0.2,2.6c-8.2-7.9-16.4-15.7-24.6-23.6c-0.5,0.5-0.9,0.9-1.4,1.4c5.7,6.3,11.4,12.5,17.1,18.8
		c-0.3,0.3-0.6,0.7-0.8,1c-9.8-8.1-19.7-16.2-29.5-24.3c-0.6,0.7-1.1,1.4-1.7,2.1c12,10.4,24,20.8,36.4,31.6
		c-12.4-1.9-23.2-6.9-32.9-13.8c-17.6-12.6-34.5-26.1-48.8-42.5c-1.4-1.7-3.2-3-5.4-3.9c9.9,14.8,23.1,26.4,36.6,37.7
		c13.6,11.4,27.6,21.9,45.2,26.7c-9.1,2.1-18.2,2.2-27.1,0.1c-34.6-8.1-55.7-31.4-69.3-62.7c-2.6-5.9-4.2-12.3-6.3-18.4
		c-1.1-3.3,0-5.1,3.6-5.3c23.4-1.4,46.5-0.9,68.3,9.8c23.8,11.7,40.4,28.9,44.5,56.1C172.9,463.2,172.7,463.5,172.1,465.8z
		 M270,730.3c-7-7.8-13-14.6-19-21.4c-0.7,0.6-1.3,1.1-2,1.7c5.3,7.3,10.7,14.6,16,21.9c-0.3,0.3-0.5,0.6-0.8,0.9
		c-1.6-0.9-3.1-2-4.7-2.8c-11.2-5.8-22.5-11.4-33.6-17.5c-26.9-14.7-45.2-36.9-57.5-64.8c-11-24.9-15.2-51.2-18.5-77.9
		c-0.3-2.6,0.1-4.4,3.3-3.8c33.9,6.3,66,16.8,92.7,39.9c15.5,13.4,27.5,29.3,34.7,48.6c8.8,23.5,6.4,46.4-2.7,69.1
		c-0.2,0.5-0.5,0.9-0.8,1.3c-0.2,0.2-0.5,0.4-1.9,1.4c-5.7-46.5-22.1-87.4-55.4-120.4c-1-0.9-2.2-1.6-4.2-1.8
		C247.2,640.4,267,680.8,270,730.3z M246.1,869.7c-13.5-29.4-32.8-53.7-59.6-71.9c24.2,22.7,46.8,46.4,56,79.5
		c-0.4,0.5-0.8,0.9-1.1,1.4c-4.8-1.8-9.6-3.4-14.3-5.3c-18.3-7.4-36.8-14.6-52.2-27.7c-24.5-20.6-36.9-47.8-43.3-78.4
		c-1-4.9-2-9.8-2.9-14.7c-0.3-1.5-0.3-3.1-0.4-5.5c5.3,1.9,9.7,3.8,14.3,5.2c14.8,4.5,29.9,8.2,44.4,13.4
		c23.9,8.6,43.1,23.4,56.1,45.7C254,830.2,253.8,849.6,246.1,869.7z M213.6,1149.9c-0.2,0.9-0.6,1.8-1.5,2.8
		c-4.9-10.8-15.6-18.9-13.1-33c3-16.5,5.2-33.2,7.7-49.8c0.5-3.5,0.9-7.1,0.4-10.8c-5.6,19.8-10.6,39.7-12.2,61.8
		c-1.6-2.1-2.5-3-3-4c-7.7-15.6-15.5-31.3-23-47c-1.5-3.2-2.5-7-2.5-10.5c-0.3-16.8-0.2-33.6-0.2-50.4c0-1.9,0-3.8-0.8-5.7
		c-4.5,15.4-4,31.2-4.7,47.4c-0.8-1.6-1.8-3.1-2.5-4.8c-9.4-23.1-18.3-46.4-28.2-69.4c-4.8-11.1-11.2-21.6-16.9-32.3
		c-0.9-1.7-2.2-3.3-3.3-4.9c-0.5,0.2-1,0.4-1.4,0.6c11,20,20.7,40.6,27.6,62.8c-7.8-5.1-15.6-10.2-23.4-15.2
		c-0.4,0.4-0.7,0.9-1.1,1.3c1.2,1.1,2.3,2.4,3.6,3.4c7.4,5.6,15,11.1,22.3,16.8c1.7,1.4,3.4,3.3,4.2,5.3c9.1,21.8,18,43.7,27,65.5
		c0.5,1.2,0.8,2.4,1.7,5.1c-16.9-9-32.7-17.4-48.5-25.8c-0.2,0.4-0.5,0.8-0.7,1.1c3.2,2.3,6.1,4.9,9.5,6.8
		c11.2,6.5,22.5,12.9,33.9,19.1c6.6,3.6,11.4,8.3,14.8,15.4c7.6,15.7,16.1,31,24.3,46.4c0.5,1,0.9,2,0.6,3.9
		c-11.4-6.1-22.7-12.2-34.1-18.3c-0.3,0.5-0.6,0.9-0.9,1.4c1.7,1.4,3.2,3,5,4.1c11,6.6,22,13.1,32.9,19.7c1.4,0.9,2.6,2.3,5,4.5
		c-3.3,0.4-5.2,0.8-7,0.8c-37.8-0.1-65.1-18.5-84.8-49.4c-20.1-31.6-29-66.8-29.4-103.9c-0.2-22.9,1.7-45.9,2.7-68.8
		c0.3-7.2,0.9-14.3,1.4-21.4c0.1-1.6,0.3-3.2,0.4-5.2c1.6,0.2,2.8,0,3.8,0.4c21.6,9,41.5,20.5,55.7,39.7c3.2,4.4,5.4,9.5,8.2,14.2
		c1.1,1.9,2.7,3.5,4,5.3c1.1-1.9,2.5-3.7,3.2-5.7c2.5-6.7,4.5-13.6,7.1-20.2c1.8-4.7,3.2-4.9,6.5-1.1c11.1,12.4,19.1,26.8,26,41.8
		c18.5,40.3,19.7,82.4,11.6,125.2C219.6,1126.7,216.4,1138.2,213.6,1149.9z M287.4,1137c-6.2-39.4,11.4-72.6,48.8-92.4
		c24.2-12.7,50.1-17.2,77.2-16.3c1.3,0,2.7,0.2,3.9,0.5c3.4,0.8,4,2.7,1.9,5.3c-12.5,15.6-18.7,33.9-23.3,53
		c-4,16.6-11.3,31.6-23.8,43.6c-11.1,10.7-24.3,16.6-39.6,18.1c-12.2,1.2-24.1,3.1-35,9.8c4.9-17.4,13.1-33.2,23.5-47.5
		c10.4-14.2,21.9-27.7,32.6-41.7c-28.2,23.9-48.2,53.6-62.1,88.1C290.1,1150.7,288.5,1143.9,287.4,1137z M351.1,968.7
		c14.5-6.6,29-13.2,43.5-19.8c18-8.2,36.2-16.2,55.9-19.4c9.5-1.5,19.2-1.7,28.8-2.4c2.2-0.2,4.5-0.3,6.7-0.4c0.1-0.5,0.1-1,0.2-1.5
		c-1.6-0.4-3.1-1-4.7-1.1c-27.9-1.7-54.1,5-79.3,16.2c-15.6,7-31.2,14.1-46.8,21.1c-0.4,0.2-0.9,0.1-2.6,0.3
		c2.9-4.1,5.2-7.5,7.7-10.8c12.2-16.1,25.5-31.2,43.7-41c24.3-13,50.1-14.9,76.5-9c26,5.8,50,16.7,73,30c2,1.1,3.8,2.5,6.4,4.2
		c-1.4,1.3-2.3,2.4-3.4,3.2c-21.1,13.9-42.1,28.1-65.8,37.3c-34.9,13.5-70.7,16.8-107.2,7.1c-8.8-2.3-17.3-5.7-25.9-8.7
		c-2.4-0.9-4.6-2.4-6.9-3.6C350.9,969.8,351,969.3,351.1,968.7z M604.3,740.7c9.5,2.1,19.2,3.8,28.6,6.5c8,2.3,8.4,4.4,2.6,10.3
		c-16.7,17.2-35.8,31.1-57.7,41.1c-21.5,9.8-44.5,11.7-67.6,12.8c-0.9,0-1.9-0.2-2.9-0.3c17.8-8.1,33.8-18.8,49.6-29.7
		c15-10.4,27.7-23.3,39.3-37.3C598.6,741.3,600.7,739.9,604.3,740.7z M552.9,665.3c12.6-8.1,26-14.1,40.6-17.2
		c5.7-1.2,6.9-0.6,7,4.9c0.2,9.5,0.2,19-0.2,28.4c-0.1,1.7-1.9,4.3-3.6,5c-13.9,5.8-28,11.3-42,16.9c-0.9,0.4-1.8,0.7-2.5,0.9
		c-1.6-8.3-2.6-16.3-4.7-23.8C544.8,670.6,544.4,670.8,552.9,665.3z M468.8,667.4c2.4-4.3,3.7-4.5,6.6-0.6c2.6,3.5,5,7,7.2,10.7
		c0.7,1.1,1.1,3,0.6,4c-3.8,7.3-7.9,14.5-12.4,22.7C466.8,691.4,461.9,679.8,468.8,667.4z M448.2,755.6c-4.4-24.3-1.8-48.1,7.6-71
		c0.4-1.1,1.6-1.9,2.4-2.8c0.8,1.1,2,2.1,2.3,3.3c2.3,8,4.6,16,6.6,24.1c0.5,1.9,0.1,4.3-0.5,6.2c-5.9,19.9-10.5,40-5.4,60.9
		c1.6,6.5,4,12.8,6.1,19.2C457.1,784,450.9,770.5,448.2,755.6z M473.9,775.5c-2.7-13.6,0.7-26.3,6.9-38.1
		c6.1-11.7,13.4-22.8,19.7-33.2c-4.1,1.5-12.3,10.1-18.8,22.9c-4.7,9.3-9.3,19.1-11.2,29.2c-1.9,10.1-0.4,20.9-0.4,31.4
		c-0.6,0.1-1.2,0.2-1.8,0.2c-1.4-7.9-4-15.7-4.2-23.6c-0.7-46.5,17.7-84.6,52.9-114.6c4.9-4.2,6.5-3.6,7.8,2.7
		c1.4,7,2.6,14.1,3.5,21.1c0.2,1.5-0.4,3.9-1.5,4.8c-16.2,12.7-24.4,30.9-34,48.2c-8.3,14.8-14.3,30.4-17.6,47
		C475,774.2,474.6,774.9,473.9,775.5z M478.6,791.7c-0.5-0.1-1.1-0.2-1.6-0.3c1.5-8.6,2.4-17.3,4.7-25.7
		c6.9-24.9,18.6-47.8,33.6-68.6c5.6-7.8,14-13.6,21.2-20.2c2.5-2.3,5.1-2.3,5.8,1.6c1.6,8.6,3.1,17.2,4.1,25.9
		c0.2,1.5-2.1,4.1-3.8,5c-26.9,13.5-43.7,36.2-56.4,62.5C483.1,778.2,481.1,785,478.6,791.7z M483.9,794.5
		c9-32.8,25.4-60.3,55.4-78.1c23.7-14,48.7-25.4,76.4-29.3c1.2-0.2,2.3-0.4,3.5-0.5c4.3-0.2,5.5,1.1,3.5,4.9
		c-6.5,12.9-12.2,26.4-20.4,38.2c-20.1,28.9-46.4,51.2-77.7,67.3c-5.5,2.8-11.3,4.9-17,7.2c-0.7,0.3-1.5,0.3-3.7,0.6
		c1.7-1.5,2.4-2.3,3.2-2.8c17.3-10.1,30-24.3,39.3-42.1c3.2-6.1,8-11.2,12.2-16.7c1.2-1.6,2.8-3.1,4.2-4.6c-0.2-0.4-0.5-0.7-0.7-1.1
		c-1.1,0.4-2.3,0.5-3.2,1.1c-6.6,4.3-12,9.5-15.2,17.2c-9.4,22.6-26.9,37.6-47.8,49.1c-1.4,0.8-3.2,0.8-4.9,1.2
		c-0.4-0.5-0.7-0.9-1.1-1.4c9.3-11.4,18.5-22.9,27.8-34.3c-0.4-0.4-0.9-0.8-1.3-1.1c-5.7,6.3-11.4,12.5-17.1,18.8
		c-0.6-0.6-1.3-1.2-1.9-1.8c10.1-17,28.8-27.5,35.5-47.1c-8.5,9.7-17.2,19.2-25.3,29.2c-8.1,10-15.6,20.6-24,31.7
		C483.6,797.8,483.4,796.1,483.9,794.5z M605.7,841c6,4.8,5.6,7-1.6,9.6c-18.6,6.8-37.5,11.8-57.5,8.4
		c-23.2-3.9-42.3-15.1-57.1-33.5c-1.3-1.6-2.3-3.6-3.4-5.4c0.3-0.4,0.6-0.8,0.9-1.2c21.6,16.7,46.1,26.4,72.9,29.7
		c0.2-0.4,0.4-0.8,0.5-1.2c-2-0.8-4-1.8-6.1-2.3c-17.9-4.7-35.5-10.1-51.5-19.7c-1.6-0.9-3.1-2-4.5-3.1c-0.3-0.2-0.5-0.8-1.1-1.8
		c7.6,1.1,14.6,1.9,21.5,3c18.6,2.9,37.1,2.8,55.6-0.6c4.4-0.8,7.9,0.4,11.4,3.3C592.1,831.4,599.2,835.9,605.7,841z M650.5,793.9
		c-16.2,12.7-33.6,23.2-53.1,30.2c-3.3,1.2-5.9,1.2-8.7-1.2c-5.6-4.8-12.2-5.3-19.3-4.4c-17.4,2.1-34.8,3-52.2,0.6
		c-1.4-0.2-2.9-0.6-4.3-0.9c0-0.4,0-0.9,0-1.3c4.4-0.3,8.8-0.7,13.2-1c35.8-2.5,66.8-16.6,94.1-39.4c2.8-2.3,5.3-3.3,8.5-1.9
		c7.1,3.2,14.4,6,21.2,9.8C655.9,787.8,655.8,789.7,650.5,793.9z"/>
	<path class="st0" d="M351.9,392.4c0.9,0.4,1.8,0.8,2.7,1.2c3.1-6.4,6.6-12.7,9.2-19.4c5.8-15,9.8-30.4,6.7-46.7
		c-0.3-1.6-1.9-3.1-2.9-4.6c-0.5,1.7-1.6,3.5-1.3,4.9c3.7,16.9-0.4,32.6-7.3,47.9C356.5,381.2,354.2,386.8,351.9,392.4z"/>
	<path class="st0" d="M524.9,805c19.5-4,37.3-11.9,53.9-22.7c-0.2-0.4-0.4-0.8-0.6-1.3C560.4,789.1,542.7,797,524.9,805z"/>
	<path class="st0" d="M388.3,382.9c15.3-7.9,28-18.6,35.3-34.6C413.4,361.5,402.2,373.6,388.3,382.9z"/>
</g>
</svg>
