<?xml version="1.0" encoding="utf-8"?>
<!-- Generator: Adobe Illustrator 24.3.0, SVG Export Plug-In . SVG Version: 6.00 Build 0)  -->
<svg version="1.0" id="Layer_1" xmlns="http://www.w3.org/2000/svg" xmlns:xlink="http://www.w3.org/1999/xlink" x="0px" y="0px"
	 viewBox="0 0 340.2 431.4" style="enable-background:new 0 0 340.2 431.4;" xml:space="preserve">
<style type="text/css">
	.st0{fill:#FFFFFF;}
	.st1{opacity:0.1;}
	.st2{fill:#545454;}
</style>
<g class="st1">
	<path class="st2" d="M131.1,45.4l39-39c11.3,11.3,39,39,39,39l9.2-9.2c0,0-23.7-23.7-36.2-36.2h-24l-36.2,36.2L131.1,45.4z"/>
	<path class="st2" d="M143.8,58.1l9.2,9.2l17.2-17.2c6.4,6.4,17.2,17.2,17.2,17.2l9.2-9.2c0,0-20.2-20.2-21.7-21.8l-4.6-4.6
		L143.8,58.1z"/>
	<polygon class="st2" points="39.8,137.4 78.8,176.4 88,167.2 39.8,119 0,158.7 0,176.7 0,177.1 0.2,176.9 	"/>
	<polygon class="st2" points="56.3,189.3 29.9,215.7 56.3,242.2 65.5,233 48.2,215.7 65.5,198.4 	"/>
	<polygon class="st2" points="121.9,89.1 131.1,79.9 92,40.8 133.1,0 114.7,0 73.6,40.8 	"/>
	<polygon class="st2" points="77.8,14.1 62.3,0 43.1,0 69.1,23.8 	"/>
	<polygon class="st2" points="296.6,176.6 335.7,215.7 296.6,254.9 305.8,264 340.2,229.6 340.2,220.2 340.2,211.2 340.2,201.9 
		305.8,167.4 	"/>
	<polygon class="st2" points="252.3,167.2 261.5,176.4 300.5,137.4 340,176.9 340.2,177.1 340.2,176.7 340.2,158.7 300.5,119 	"/>
	<polygon class="st2" points="283.9,242.2 310.4,215.7 283.9,189.3 274.7,198.4 292,215.7 274.7,233 	"/>
	<polygon class="st2" points="209.2,79.9 218.3,89.1 266.7,40.8 225.6,0 207.1,0 248.3,40.8 	"/>
	<path class="st2" d="M332.8,0L213.7,119.1l-43.6-43.6l-4.6,4.6c-1.8,1.8-28.2,28.2-39,39L7.4,0H0v11l126.5,126.5l4.6-4.6
		c0,0,27.7-27.7,39-39l43.6,43.6L340.2,11V0H332.8z"/>
	<polygon class="st2" points="297.2,0 277.9,0 262.4,14.1 271.2,23.8 	"/>
	<path class="st2" d="M170.1,237.5c1.6-1.6,21.8-21.8,21.8-21.8s-20.2-20.2-21.8-21.8c-1.6,1.6-21.8,21.8-21.8,21.8
		S168.5,235.9,170.1,237.5z"/>
	<polygon class="st2" points="43.7,254.9 4.5,215.7 43.7,176.6 34.5,167.4 0,201.9 0,211.2 0,220.2 0,229.6 34.5,264 	"/>
	<path class="st2" d="M174.7,395.1c1.6-1.6,21.7-21.8,21.7-21.8l-9.2-9.2c0,0-10.7,10.7-17.2,17.2L153,364.2l-9.2,9.2l26.4,26.4
		L174.7,395.1z"/>
	<polygon class="st2" points="88,264.2 78.8,255 39.8,294.1 0.2,254.5 0.2,254.5 0,254.3 0,254.8 0,272.7 39.8,312.5 	"/>
	<path class="st2" d="M170.1,277.5l4.6-4.6c2.7-2.7,52.1-52.1,52.6-52.6l4.6-4.6l-4.6-4.6c0,0-49.8-49.8-52.6-52.6l-4.6-4.6
		L109,215.5L170.1,277.5z M170.1,172.3c10.1,10,33.5,33.5,43.4,43.4c-10,10-33.4,33.4-43.4,43.4l-43.4-43.4c7.5-7.5,22.7-22.7,34-34
		L170.1,172.3z"/>
	<polygon class="st2" points="131.1,351.5 121.9,342.3 73.6,390.6 114.7,431.4 133,431.4 92,390.6 	"/>
	<polygon class="st2" points="43.1,431.4 62.3,431.4 77.8,417.3 69.1,407.7 	"/>
	<path class="st2" d="M209.2,386l-39,39c-11.3-11.3-39-39-39-39l-9.2,9.2c0,0,23.7,23.7,36.2,36.2h24l36.2-36.2L209.2,386z"/>
	<polygon class="st2" points="261.5,255 252.3,264.2 300.5,312.5 340.2,272.7 340.2,254.8 340.2,254.3 300.5,294.1 	"/>
	<polygon class="st2" points="218.3,342.3 209.2,351.5 248.3,390.6 207.2,431.4 225.6,431.4 266.7,390.6 	"/>
	<path class="st2" d="M209.2,298.6c0,0-27.7,27.7-39,39c-11.3-11.3-39-39-39-39l-4.6-4.6L0,420.5v10.9h7.4l119.1-119.1
		c10.8,10.8,37.2,37.2,39,39l4.6,4.6l4.6-4.6c1.8-1.8,28.2-28.2,39-39l119.1,119.1h7.4v-10.9L213.7,294L209.2,298.6z"/>
	<path class="st2" d="M170.1,119.8L126.7,163L0,36.9v18.3l29.4,29.3L0,114v18.4l38.7-38.6l78.8,78.4l-24.1,24
		c-9,8.9-15.1,15-15.1,15l-4.6,4.6l43.9,43.6l-78.8,78.4L0,299v18.4l29.4,29.4L0,376.2v18.4l126.7-126.1l43.5,43.2l43.5-43.2
		l126.7,126.1v-18.3l-29.4-29.3l29.4-29.4v-18.4l-38.7,38.6l-78.8-78.4l43.9-43.6l-43.9-43.6l78.8-78.4l38.7,38.6V114l-29.4-29.4
		l29.4-29.3V36.9L213.6,163L170.1,119.8z M248.2,215.7l-78.1,77.6L92,215.7l78.1-77.6L248.2,215.7z"/>
	<polygon class="st2" points="262.4,417.3 277.9,431.4 297.2,431.4 271.2,407.7 	"/>
</g>
</svg>
